<svg id="Component_46_6" data-name="Component 46 – 6" xmlns="http://www.w3.org/2000/svg" width="124.985" height="66.147" viewBox="0 0 124.985 66.147">
  <path id="Path_7" data-name="Path 7" d="M84.629,97.973v-4.95h1.128v4.95Zm21.917-1.852a2.019,2.019,0,1,1-2.017-1.941A1.925,1.925,0,0,1,106.546,96.12Zm-1.112,0a.907.907,0,1,0-1.81,0,.908.908,0,1,0,1.81,0Zm-21.256.426c0,.841-.563,1.426-1.738,1.426H80.1v-4.95h2.243c1.166,0,1.69.594,1.69,1.316a1.107,1.107,0,0,1-.661,1.034A1.183,1.183,0,0,1,84.177,96.546Zm-2.9-1.531h.932c.41,0,.625-.2.625-.532s-.249-.5-.625-.5h-.932Zm1.663,1.459c0-.333-.243-.539-.648-.539H81.276v1.078h1.016C82.717,97.013,82.94,96.8,82.94,96.474Zm11.051-1.283a1.787,1.787,0,0,0-1.763-1.007,1.842,1.842,0,0,0-1.955,1.933,1.987,1.987,0,0,0,3.711.948l-.91-.47a.925.925,0,1,1-.831-1.446.842.842,0,0,1,.809.522Zm16.62,0a1.786,1.786,0,0,0-1.763-1.007,1.842,1.842,0,0,0-1.955,1.933,1.987,1.987,0,0,0,3.711.948l-.91-.47a.925.925,0,1,1-.832-1.446.842.842,0,0,1,.809.522Zm-8.1,2.781h-1.348l-.939-1.665H99.5v1.665H98.337v-4.95h2.1c1.133,0,1.927.54,1.927,1.607a1.541,1.541,0,0,1-.936,1.457Zm-1.345-3.31c0-.425-.248-.659-.8-.659H99.5v1.322h.865C100.905,95.326,101.164,95.024,101.164,94.663ZM90.1,97.134v.776a1.832,1.832,0,0,1-.663.121.753.753,0,0,1-.771-.459,1.667,1.667,0,0,1-1.22.487c-.756,0-1.242-.387-1.242-1.122,0-.72.583-1.151,1.484-1.151a3.673,3.673,0,0,1,.887.111v-.12c0-.409-.238-.656-.731-.656a1.416,1.416,0,0,0-.9.358l-.623-.7a2.535,2.535,0,0,1,1.66-.583c1.066,0,1.71.513,1.71,1.473v1.283c0,.137.07.209.218.209A.791.791,0,0,0,90.1,97.134Zm-1.525-.628a2.763,2.763,0,0,0-.633-.082c-.388,0-.581.191-.581.453s.171.428.52.428a.626.626,0,0,0,.694-.557Zm26.066,1.467-1.329-2.3,1.247-1.358H113.3l-1.311,1.458V93.023h-1.118v4.95h1.118v-.891l.535-.573.839,1.464Zm-16.605,0-1.329-2.3,1.247-1.358H96.684l-1.3,1.458V93.023H94.27v4.95h1.118v-.891l.535-.573.839,1.464ZM77.166,94.31l-.657,2.4-.806-2.4H74.491l1.489,3.7a.5.5,0,0,1-.529.3.815.815,0,0,1-.44-.137l-.407.775a1.509,1.509,0,0,0,.882.273,1.639,1.639,0,0,0,1.629-1.328l1.214-3.58ZM74.522,96.1a1.767,1.767,0,0,1-1.705,1.971,1.4,1.4,0,0,1-1.079-.429v.332H70.628V93.023h1.141v1.542a1.516,1.516,0,0,1,1.073-.429A1.743,1.743,0,0,1,74.522,96.1Zm-1.14,0a.863.863,0,0,0-.865-.98.948.948,0,0,0-.748.395v1.222a.956.956,0,0,0,.774.352C73.054,97.087,73.382,96.731,73.382,96.1ZM70.628,73.044V69.726H74.82v3.318Zm0,15.024V74.5H74.82V88.067Zm74.68-5.7h-9.421c.175,1.44,1.247,2.536,3.308,2.536a4.493,4.493,0,0,0,3.359-1.375l2.514,2.567a7.63,7.63,0,0,1-5.854,2.335c-4.815,0-7.632-2.772-7.632-7.243a6.734,6.734,0,0,1,7.054-7.135c4.3,0,6.84,2.637,6.84,6.567A7.847,7.847,0,0,1,145.308,82.365Zm-4.028-2.6a2.453,2.453,0,0,0-2.645-2.412,2.6,2.6,0,0,0-2.745,2.412Zm11.174,8.664a9.364,9.364,0,0,1-6.481-2.324l2.395-2.575a6.01,6.01,0,0,0,4.072,1.631c1.462,0,2.1-.38,2.1-.959,0-.441-.32-.691-1.119-.931-.7-.21-1.8-.392-2.726-.664-2.014-.59-4.017-1.428-4.017-4.273,0-2.637,2.146-4.262,5.739-4.262a8.9,8.9,0,0,1,6.118,2.078l-2.423,2.516a5.39,5.39,0,0,0-3.728-1.386c-1.08,0-1.677.381-1.677.906,0,.44.317.7,1.133.961.707.229,1.881.45,2.811.712,1.935.544,3.938,1.367,3.938,4.067C158.586,86.964,156.024,88.428,152.454,88.428ZM87.811,75.033a5.385,5.385,0,0,0-4.265-1.876c-1.77,0-2.7.636-2.7,1.543,0,1.228,1.4,1.654,4.065,2.405,2.941.828,6.28,1.763,6.28,5.638,0,3.911-3.22,5.664-7.292,5.664-3.437,0-6.242-.98-8.045-3.416L79,82.395a5.855,5.855,0,0,0,4.86,2.263c2.2,0,3-.775,3-1.593,0-1.2-1.276-1.5-4.36-2.355-3.173-.884-5.931-2.106-5.931-5.847,0-3.294,2.7-5.441,7.111-5.441,2.79,0,5.372.744,7.226,3.047Zm42.161-.794a2.719,2.719,0,0,1,2.118.887l-1.681,3.532a2.35,2.35,0,0,0-1.442-.461c-1.071,0-1.987.923-1.987,2.6v7.271h-4.243V74.5H126.9v1.9A3.57,3.57,0,0,1,129.972,74.239Zm-24.445,4.683v9.145H101.34V80.4a2.091,2.091,0,0,0-2.184-2.372,2.206,2.206,0,0,0-2.348,2.429v7.612H92.62V69.726h4.188v6.6a5.137,5.137,0,0,1,4.2-2.092A4.329,4.329,0,0,1,105.527,78.922Zm15.849,6V87.8a6.789,6.789,0,0,1-2.455.448,2.79,2.79,0,0,1-2.858-1.7,6.179,6.179,0,0,1-4.521,1.8c-2.8,0-4.6-1.433-4.6-4.157,0-2.669,2.159-4.264,5.5-4.264a13.64,13.64,0,0,1,3.287.409v-.445c0-1.516-.882-2.43-2.708-2.43a5.247,5.247,0,0,0-3.33,1.326l-2.306-2.6a9.3,9.3,0,0,1,6.151-2.159c3.95,0,6.334,1.9,6.334,5.458v4.755a.7.7,0,0,0,.806.776A2.973,2.973,0,0,0,121.376,84.922ZM115.725,82.6a10.274,10.274,0,0,0-2.344-.3c-1.44,0-2.154.708-2.154,1.68,0,.92.632,1.585,1.927,1.585a2.32,2.32,0,0,0,2.571-2.065Zm46.787,4.274a1.374,1.374,0,1,1-1.374-1.359A1.271,1.271,0,0,1,162.512,86.869Zm-.225,0a1.152,1.152,0,1,0-1.148,1.177A1.071,1.071,0,0,0,162.287,86.869Zm-.872.16.261.48H161.4l-.24-.443h-.3v.443h-.247V86.172h.567c.327,0,.5.167.5.429A.412.412,0,0,1,161.415,87.029Zm.015-.414a.215.215,0,0,0-.247-.233h-.32v.473h.284C161.327,86.855,161.429,86.8,161.429,86.615Z" transform="translate(-51.762 -50.321)"/>
  <g id="Group_492" data-name="Group 492" transform="translate(0 0)" opacity="0">
    <path id="Path_418" data-name="Path 418" d="M87.811,75.033a5.385,5.385,0,0,0-4.265-1.876c-1.77,0-2.7.636-2.7,1.543,0,1.228,1.4,1.654,4.065,2.405,2.941.828,6.28,1.763,6.28,5.638,0,3.911-3.22,5.664-7.292,5.664-3.437,0-6.242-.98-8.045-3.416L79,82.395a5.855,5.855,0,0,0,4.86,2.263c2.2,0,3-.775,3-1.593,0-1.2-1.276-1.5-4.36-2.355-3.173-.884-5.931-2.106-5.931-5.847,0-3.294,2.7-5.441,7.111-5.441,2.79,0,5.372.744,7.226,3.047Z" transform="translate(-52.254 -69.422)"/>
    <path id="Path_420" data-name="Path 420" d="M87.811,75.033a5.385,5.385,0,0,0-4.265-1.876c-1.77,0-2.7.636-2.7,1.543,0,1.228,1.4,1.654,4.065,2.405,2.941.828,6.28,1.763,6.28,5.638,0,3.911-3.22,5.664-7.292,5.664-3.437,0-6.242-.98-8.045-3.416L79,82.395a5.855,5.855,0,0,0,4.86,2.263c2.2,0,3-.775,3-1.593,0-1.2-1.276-1.5-4.36-2.355-3.173-.884-5.931-2.106-5.931-5.847,0-3.294,2.7-5.441,7.111-5.441,2.79,0,5.372.744,7.226,3.047Z" transform="translate(-10.254 -31.754)"/>
    <path id="Path_421" data-name="Path 421" d="M87.811,75.033a5.385,5.385,0,0,0-4.265-1.876c-1.77,0-2.7.636-2.7,1.543,0,1.228,1.4,1.654,4.065,2.405,2.941.828,6.28,1.763,6.28,5.638,0,3.911-3.22,5.664-7.292,5.664-3.437,0-6.242-.98-8.045-3.416L79,82.395a5.855,5.855,0,0,0,4.86,2.263c2.2,0,3-.775,3-1.593,0-1.2-1.276-1.5-4.36-2.355-3.173-.884-5.931-2.106-5.931-5.847,0-3.294,2.7-5.441,7.111-5.441,2.79,0,5.372.744,7.226,3.047Z" transform="translate(-10.254 -22.261)"/>
    <path id="Path_419" data-name="Path 419" d="M87.811,75.033a5.385,5.385,0,0,0-4.265-1.876c-1.77,0-2.7.636-2.7,1.543,0,1.228,1.4,1.654,4.065,2.405,2.941.828,6.28,1.763,6.28,5.638,0,3.911-3.22,5.664-7.292,5.664-3.437,0-6.242-.98-8.045-3.416L79,82.395a5.855,5.855,0,0,0,4.86,2.263c2.2,0,3-.775,3-1.593,0-1.2-1.276-1.5-4.36-2.355-3.173-.884-5.931-2.106-5.931-5.847,0-3.294,2.7-5.441,7.111-5.441,2.79,0,5.372.744,7.226,3.047Z" transform="translate(-69.422 113.528) rotate(-90)"/>
    <path id="Path_422" data-name="Path 422" d="M87.811,75.033a5.385,5.385,0,0,0-4.265-1.876c-1.77,0-2.7.636-2.7,1.543,0,1.228,1.4,1.654,4.065,2.405,2.941.828,6.28,1.763,6.28,5.638,0,3.911-3.22,5.664-7.292,5.664-3.437,0-6.242-.98-8.045-3.416L79,82.395a5.855,5.855,0,0,0,4.86,2.263c2.2,0,3-.775,3-1.593,0-1.2-1.276-1.5-4.36-2.355-3.173-.884-5.931-2.106-5.931-5.847,0-3.294,2.7-5.441,7.111-5.441,2.79,0,5.372.744,7.226,3.047Z" transform="translate(36.578 113.528) rotate(-90)"/>
  </g>
</svg>

