<?xml version="1.0" encoding="utf-8"?>
<!-- Generator: Adobe Illustrator 26.5.0, SVG Export Plug-In . SVG Version: 6.00 Build 0)  -->
<svg version="1.1" id="Layer_1" xmlns="http://www.w3.org/2000/svg" xmlns:xlink="http://www.w3.org/1999/xlink" x="0px" y="0px"
	 viewBox="0 0 94 26" style="enable-background:new 0 0 94 26;" xml:space="preserve">
<style type="text/css">
	.st0{opacity:0.999;}
	.st1{fill:url(#button_00000150798696524482406350000011221282384590631042_);}
	.st2{enable-background:new    ;}
	.st3{fill:#224B45;}
</style>
<g id="CTA" transform="translate(12723 2664)" class="st0">

		<linearGradient id="button_00000170269121931567816830000015396868709590637215_" gradientUnits="userSpaceOnUse" x1="-12970.3408" y1="-2246.3022" x2="-12969.3408" y2="-2246.3022" gradientTransform="matrix(94 0 0 -26 1206489 -61054.8594)">
		<stop  offset="0" style="stop-color:#CEBA79"/>
		<stop  offset="0.399" style="stop-color:#FFF4C4"/>
		<stop  offset="0.685" style="stop-color:#FFF4BD"/>
		<stop  offset="1" style="stop-color:#C3AB75"/>
	</linearGradient>

		<rect id="button" x="-12723" y="-2664" style="fill:url(#button_00000170269121931567816830000015396868709590637215_);" width="94" height="26"/>
	<g class="st2">
		<path class="st3" d="M-12709.8-2655.3c0.8,0,1.6,0.2,2.3,0.6v1.4c-0.8-0.5-1.6-0.8-2.3-0.8c-0.4,0-0.7,0.1-0.9,0.2
			s-0.3,0.4-0.3,0.6c0,0.3,0.2,0.6,0.6,0.9c0.1,0.1,0.6,0.3,1.4,0.7c0.7,0.3,1.2,0.7,1.5,1.1s0.4,0.9,0.4,1.4c0,0.7-0.3,1.3-0.8,1.7
			s-1.2,0.6-2,0.6c-0.5,0-1-0.1-1.4-0.2s-0.8-0.3-1.3-0.6v-1.6c0.9,0.7,1.7,1.1,2.5,1.1c0.4,0,0.7-0.1,0.9-0.3s0.4-0.4,0.4-0.7
			c0-0.4-0.2-0.7-0.6-0.9c-0.3-0.2-0.8-0.4-1.3-0.7c-0.6-0.3-1.1-0.6-1.4-1s-0.5-0.8-0.5-1.4c0-0.7,0.3-1.2,0.8-1.6
			S-12710.6-2655.3-12709.8-2655.3z"/>
		<path class="st3" d="M-12703.3-2655.2v3.4h4.2v-3.4h1.6v8.2h-1.6v-3.5h-4.2v3.5h-1.6v-8.2H-12703.3z"/>
		<path class="st3" d="M-12690.6-2655.3c0.8,0,1.6,0.2,2.3,0.5s1.2,0.9,1.6,1.5s0.6,1.4,0.6,2.2c0,0.8-0.2,1.5-0.6,2.1
			s-0.9,1.2-1.6,1.5s-1.5,0.5-2.3,0.5c-0.8,0-1.6-0.2-2.3-0.6s-1.2-0.9-1.6-1.5s-0.6-1.4-0.6-2.1c0-0.8,0.2-1.5,0.6-2.1
			s0.9-1.2,1.6-1.5S-12691.5-2655.3-12690.6-2655.3z M-12693.5-2651.1c0,0.5,0.1,1,0.4,1.5s0.6,0.8,1,1s0.9,0.4,1.5,0.4
			c0.8,0,1.5-0.3,2.1-0.8s0.8-1.2,0.8-2c0-0.5-0.1-1-0.4-1.5s-0.6-0.8-1-1s-0.9-0.4-1.5-0.4s-1.1,0.1-1.5,0.4s-0.8,0.6-1,1
			S-12693.5-2651.6-12693.5-2651.1z"/>
		<path class="st3" d="M-12680.6-2655.2c0.8,0,1.4,0.2,1.9,0.7s0.7,1,0.7,1.7c0,0.7-0.2,1.3-0.7,1.7s-1.1,0.7-1.9,0.7h-1.5v3.4h-1.6
			v-8.2H-12680.6z M-12681-2651.7c0.4,0,0.8-0.1,1-0.3s0.4-0.5,0.4-0.9c0-0.8-0.5-1.1-1.5-1.1h-1.1v2.3H-12681z"/>
		<path class="st3" d="M-12670.4-2655.2l4.9,5.7v-5.7h1.5v8.2h-1.4l-4.9-5.8v5.8h-1.5v-8.2H-12670.4z"/>
		<path class="st3" d="M-12657.1-2655.3c0.8,0,1.6,0.2,2.3,0.5s1.2,0.9,1.6,1.5s0.6,1.4,0.6,2.2c0,0.8-0.2,1.5-0.6,2.1
			s-0.9,1.2-1.6,1.5s-1.5,0.5-2.3,0.5c-0.8,0-1.6-0.2-2.3-0.6s-1.2-0.9-1.6-1.5s-0.6-1.4-0.6-2.1c0-0.8,0.2-1.5,0.6-2.1
			s0.9-1.2,1.6-1.5S-12658-2655.3-12657.1-2655.3z M-12660-2651.1c0,0.5,0.1,1,0.4,1.5s0.6,0.8,1,1s0.9,0.4,1.5,0.4
			c0.8,0,1.5-0.3,2.1-0.8s0.8-1.2,0.8-2c0-0.5-0.1-1-0.4-1.5s-0.6-0.8-1-1s-0.9-0.4-1.5-0.4s-1.1,0.1-1.5,0.4s-0.8,0.6-1,1
			S-12660-2651.6-12660-2651.1z"/>
		<path class="st3" d="M-12649.8-2655.2l2,5.1l2.1-5.1h1.3l2.2,5.1l2-5.1h1.6l-3.4,8.3h-0.5l-2.6-6.1l-2.6,6.1h-0.5l-3.4-8.3
			H-12649.8z"/>
	</g>
</g>
</svg>
