<svg xmlns="http://www.w3.org/2000/svg" width="77" height="37.412" viewBox="0 0 77 37.412">
  <g id="JL_logotype_stacked" data-name="JL logotype stacked" transform="translate(-29.987 -14.57)">
    <path id="S" d="M103.6,46.494l-1.384-.841A6.775,6.775,0,0,1,100.4,44.1a2.84,2.84,0,0,1-.615-1.8,3.127,3.127,0,0,1,1.043-2.439,3.948,3.948,0,0,1,2.731-.927,4.884,4.884,0,0,1,2.922.894v2.067a4.21,4.21,0,0,0-2.958-1.323,2.451,2.451,0,0,0-1.466.413,1.267,1.267,0,0,0-.573,1.065,1.469,1.469,0,0,0,.374,1.029,5.708,5.708,0,0,0,1.407,1.088l1.443.823a4.014,4.014,0,0,1,2.274,3.538,3.276,3.276,0,0,1-1.035,2.5,3.635,3.635,0,0,1-2.652.957,5.629,5.629,0,0,1-3.432-1.171V48.5a4.257,4.257,0,0,0,3.414,1.841,2.132,2.132,0,0,0,1.425-.449,1.51,1.51,0,0,0,.585-1.193C105.292,47.923,104.717,47.189,103.6,46.494Z"/>
    <rect id="I" width="1.828" height="12.719" transform="translate(89.494 39.098)"/>
    <path id="W" d="M79.844,39.1l-3.472,8.765L72.828,39.1H71.1l-3.523,8.765L64.064,39.1H62.238l5.146,12.831h.354l4.215-10.407,4.179,10.407h.354L81.651,39.1Z"/>
    <path id="E" d="M46.373,39.1V51.817h8.205V50.176H48.2V46.221h6.025v-1.64H48.2V40.738h6.213V39.1Z"/>
    <path id="L" d="M29.987,39.1V51.817h7.795V50.176H31.814V39.1Z"/>
    <path id="N" d="M100.107,14.751h1.73V27.469h-1.566l-8.887-9.8v9.8H89.672V14.751h1.475l8.96,9.878Z"/>
    <path id="H" d="M78.64,14.751h1.821V27.469H78.64V21.934H71.2v5.535H69.38V14.751H71.2v5.538H78.64Z"/>
    <path id="O" d="M54.441,14.57a6.841,6.841,0,0,1,4.909,1.866,6.191,6.191,0,0,1,1.96,4.68,6.094,6.094,0,0,1-1.978,4.657,7.037,7.037,0,0,1-4.991,1.843,6.634,6.634,0,0,1-4.79-1.843,6.147,6.147,0,0,1-1.915-4.621,6.285,6.285,0,0,1,1.929-4.716A6.728,6.728,0,0,1,54.441,14.57Zm.073,1.73a4.937,4.937,0,0,0-3.588,1.365,4.653,4.653,0,0,0-1.4,3.487,4.565,4.565,0,0,0,1.409,3.423,5.233,5.233,0,0,0,7.081-.027,4.658,4.658,0,0,0,1.424-3.469,4.549,4.549,0,0,0-1.424-3.4A4.83,4.83,0,0,0,54.514,16.3Z"/>
    <path id="J" d="M37.727,14.749h1.821V25.632a5.034,5.034,0,0,1-.946,3.535,2.916,2.916,0,0,1-1.581.866c-.03-.026-1.688-1.69-1.688-1.69a3.913,3.913,0,0,0,1.473-.16,1.181,1.181,0,0,0,.691-.667,5.683,5.683,0,0,0,.23-2.094Z"/>
  </g>
</svg>
