<svg xmlns="http://www.w3.org/2000/svg" width="21.962" height="28" xmlns:v="https://vecta.io/nano"><defs><linearGradient id="A" x1="-.3" y1=".5" x2="1.473" y2=".5"><stop offset="0" stop-color="#ceb979"/><stop offset=".261" stop-color="#ecdda7"/><stop offset=".41" stop-color="#fff4c4"/><stop offset=".479" stop-color="#fff4c1"/><stop offset=".707" stop-color="#fff4bc"/><stop offset=".776" stop-color="#f5e8b0"/><stop offset=".901" stop-color="#dbc891"/><stop offset="1" stop-color="#c3ab75"/></linearGradient></defs><path d="M11.016.306C11.021.203 11.009.1 10.982 0c.04 0 .079.1.11.306l.819 6.571c.069.434.052.878-.051 1.305-.2.49-.317.549-.317.549l.686 6.8a5.43 5.43 0 0 1 .032 1.8c-.078.202-.187.391-.323.559l.666 6.977a3.82 3.82 0 0 1-.105 1.982 2.69 2.69 0 0 1-.225.426 1.6 1.6 0 0 1-.532.525l-.262.119c-.161.054-.33.081-.5.08h0c.061-.003.118-.032.157-.08a.58.58 0 0 0 .082-.119 1.93 1.93 0 0 0 .168-.525l.071-.426a11.51 11.51 0 0 0 .033-1.946l-.21-7.013c.046-.184.079-.371.1-.56a17.2 17.2 0 0 0-.01-1.8l-.21-6.8c.052-.175.084-.356.094-.539.033-.441.038-.883.016-1.324L11.016.306zm.151 0l1.38 6.58a1.96 1.96 0 0 1-.086 1.287c-.332.489-.54.558-.54.558l1.161 6.8c.186.583.205 1.207.054 1.8a2.19 2.19 0 0 1-.544.559c0 0 .794 5.092 1.122 6.94.135.875.244 1.435-.177 2.018-.111.155-.239.298-.38.426a2.56 2.56 0 0 1-.9.525l-.441.119a4.32 4.32 0 0 1-.837.08h0a8.48 8.48 0 0 0 1.177-.08l.62-.119a4.13 4.13 0 0 0 1.261-.525c.193-.123.372-.266.535-.426.593-.584.438-1.179.249-2.055l-1.579-6.9a2.81 2.81 0 0 0 .765-.559c.248-.275.145-.911-.076-1.8l-1.637-6.8a1.95 1.95 0 0 0 .762-.567 1.4 1.4 0 0 0 .121-1.269L11.235.309c-.069-.189-.167-.306-.26-.306h0c.073-.002.139.1.192.303zm.151 0c.089.189.747 1.754 2.5 6.6.213.409.151.907-.157 1.25a2.77 2.77 0 0 1-.985.576c0 0 1.156 3.821 2.113 6.8.285.887.417 1.523.1 1.8-.298.235-.631.424-.986.559l2.035 6.868c.244.875.443 1.507-.321 2.091a4.26 4.26 0 0 1-.689.426 6.26 6.26 0 0 1-1.625.525l-.8.119c-.504.054-1.011.081-1.518.08h0l1.858-.08.979-.119c.681-.098 1.348-.274 1.989-.525.293-.118.575-.26.844-.426.935-.584.692-1.252.393-2.128l-2.492-6.831a4.95 4.95 0 0 0 1.207-.559c.391-.275.229-.911-.12-1.8l-2.588-6.8c.433-.123.842-.321 1.207-.585a.93.93 0 0 0 .192-1.232L11.39.308a.51.51 0 0 0-.411-.306c.123-.002.243.101.339.304zm.151 0c.129.189 1.081 1.773 3.626 6.617.2.382.325.9-.227 1.213-.445.268-.927.468-1.43.594 0 0 1.678 3.821 3.063 6.8.412.887.6 1.523.142 1.8a6.41 6.41 0 0 1-1.428.559c0 0 2.084 4.947 2.948 6.795.354.876.642 1.58-.465 2.164a7.04 7.04 0 0 1-1 .426c-.765.253-1.553.429-2.353.525l-1.158.119-2.2.08h0l2.539-.08 1.337-.119c.92-.096 1.829-.271 2.718-.525.393-.115.778-.258 1.152-.426 1.278-.584.946-1.325.537-2.2l-3.4-6.759c.568-.127 1.121-.314 1.649-.559.534-.275.313-.911-.163-1.8l-3.539-6.8a7.01 7.01 0 0 0 1.652-.6c.638-.309.494-.813.262-1.2L11.544.304c-.13-.184-.337-.297-.562-.306h0a.61.61 0 0 1 .487.308zm4.9 6.635c.263.382.426.868-.3 1.178a9.14 9.14 0 0 1-1.875.612l4.014 6.8c.54.887.792 1.523.186 1.8a10.1 10.1 0 0 1-1.87.559l3.861 6.722c.464.875.841 1.653-.609 2.237a10.99 10.99 0 0 1-1.307.426 20.22 20.22 0 0 1-3.082.525l-1.517.119q-1.437.082-2.879.08 1.612 0 3.221-.08l1.7-.119a25.05 25.05 0 0 0 3.446-.525 13.34 13.34 0 0 0 1.461-.426c1.621-.583 1.2-1.4.681-2.273l-4.317-6.686c.712-.125 1.412-.312 2.092-.559.678-.275.4-.911-.208-1.8l-4.49-6.8c.718-.141 1.421-.35 2.1-.622.808-.31.626-.777.332-1.159L11.699.306A1.01 1.01 0 0 0 10.986 0a.86.86 0 0 1 .637.306c.166.189 1.413 1.791 4.745 6.635zm-5.5-6.635l-.819 6.571a3.32 3.32 0 0 0 .051 1.305c.2.49.317.549.317.549l-.686 6.8c-.11.594-.121 1.202-.032 1.8.078.202.187.391.323.559a849.53 849.53 0 0 1-.666 6.977 3.83 3.83 0 0 0 .1 1.982 2.74 2.74 0 0 0 .225.426 1.6 1.6 0 0 0 .532.525 1.37 1.37 0 0 0 .386.155c.107.025.217.04.327.044h.033c-.037-.006-.071-.021-.1-.044-.051-.042-.093-.095-.122-.155a1.97 1.97 0 0 1-.167-.525l-.071-.426c-.066-.647-.077-1.298-.033-1.946l.209-7.013a4.4 4.4 0 0 1-.1-.56 16.97 16.97 0 0 1 .01-1.8l.21-6.8a2.38 2.38 0 0 1-.094-.539c-.033-.441-.039-.883-.017-1.324l.258-6.562a.95.95 0 0 1 .035-.306c-.036.001-.075.103-.107.307zM4.956 6.95c-.294.382-.476.85.332 1.159a11.72 11.72 0 0 0 2.1.622c0 0-2.462 3.822-4.49 6.8-.6.887-.885 1.523-.208 1.8a12.33 12.33 0 0 0 2.091.559c0 0-3.052 4.838-4.317 6.686-.519.875-.94 1.69.681 2.273.478.17.966.312 1.461.426 1.135.255 2.287.43 3.446.525l2.5.155q1.076.039 2.154.044-.95-.005-1.9-.044L6.57 27.8a20.22 20.22 0 0 1-3.082-.525 11.01 11.01 0 0 1-1.307-.426c-1.45-.584-1.073-1.361-.609-2.237l3.861-6.722c-.64-.126-1.266-.313-1.87-.559-.606-.275-.354-.911.186-1.8l4.014-6.8a9.14 9.14 0 0 1-1.875-.612c-.723-.31-.56-.8-.3-1.178L10.336.306c.159-.189.391-.301.638-.306-.269.003-.526.113-.713.306-.182.189-1.577 1.801-5.306 6.644zm5.46-6.644c-.148.189-1.249 1.782-4.187 6.626-.232.382-.375.886.262 1.2a7.02 7.02 0 0 0 1.653.6l-3.539 6.8c-.476.887-.7 1.523-.164 1.8.528.245 1.081.432 1.649.559 0 0-2.407 4.911-3.4 6.759-.409.875-.742 1.616.537 2.2.374.168.759.311 1.152.426.889.254 1.798.429 2.718.525l1.971.155q.835.038 1.672.044h.032q-.723-.005-1.447-.044l-1.707-.155c-.8-.096-1.588-.272-2.353-.525-.344-.116-.678-.259-1-.426-1.107-.584-.819-1.288-.465-2.164l2.948-6.795c-.497-.129-.976-.316-1.428-.559-.462-.275-.27-.911.142-1.8l3.063-6.8c-.503-.126-.985-.326-1.43-.594-.552-.309-.428-.832-.227-1.213L10.494.308c.101-.177.284-.292.487-.306-.225.008-.433.121-.563.304zm.151 0c-.109.189-.914 1.764-3.064 6.607a.93.93 0 0 0 .192 1.232c.365.264.774.462 1.207.585l-2.587 6.8c-.348.887-.511 1.523-.12 1.8.375.24.781.428 1.207.559 0 0-1.762 4.983-2.492 6.831-.3.876-.543 1.544.393 2.128a5.51 5.51 0 0 0 .844.426c.641.251 1.308.427 1.989.525l1.443.155q.611.038 1.223.044h.032q-.5-.005-1-.044c-.395-.029-.789-.081-1.178-.155a6.25 6.25 0 0 1-1.625-.525 4.25 4.25 0 0 1-.689-.426c-.765-.584-.566-1.215-.321-2.091l2.035-6.868c-.355-.135-.688-.324-.986-.559-.319-.275-.187-.911.1-1.8l2.112-6.8c-.365-.122-.7-.318-.985-.576-.307-.343-.37-.841-.157-1.25l2.5-6.6c.1-.2.217-.306.337-.306h0a.51.51 0 0 0-.408.308zm.151 0c-.069.189-.579 1.745-1.942 6.589a1.4 1.4 0 0 0 .121 1.269 1.95 1.95 0 0 0 .762.567l-1.637 6.8c-.221.887-.323 1.523-.076 1.8.222.228.48.417.765.559l-1.579 6.9c-.19.876-.344 1.471.249 2.055a3.27 3.27 0 0 0 .535.426c.388.244.814.421 1.26.525.301.074.606.126.914.155q.387.038.775.044h.032c-.184-.004-.368-.019-.55-.044-.221-.03-.439-.082-.65-.155a2.56 2.56 0 0 1-.9-.525c-.141-.128-.269-.271-.38-.426-.421-.584-.312-1.143-.177-2.018l1.122-6.94a2.19 2.19 0 0 1-.544-.559c-.151-.593-.132-1.217.054-1.8l1.161-6.8s-.208-.069-.539-.558a1.96 1.96 0 0 1-.086-1.287l1.381-6.58c.053-.2.119-.306.185-.306h0c-.086.003-.179.105-.254.309z" fill="url(#A)"/></svg>