<svg xmlns="http://www.w3.org/2000/svg" width="701.164" height="692.875" xmlns:v="https://vecta.io/nano"><path d="M258.048 533.727l.064.02-.06-.018m-.081-.025l.081.025-.113-.034zm.141.043l-.06-.018-.081-.025.063.019.078.024m-.078-.024l.033.01.045.014-.078-.024m.078.024l-.045-.014.033.01.012.004m-.012-.004l.012.004-.012-.004m-.226-.069l.063.019-.053-.016-.01-.003m.096.029l-.073-.023-.012-.004.053.016zm0 0l.063.019-.123-.038-.014-.004.073.023m.063.019l-.123-.038.012.004.144.043-.033-.01m-.112-.035l.01.003.166.051-.033-.01-.144-.043m.185.06l-.012-.004-.166-.051.01.003.174.05m-.167-.051l.005.005.163.045-.167-.051m.01.004l.01.003.147.044-.158-.049m.158.049l-.147-.044c.05.011.1.035.147.044M414.757 22.576l-32.636 122.487c-1.919 7.142-5.327 18.83-7.747 24.345-3.82 8.715-4.649 9.474-4.649 9.474l-34.81 126.678c-4.508 16.537-7.859 28.34-9.977 33.246a90.38 90.38 0 0 1-4.89 9.797l-36.011 130.572c-4.516 16.297-6.905 25.382-11.55 35.745-1.365 3.055-2.552 5.481-3.611 7.496a40.03 40.03 0 0 1-5.822 8.824 8.7 8.7 0 0 1-2.947 2.231 3.71 3.71 0 0 1-1.995.274l.325.099.219.067.019.006a27.97 27.97 0 0 0 5.813.895 23.3 23.3 0 0 0 7.452-.855c4.502-1.324 8.626-3.698 12.033-6.925 2.266-2.049 4.355-4.286 6.245-6.687 7.56-9.474 9.401-19.466 12.974-36.039l28.028-132.291c2.48-2.177 4.831-3.436 8.657-8.637 3.339-4.542 6.181-16.495 9.601-33.366l26.705-129.157s2.372-.472 8.496-8.481c3.874-5.072 6.855-16.527 8.239-23.827l23.12-125.581c.618-3.947.52-6.024-.145-6.234h0c.209.069-.153 2.007-1.141 5.839M254.888 528.748a39.65 39.65 0 0 1 .11-10.57c.247-2.263.62-4.938 1.191-8.233 1.954-11.188 5.049-20.061 10.423-36.091l43.16-128.383c.254-3.645.73-7.272 1.426-10.859.999-5.253 4.81-16.91 10.32-33.141l41.98-124.487s-.265-1.095 1.445-10.453c1.076-5.926 4.786-17.522 7.191-24.515L413.568 22.22c1.315-3.699 2.103-5.525 2.319-5.479h0c-.679-.188-1.925 1.499-3.606 5.086-1.561 3.329-13.91 30.615-51.054 117.04-2.933 6.827-6.868 17.99-6.494 24.361.598 10.065 2.301 11.78 2.301 11.78L306.95 297.017c-6.6 15.898-10.927 27.402-10.696 33.032.264 6.458 1.504 8.808 2.35 12.002l-50.743 125.342c-6.303 15.737-10.364 25.051-9.392 37.133.222 3.048.702 6.072 1.436 9.039 1.02 4.581 3.112 8.855 6.104 12.47l3.792 3.556c2.431 1.822 5.161 3.204 8.069 4.084-1.057-.391-1.881-1.237-2.245-2.303a11.16 11.16 0 0 1-.735-2.622m3.779 5.17h0l-.019-.006.019.006m-.019-.006l-.145-.045-.056-.017-.018-.006.219.067m0 0l-.145-.045.102.032.062.019-.019-.006m.019.006h0l-.062-.019.062.019m-.219-.068l.056.017-.028-.008-.027-.008m.056.017l-.028-.008.067.021.063.019-.102-.032m.102.032l-.063-.019.069.022.056.017-.062-.019m.062.019h0l-.056-.017.056.017m-.563-.173l.078.024.223.071.026.009-.322-.103m.299.091l.026.009.018.006-.044-.014m-.18-.054l.18.054-.223-.071.04.013m.226.069l.027.008-.201-.062-.051-.016.18.054.044.014m-.177-.051l.051.016.217.066-.067-.021-.201-.062m.338.104l-.233-.072-.053-.016.217.066.069.022m0 0l-.233-.072.056.017.231.071h0l-.056-.017m-.179-.054l.227.068h0l-.231-.071m-.317-.097l.078.024zm.119.036l-.119-.036.078.024.04.013m-.118-.037h0l.17.052-.051-.016-.119-.037m.17.052l.051.016-.202-.062-.019-.006.17.052m-.151-.046l.037.012.219.067-.053-.016-.202-.062m.311.095l-.242-.074-.033-.01.219.067.056.017m-.242-.074c.156.043.311.1.471.143l-.227-.068-.242-.074m.752.23l.146.045.131.04-.278-.085m.278.085h0l-.131-.04.131.04m-.556-.17l.111.036.17.052-.278-.085m.278.085l-.17-.052.124.038.193.059-.146-.045m.278.085h0l-.201-.062-.123-.038.193.059.131.04m-.201-.062l.197.061h0l-.201-.062m-.358-.107l.111.036-.111-.036m.111.036l.124.038-.192-.059-.041-.012.111.036m.124.038l-.192-.059.101.03.214.065-.123-.038m-.092-.028l.412.126-.197-.061-.214-.065m-.141-.043l.041.012-.041-.012m0 0h0l.021.006.121.037-.101-.03-.041-.012m.552.169h0l-.527-.162.121.037.412.126m-.554-.169l.022.007-.021-.006zm0 0h0l.552.169-.527-.162-.022-.007m-14.691-6.108l-6.849-4.491a44.94 44.94 0 0 1-12.316-14.369c-1.698-3.13-3.062-6.429-4.072-9.843-3.89-12.974 1.136-22.73 8.373-38.186l58.317-122.286c-1.984-3.546-4.449-6.27-6.116-13.157-1.449-6.002 3.384-17.351 11.069-32.918l58.194-119.53s-3.148-2.342-6.049-13.112c-1.835-6.812 2.329-17.543 5.793-24.206l60.678-114.282c2.046-3.475 3.75-5.026 4.883-4.695l-.003-.004c-1.59-.473-3.75.941-6.167 4.301-2.238 3.122-19.727 29.206-70.298 111.524-3.996 6.503-8.38 16.792-5.089 24.054 5.203 11.473 9.789 14.44 9.789 14.44l-66.299 117.052c-8.776 15.233-14.116 26.426-11.446 32.803 3.069 7.315 6.767 10.415 9.888 14.31l-65.893 119.233c-8.177 15.183-14.163 25.366-7.351 39.235a59.32 59.32 0 0 0 6.708 10.651 70.53 70.53 0 0 0 18.529 16.268l9.882 5.413a140.04 140.04 0 0 0 19.741 7.653l-.012-.004c-4.828-1.459-9.488-3.426-13.902-5.867M417.323 23.363c-.228 3.736-2.78 34.206-13.599 128.676-.855 7.462-3.405 18.686-8.738 23.306-8.424 7.308-12.345 7.489-12.345 7.489l-18.599 131.639c-2.33 17.203-4.667 29.316-9.227 33.48-5.233 4.777-8.802 5.656-12.426 7.489L322.35 489.431c-2.642 16.861-3.929 27.759-14.411 36.34-2.746 2.268-5.723 4.24-8.883 5.884-5.656 2.952-11.876 4.666-18.246 5.026-3.994.253-8.003.078-11.959-.524-3.251-.483-6.467-1.172-9.631-2.063l.063.019.387.118.104.031q6.641 1.922 13.454 3.232c5.43 1.064 10.935 1.7 16.464 1.901 8.273.401 16.551-.657 24.457-3.127a59.37 59.37 0 0 0 11.516-5.079c13.405-7.687 14.138-19.475 15.845-36.637 2.543-36.528 12.049-135.696 12.049-135.696 4.766-1.483 9.56-1.987 16.198-6.335 5.778-3.792 7.611-16.058 8.858-33.593l10.485-134.115s5.464.106 16.192-6.496c6.79-4.18 8.907-15.163 9.23-22.788l4.085-131.769c-.12-4.171-1.132-6.529-2.716-7.019h0c1.125.347 1.68 2.566 1.429 6.625M259.673 534.232l.104.031-.104-.031m-.387-.118l.168.051.219.067-.387-.118m.168.051l.323.098-.104-.031-.219-.067m-.231-.071l.063.019-.063-.019m.063.019l.168.051-.215-.066-.017-.005.063.019m.168.051l-.215-.066.538.162h0l-.323-.098m-.231-.071l.017.005-.017-.005m0 0h0l.546.171.004.005-.538-.162-.017-.005m0 0h0l.543.167.003.004-.546-.171m0 0l.545.17-.543-.167zm.563.173l.552.169.004.005-.561-.175m0 0h0l.552.169-.552-.169m0 0l.547.171h0l-.552-.169zm0 0l-.004-.005.545.17.005.005-.547-.171m-.012-.004l.554.169-.545-.17-.003-.004m-27.442-10.007l-12.958-6.358a105.46 105.46 0 0 1-24.741-18.168c-3.484-3.5-6.612-7.337-9.339-11.455-9.737-14.762-2.782-25.389 6.327-40.279 20.599-31.011 73.468-116.186 73.468-116.186-4.263-4.244-9.183-7.718-13.654-15.462-3.893-6.75 1.955-17.788 11.817-32.689l74.412-114.571s-6.037-3.591-13.539-15.77c-4.747-7.703-.14-17.562 4.388-23.901l79.92-108.768c2.78-3.251 5.402-4.526 7.45-3.911h0c-2.51-.753-5.585.379-8.734 3.518-2.921 2.913-25.542 27.8-89.543 106.004-5.055 6.183-9.891 15.601-3.686 23.751 9.809 12.881 17.28 17.098 17.28 17.098l-82.515 112.094c-10.954 14.568-17.309 25.45-12.192 32.574 5.873 8.172 12.025 12.024 17.426 16.615l-81.044 113.134c-10.049 14.607-17.966 25.67-5.308 41.326a94.94 94.94 0 0 0 11.975 12.261c9.448 7.943 19.844 14.684 30.951 20.067l16.015 7.296c10.291 4.26 20.784 7.977 31.419 11.223l-.012-.004c-8.705-2.642-17.248-5.793-25.583-9.438M419.904 24.163c.453 3.944 2.823 36.283 5.436 134.864.204 7.785-1.481 18.537-9.731 22.267-13.029 5.894-20.04 5.503-20.04 5.503l-2.38 136.594c-.155 17.869-1.482 30.29-8.481 33.708-8.039 3.919-14.064 4.049-19.967 5.182l-4.064 137.405c-.77 17.439-.948 30.139-17.275 36.932-4.564 1.889-9.304 3.32-14.15 4.274a105.41 105.41 0 0 1-30.668 1.228 171.82 171.82 0 0 1-20.971-3.279q-8.719-1.903-17.271-4.399l.545.17q10.466 3.092 21.1 5.57c8.408 1.983 16.911 3.537 25.476 4.656a149.27 149.27 0 0 0 36.878.67c5.689-.647 11.309-1.806 16.789-3.465 19.249-5.902 18.871-19.501 18.708-37.23-2.012-37.924-3.926-139.108-3.926-139.108 7.042-.787 14.297-.54 23.736-4.031 8.222-3.04 9.04-15.621 8.107-33.823l-5.728-139.072s8.555.683 23.891-4.511c9.701-3.286 10.959-13.801 10.222-21.753-9.324-100.622-14.163-133.904-14.954-137.953-.859-4.398-2.788-7.036-5.284-7.804l-.004-.005c2.041.629 3.513 3.126 4.004 7.412M260.337 534.447l-.004-.005.545.17.004.005-.545-.17m-.004-.005l.543.168h0l-.545-.17m0 0h0l.543.167h0l-.543-.168m-.012-.004l.552.168-.543-.167-.005-.005m.565.171l.545.17-.004-.005-.545-.17.004.005m-.004-.005h0l.543.167.005.005-.545-.17m-.005-.006l.545.17-.543-.167zm-2.768-.848l.018.006-.018-.006m-37.433-13.062l-19.075-8.225c-12.879-6.064-25.482-13.03-37.164-21.966a120.24 120.24 0 0 1-14.608-13.066c-15.579-16.55-6.699-28.055 4.286-42.374 25.154-29.618 88.616-110.083 88.616-110.083-6.543-4.935-13.916-9.165-21.192-17.767-6.338-7.497.525-18.225 12.564-32.46l90.625-109.615s-8.917-4.836-21.025-18.426c-7.665-8.595-2.602-17.583 2.981-23.589 70.721-76.159 95.907-100.447 99.165-103.256 3.518-3.025 7.054-4.021 10.022-3.125h0c-3.428-1.039-7.426-.183-11.306 2.732-3.602 2.705-31.352 26.386-108.785 100.494-6.117 5.848-11.404 14.4-2.281 23.44 14.41 14.29 24.77 19.756 24.77 19.756l-98.731 107.135c-13.127 13.902-20.499 24.475-12.939 32.346 8.68 9.031 17.284 13.633 24.963 18.919l-96.194 107.035c-11.919 14.03-21.767 25.976-3.264 43.418a150.39 150.39 0 0 0 17.239 13.876c13.725 9.556 28.414 17.161 43.381 23.863l22.131 9.163q21.265 8.173 43.089 14.791l-.01-.003c-12.58-3.841-25.022-8.153-37.255-13.007M422.474 24.935c1.13 4.152 8.431 38.371 24.472 141.056 1.27 8.101.438 18.384-10.719 21.224-17.634 4.496-27.735 3.519-27.735 3.519l13.836 141.551c2.021 18.533 1.711 31.266-7.732 33.937-10.846 3.061-19.325 2.44-27.506 2.878l11.908 140.821c1.099 18.014 2.031 32.517-20.144 37.526-6.389 1.416-12.882 2.306-19.416 2.662-14.68.877-29.025-.396-43.093-2.571-10.107-1.567-20.096-3.617-29.98-6.033q-12.541-3.071-24.928-6.74l.543.167q14.304 4.261 28.762 7.912c11.387 2.876 22.879 5.387 34.487 7.412 16.152 2.812 32.582 4.722 49.302 4.475a150.25 150.25 0 0 0 22.053-1.863c25.091-4.115 23.609-19.524 21.573-37.82-6.57-39.318-19.893-142.529-19.893-142.529 9.322-.09 19.028.907 31.273-1.726 10.668-2.298 10.47-15.185 7.359-34.052L414.95 192.706s11.649 1.261 31.591-2.527c12.615-2.394 13.014-12.441 11.213-20.709C435 64.734 425.232 29.584 423.762 25.328c-1.598-4.623-4.442-7.541-7.859-8.591 2.953.908 5.342 3.687 6.572 8.199M261.437 534.765l-.004-.005.542.166.005.005-.543-.167m-.015-.005l.55.168-.542-.166-.005-.005m-3.315-1.01h0l.056.017-.037-.012-.019-.005m3.863 1.181l.547.171-.541-.165-.005-.005m194.507-9.634c-11.128-40.715-35.867-145.943-35.867-145.943 11.6.606 23.762 2.354 38.811.58 13.114-1.55 11.9-14.747 6.613-34.28l-38.159-148.988s14.738 1.842 39.282-.539c15.527-1.504 15.064-11.073 12.207-19.669-36.186-108.847-50.879-145.87-53.03-150.335a17.3 17.3 0 0 0-10.426-9.375c3.867 1.187 7.174 4.246 9.135 8.985 1.812 4.361 14.038 40.449 43.511 147.241 2.329 8.435 2.362 18.24-11.71 20.189-22.242 3.088-35.433 1.534-35.433 1.534l30.053 146.51c4.196 19.199 4.901 32.241-6.988 34.165-13.647 2.204-24.584.833-35.044.573l27.884 144.234c2.968 18.58 5.005 34.897-23.006 38.119a184.6 184.6 0 0 1-24.69 1.057c-18.759-.376-37.274-2.923-55.515-6.374q-19.664-3.72-38.994-8.789-16.369-4.242-32.594-9.083 18.403 5.531 36.97 10.422 21.596 5.694 43.501 10.168c20.326 4.088 40.926 7.273 61.724 8.272 9.105.475 18.23.391 27.325-.251 30.935-2.323 28.343-19.549 24.438-38.412m-247.457-8.167l-25.189-10.115c-17.05-7.339-33.82-15.584-49.589-25.76a184.5 184.5 0 0 1-19.877-14.682c-21.425-18.336-10.609-30.723 2.245-44.465 29.714-28.224 103.768-103.985 103.768-103.985-8.82-5.636-18.653-10.613-28.734-20.072-8.782-8.245-.902-18.661 13.321-32.233l106.833-104.661s-11.803-6.088-28.515-21.084c-10.579-9.487-5.064-17.593 1.58-23.287 84.149-72.054 114.466-95.131 118.406-97.738 4.249-2.802 8.709-3.516 12.595-2.336a17.35 17.35 0 0 0-13.881 1.943c-4.278 2.499-37.163 24.978-128.03 94.979-7.175 5.53-12.911 13.204-.879 23.133 19.017 15.702 32.267 22.416 32.267 22.416L190.395 261.367c-15.303 13.238-23.692 23.503-13.687 32.116 11.487 9.89 22.546 15.241 32.504 21.225L97.862 415.642c-13.787 13.454-25.567 26.286-1.218 45.511a222.85 222.85 0 0 0 22.511 15.487c17.803 10.803 36.663 19.682 55.802 27.659l28.245 11.032q27.088 9.952 54.759 18.359l-.01-.003q-24.711-7.545-48.925-16.575m49.141 16.643l.033.01-.087-.018.056.017" fill="#224b45"/></svg>