<?xml version="1.0" encoding="utf-8"?>
<!-- Generator: Adobe Illustrator 27.0.0, SVG Export Plug-In . SVG Version: 6.00 Build 0)  -->
<svg version="1.1" id="Layer_1" xmlns="http://www.w3.org/2000/svg" xmlns:xlink="http://www.w3.org/1999/xlink" x="0px" y="0px"
	 viewBox="0 0 95 22" style="enable-background:new 0 0 95 22;" xml:space="preserve">
<style type="text/css">
	.st0{enable-background:new    ;}
	.st1{fill:#154734;}
	.st2{fill:none;stroke:#154734;stroke-width:0.3;}
	.st3{fill:none;}
	.st4{fill:none;stroke:#154734;}
</style>
<g id="CTA" transform="translate(-95 -195)">
	<g class="st0">
		<path class="st1" d="M106.8,203v0.8h-2.3v1.4h2.3v0.8h-2.3v2.4h-1.1V203H106.8z"/>
		<path class="st1" d="M109.4,203v5.5h-1.1V203H109.4z"/>
		<path class="st1" d="M112.1,203l3.2,3.8V203h1v5.5h-0.9l-3.3-3.9v3.9h-1V203H112.1z"/>
		<path class="st1" d="M120.5,203c0.6,0,1.1,0.1,1.5,0.3s0.8,0.6,1,1s0.4,0.9,0.4,1.4c0,0.5-0.1,1-0.4,1.4c-0.2,0.4-0.6,0.7-1,1
			s-1,0.3-1.6,0.3h-2.2V203H120.5z M120.4,207.7c0.6,0,1.1-0.2,1.4-0.5c0.4-0.4,0.5-0.8,0.5-1.4c0-0.6-0.2-1.1-0.5-1.4
			s-0.8-0.5-1.4-0.5h-1.1v3.8H120.4z"/>
		<path class="st1" d="M128.1,203l1.3,1.8l1.3-1.8h1.3l-2.1,2.8v2.7h-1.1v-2.7l-2.1-2.7H128.1z"/>
		<path class="st1" d="M135.6,203c0.6,0,1.1,0.1,1.5,0.3s0.8,0.6,1.1,1s0.4,0.9,0.4,1.4c0,0.5-0.1,1-0.4,1.4c-0.3,0.4-0.6,0.8-1.1,1
			s-1,0.4-1.5,0.4c-0.6,0-1.1-0.1-1.5-0.4s-0.8-0.6-1.1-1c-0.3-0.4-0.4-0.9-0.4-1.4c0-0.5,0.1-1,0.4-1.4s0.6-0.8,1.1-1
			S135,203,135.6,203z M133.7,205.8c0,0.4,0.1,0.7,0.2,1c0.2,0.3,0.4,0.5,0.7,0.7s0.6,0.2,1,0.2c0.6,0,1-0.2,1.4-0.5
			c0.4-0.4,0.5-0.8,0.5-1.4c0-0.4-0.1-0.7-0.2-1s-0.4-0.5-0.7-0.7s-0.6-0.2-1-0.2s-0.7,0.1-1,0.2s-0.5,0.4-0.7,0.7
			S133.7,205.4,133.7,205.8z"/>
		<path class="st1" d="M141.2,203v3.2c0,0.3,0,0.6,0.1,0.8c0.1,0.2,0.3,0.4,0.5,0.5s0.5,0.2,0.8,0.2c0.3,0,0.6-0.1,0.8-0.2
			c0.2-0.1,0.4-0.3,0.5-0.5c0.1-0.2,0.2-0.5,0.2-0.9V203h1.1v3.2c0,0.7-0.2,1.3-0.7,1.7c-0.4,0.4-1.1,0.6-1.9,0.6
			c-0.5,0-0.9-0.1-1.3-0.3s-0.7-0.4-0.8-0.8s-0.3-0.7-0.3-1.2V203H141.2z"/>
		<path class="st1" d="M148.8,203c0.5,0,0.9,0.1,1.3,0.4c0.3,0.3,0.5,0.7,0.5,1.1c0,0.3-0.1,0.6-0.2,0.8s-0.4,0.4-0.7,0.5
			c0.2,0.1,0.3,0.2,0.5,0.4c0.1,0.2,0.3,0.4,0.5,0.8c0.3,0.7,0.6,1.1,0.7,1.4h-1.2c-0.1-0.1-0.2-0.3-0.3-0.6c-0.3-0.6-0.5-1-0.7-1.2
			c-0.1-0.2-0.3-0.3-0.4-0.4c-0.1-0.1-0.3-0.1-0.4-0.1h-0.4v2.3h-1.1V203H148.8z M148.5,205.4c0.3,0,0.5-0.1,0.7-0.2
			c0.2-0.1,0.2-0.3,0.2-0.6c0-0.2-0.1-0.4-0.2-0.6s-0.4-0.2-0.7-0.2h-0.7v1.5H148.5z"/>
		<path class="st1" d="M156.9,203c0.5,0,1,0.1,1.5,0.4v0.9c-0.6-0.3-1.1-0.5-1.5-0.5c-0.3,0-0.5,0.1-0.6,0.2
			c-0.1,0.1-0.2,0.2-0.2,0.4c0,0.2,0.1,0.4,0.4,0.6c0.1,0.1,0.4,0.2,0.9,0.4c0.4,0.2,0.8,0.4,1,0.7c0.2,0.3,0.3,0.6,0.3,0.9
			c0,0.5-0.2,0.8-0.5,1.1c-0.3,0.3-0.8,0.4-1.3,0.4c-0.3,0-0.6,0-0.9-0.1c-0.3-0.1-0.5-0.2-0.8-0.4v-1c0.6,0.5,1.1,0.7,1.6,0.7
			c0.3,0,0.5-0.1,0.6-0.2c0.2-0.1,0.2-0.3,0.2-0.4c0-0.3-0.1-0.5-0.4-0.6c-0.2-0.1-0.5-0.3-0.9-0.4c-0.4-0.2-0.8-0.4-1-0.7
			c-0.2-0.3-0.3-0.6-0.3-0.9c0-0.5,0.2-0.8,0.5-1.1C155.9,203.1,156.3,203,156.9,203z"/>
		<path class="st1" d="M164.5,203v0.8h-1.9v4.6h-1.1v-4.6h-1.9V203H164.5z"/>
		<path class="st1" d="M168.4,203c0.6,0,1.1,0.1,1.5,0.3c0.5,0.2,0.8,0.6,1.1,1c0.3,0.4,0.4,0.9,0.4,1.4c0,0.5-0.1,1-0.4,1.4
			c-0.3,0.4-0.6,0.8-1.1,1s-1,0.4-1.5,0.4c-0.6,0-1.1-0.1-1.5-0.4c-0.5-0.2-0.8-0.6-1.1-1c-0.3-0.4-0.4-0.9-0.4-1.4
			c0-0.5,0.1-1,0.4-1.4s0.6-0.8,1.1-1S167.8,203,168.4,203z M166.4,205.8c0,0.4,0.1,0.7,0.2,1c0.2,0.3,0.4,0.5,0.7,0.7
			s0.6,0.2,1,0.2c0.6,0,1-0.2,1.4-0.5c0.4-0.4,0.5-0.8,0.5-1.4c0-0.4-0.1-0.7-0.2-1c-0.2-0.3-0.4-0.5-0.7-0.7
			c-0.3-0.2-0.6-0.2-1-0.2c-0.4,0-0.7,0.1-1,0.2c-0.3,0.2-0.5,0.4-0.7,0.7C166.5,205.1,166.4,205.4,166.4,205.8z"/>
		<path class="st1" d="M174.9,203c0.5,0,0.9,0.1,1.3,0.4c0.3,0.3,0.5,0.7,0.5,1.1c0,0.3-0.1,0.6-0.2,0.8s-0.4,0.4-0.7,0.5
			c0.2,0.1,0.3,0.2,0.5,0.4c0.1,0.2,0.3,0.4,0.5,0.8c0.3,0.7,0.6,1.1,0.7,1.4h-1.2c-0.1-0.1-0.2-0.3-0.3-0.6c-0.3-0.6-0.5-1-0.7-1.2
			c-0.1-0.2-0.3-0.3-0.4-0.4c-0.1-0.1-0.3-0.1-0.4-0.1H174v2.3h-1.1V203H174.9z M174.6,205.4c0.3,0,0.5-0.1,0.7-0.2
			c0.2-0.1,0.2-0.3,0.2-0.6c0-0.2-0.1-0.4-0.2-0.6s-0.4-0.2-0.7-0.2H174v1.5H174.6z"/>
		<path class="st1" d="M182.2,203v0.8h-2.5v1.4h2.4v0.8h-2.4v1.6h2.5v0.8h-3.6V203H182.2z"/>
	</g>
	<g class="st0">
		<path class="st2" d="M106.8,203v0.8h-2.3v1.4h2.3v0.8h-2.3v2.4h-1.1V203H106.8z"/>
		<path class="st2" d="M109.4,203v5.5h-1.1V203H109.4z"/>
		<path class="st2" d="M112.1,203l3.2,3.8V203h1v5.5h-0.9l-3.3-3.9v3.9h-1V203H112.1z"/>
		<path class="st2" d="M120.5,203c0.6,0,1.1,0.1,1.5,0.3s0.8,0.6,1,1s0.4,0.9,0.4,1.4c0,0.5-0.1,1-0.4,1.4c-0.2,0.4-0.6,0.7-1,1
			s-1,0.3-1.6,0.3h-2.2V203H120.5z M120.4,207.7c0.6,0,1.1-0.2,1.4-0.5c0.4-0.4,0.5-0.8,0.5-1.4c0-0.6-0.2-1.1-0.5-1.4
			s-0.8-0.5-1.4-0.5h-1.1v3.8H120.4z"/>
		<path class="st2" d="M128.1,203l1.3,1.8l1.3-1.8h1.3l-2.1,2.8v2.7h-1.1v-2.7l-2.1-2.7H128.1z"/>
		<path class="st2" d="M135.6,203c0.6,0,1.1,0.1,1.5,0.3s0.8,0.6,1.1,1s0.4,0.9,0.4,1.4c0,0.5-0.1,1-0.4,1.4c-0.3,0.4-0.6,0.8-1.1,1
			s-1,0.4-1.5,0.4c-0.6,0-1.1-0.1-1.5-0.4s-0.8-0.6-1.1-1c-0.3-0.4-0.4-0.9-0.4-1.4c0-0.5,0.1-1,0.4-1.4s0.6-0.8,1.1-1
			S135,203,135.6,203z M133.7,205.8c0,0.4,0.1,0.7,0.2,1c0.2,0.3,0.4,0.5,0.7,0.7s0.6,0.2,1,0.2c0.6,0,1-0.2,1.4-0.5
			c0.4-0.4,0.5-0.8,0.5-1.4c0-0.4-0.1-0.7-0.2-1s-0.4-0.5-0.7-0.7s-0.6-0.2-1-0.2s-0.7,0.1-1,0.2s-0.5,0.4-0.7,0.7
			S133.7,205.4,133.7,205.8z"/>
		<path class="st2" d="M141.2,203v3.2c0,0.3,0,0.6,0.1,0.8c0.1,0.2,0.3,0.4,0.5,0.5s0.5,0.2,0.8,0.2c0.3,0,0.6-0.1,0.8-0.2
			c0.2-0.1,0.4-0.3,0.5-0.5c0.1-0.2,0.2-0.5,0.2-0.9V203h1.1v3.2c0,0.7-0.2,1.3-0.7,1.7c-0.4,0.4-1.1,0.6-1.9,0.6
			c-0.5,0-0.9-0.1-1.3-0.3s-0.7-0.4-0.8-0.8s-0.3-0.7-0.3-1.2V203H141.2z"/>
		<path class="st2" d="M148.8,203c0.5,0,0.9,0.1,1.3,0.4c0.3,0.3,0.5,0.7,0.5,1.1c0,0.3-0.1,0.6-0.2,0.8s-0.4,0.4-0.7,0.5
			c0.2,0.1,0.3,0.2,0.5,0.4c0.1,0.2,0.3,0.4,0.5,0.8c0.3,0.7,0.6,1.1,0.7,1.4h-1.2c-0.1-0.1-0.2-0.3-0.3-0.6c-0.3-0.6-0.5-1-0.7-1.2
			c-0.1-0.2-0.3-0.3-0.4-0.4c-0.1-0.1-0.3-0.1-0.4-0.1h-0.4v2.3h-1.1V203H148.8z M148.5,205.4c0.3,0,0.5-0.1,0.7-0.2
			c0.2-0.1,0.2-0.3,0.2-0.6c0-0.2-0.1-0.4-0.2-0.6s-0.4-0.2-0.7-0.2h-0.7v1.5H148.5z"/>
		<path class="st2" d="M156.9,203c0.5,0,1,0.1,1.5,0.4v0.9c-0.6-0.3-1.1-0.5-1.5-0.5c-0.3,0-0.5,0.1-0.6,0.2
			c-0.1,0.1-0.2,0.2-0.2,0.4c0,0.2,0.1,0.4,0.4,0.6c0.1,0.1,0.4,0.2,0.9,0.4c0.4,0.2,0.8,0.4,1,0.7c0.2,0.3,0.3,0.6,0.3,0.9
			c0,0.5-0.2,0.8-0.5,1.1c-0.3,0.3-0.8,0.4-1.3,0.4c-0.3,0-0.6,0-0.9-0.1c-0.3-0.1-0.5-0.2-0.8-0.4v-1c0.6,0.5,1.1,0.7,1.6,0.7
			c0.3,0,0.5-0.1,0.6-0.2c0.2-0.1,0.2-0.3,0.2-0.4c0-0.3-0.1-0.5-0.4-0.6c-0.2-0.1-0.5-0.3-0.9-0.4c-0.4-0.2-0.8-0.4-1-0.7
			c-0.2-0.3-0.3-0.6-0.3-0.9c0-0.5,0.2-0.8,0.5-1.1C155.9,203.1,156.3,203,156.9,203z"/>
		<path class="st2" d="M164.5,203v0.8h-1.9v4.6h-1.1v-4.6h-1.9V203H164.5z"/>
		<path class="st2" d="M168.4,203c0.6,0,1.1,0.1,1.5,0.3c0.5,0.2,0.8,0.6,1.1,1c0.3,0.4,0.4,0.9,0.4,1.4c0,0.5-0.1,1-0.4,1.4
			c-0.3,0.4-0.6,0.8-1.1,1s-1,0.4-1.5,0.4c-0.6,0-1.1-0.1-1.5-0.4c-0.5-0.2-0.8-0.6-1.1-1c-0.3-0.4-0.4-0.9-0.4-1.4
			c0-0.5,0.1-1,0.4-1.4s0.6-0.8,1.1-1S167.8,203,168.4,203z M166.4,205.8c0,0.4,0.1,0.7,0.2,1c0.2,0.3,0.4,0.5,0.7,0.7
			s0.6,0.2,1,0.2c0.6,0,1-0.2,1.4-0.5c0.4-0.4,0.5-0.8,0.5-1.4c0-0.4-0.1-0.7-0.2-1c-0.2-0.3-0.4-0.5-0.7-0.7
			c-0.3-0.2-0.6-0.2-1-0.2c-0.4,0-0.7,0.1-1,0.2c-0.3,0.2-0.5,0.4-0.7,0.7C166.5,205.1,166.4,205.4,166.4,205.8z"/>
		<path class="st2" d="M174.9,203c0.5,0,0.9,0.1,1.3,0.4c0.3,0.3,0.5,0.7,0.5,1.1c0,0.3-0.1,0.6-0.2,0.8s-0.4,0.4-0.7,0.5
			c0.2,0.1,0.3,0.2,0.5,0.4c0.1,0.2,0.3,0.4,0.5,0.8c0.3,0.7,0.6,1.1,0.7,1.4h-1.2c-0.1-0.1-0.2-0.3-0.3-0.6c-0.3-0.6-0.5-1-0.7-1.2
			c-0.1-0.2-0.3-0.3-0.4-0.4c-0.1-0.1-0.3-0.1-0.4-0.1H174v2.3h-1.1V203H174.9z M174.6,205.4c0.3,0,0.5-0.1,0.7-0.2
			c0.2-0.1,0.2-0.3,0.2-0.6c0-0.2-0.1-0.4-0.2-0.6s-0.4-0.2-0.7-0.2H174v1.5H174.6z"/>
		<path class="st2" d="M182.2,203v0.8h-2.5v1.4h2.4v0.8h-2.4v1.6h2.5v0.8h-3.6V203H182.2z"/>
	</g>
	<g id="Rectangle_17811" transform="translate(95 195)">
		<rect y="0" class="st3" width="95" height="22"/>
		<rect x="0.5" y="0.5" class="st4" width="94" height="21"/>
	</g>
</g>
</svg>
