<svg xmlns="http://www.w3.org/2000/svg" width="260.511" height="275.338" xmlns:v="https://vecta.io/nano"><path d="M65.657 16.86c-2.526-5.18-5.211-11.513-3.652-12.273s4.9 5.254 7.423 10.434l1.474 3.021c2.6 5.338 5.285 9.823 6.52 10.907 11 9.655 30.328 49.349 54.8 99.6q2.94 6.039 5.966 12.246c28.267 57.957 56.254 117.719 49.6 121.663-7.206 2.818-37.069-56.03-65.338-113.986q-3.029-6.21-5.985-12.257C91.932 86.002 72.555 46.341 71.72 31.729c-.094-1.641-1.977-6.514-4.581-11.853l-1.473-3.02m125.761 253.086c-2.89 1.4-5.817.7-9.522-.17a44.78 44.78 0 0 0-18.409-1.149c-25.09 3.591-51.922-1.662-75.554-14.787a138.11 138.11 0 0 1-57.046-60.714C5.518 141.114 13.128 80.722 49.832 42.847a13.07 13.07 0 0 0 3.134-5.925 13.16 13.16 0 0 0-1-8.569 524.9 524.9 0 0 0-.935-1.942l-.449-.931c-.733-1.455-1.191-3.032-1.35-4.653-.074-1.511.107-3.024.535-4.475 1.024-3.07 2.851-5.809 5.291-7.934-5.614 3.7-11.145 9.44-7.362 17.2l1.473 3.02c2.653 5.44 1.292 11.986-3.309 15.918C.462 83.398-12.926 148.024 13.305 201.704c13.192 26.908 35.174 48.505 62.311 61.219a130.8 130.8 0 0 0 85.5 8.928 50.14 50.14 0 0 1 21.153-.7c3.849.574 6.63.989 9.531-.426s4.286-3.862 6.2-7.248c3.319-6.316 7.947-11.851 13.576-16.236a130.8 130.8 0 0 0 45.619-72.879c6.688-29.211 3.203-59.831-9.879-86.792-26.15-53.721-85.319-82.96-143.877-71.1a13.28 13.28 0 0 1-14.581-7.192l-1.473-3.02c-3.783-7.757-11.71-6.931-18.083-4.786 3.177-.614 6.46-.367 9.509.716a13.46 13.46 0 0 1 3.856 2.333 13.22 13.22 0 0 1 2.835 3.932l.457.927.955 1.932a13.16 13.16 0 0 0 6.139 6.062 13.07 13.07 0 0 0 6.6 1.178c52.443-5.6 104.717 25.579 130.076 77.6a138.11 138.11 0 0 1 12.722 82.332c-4.206 26.7-16.587 51.081-34.863 68.641a44.78 44.78 0 0 0-10.428 15.214c-1.592 3.458-2.85 6.19-5.729 7.608m-2.7-5.5c-2.337 1.023-5.179-1.53-9.482-5.394-2.009-1.8-4.287-3.85-7.015-6.012-21.83-17.3-48.75-54.744-68.583-95.4-23.65-48.483-37.864-95.372-36.211-119.454a29.3 29.3 0 0 0 0-3.05c-.028-.822-.054-1.6-.018-2.349.064-1.314-.63-3.816-1.856-6.693-.245-.576-.743-1.687-1.031-2.307-1.788-3.734-3.199-7.638-4.212-11.652-.8-2.958-.806-4.8-.482-5.978-1 1.209-1.714 3.3-1.059 7.191.39 3.437 1.265 6.801 2.6 9.992l.5 1.081.9 1.973c1.292 2.992 1.908 5.726 1.691 7.5-.062.5-.1 1.022-.149 1.548-.064 1.382-.284 2.753-.658 4.085-9.477 29.646-.686 79.375 22.4 126.69 25.3 51.85 61.2 80.958 84.254 90.13 3.853 1.601 7.528 3.6 10.966 5.964 3.52 2.292 5.846 3.8 7.84 2.9 1.936-1.017 2.176-3.781 2.538-7.966a59.99 59.99 0 0 1 2.048-12.304c6.968-23.816 6.134-70.027-19.152-121.882-23.074-47.319-56.848-84.863-86.044-95.647a18.22 18.22 0 0 1-3.624-2l-1.312-.836c-1.532-.921-3.307-3.09-4.869-5.95a128.83 128.83 0 0 1-1-1.924l-.543-1.061a36.57 36.57 0 0 0-6.276-8.2c-2.666-2.914-4.751-3.636-6.318-3.593 1.128.47 2.575 1.61 4.414 4.06 2.54 3.27 4.747 6.785 6.588 10.493l1.183 2.233c1.512 2.738 3.057 4.825 4.131 5.584.613.433 1.21.932 1.84 1.46.769.666 1.572 1.292 2.406 1.875 19.994 13.524 48.192 53.592 71.837 102.078 19.828 40.66 32.763 84.928 32.953 112.779.024 3.481.234 6.535.418 9.229.4 5.77.657 9.581-1.587 10.793m1.325 2.761c-2.493 1.165-5.1-.078-8.7-1.8a45.43 45.43 0 0 0-13.486-4.529c-17.81-2.712-37.145-12-54.444-26.148-18.754-15.339-34.721-35.857-46.177-59.337-23.6-48.364-26.988-101.315-8.644-134.9a16.66 16.66 0 0 0 1.479-5.145l.087-.492a14.26 14.26 0 0 0-1.426-7.622c-.1-.234-.543-1.174-.869-1.868l-.339-.722c-.676-1.288-1.155-2.67-1.42-4.1-.021-.161-.057-.381-.1-.633-.223-1.351-.453-5.465-.444-6.416-.049-2.04.494-4.051 1.562-5.79a11.11 11.11 0 0 0-3.155 4.987 16.32 16.32 0 0 0-.652 7.932c.233 1.444.68 2.846 1.326 4.159l.42.886.88 1.857a14.08 14.08 0 0 1 1.253 8.51 15.54 15.54 0 0 1-2.469 6.036c-27.511 36.136-29.5 91.832-5.077 141.894 23.778 48.734 70.4 80.932 116 80.121a43.54 43.54 0 0 1 16.175 2.936c3.574 1.225 6.156 2.11 8.6.95 2.418-1.211 3.311-3.79 4.545-7.36 1.601-5.293 4.196-10.232 7.645-14.554 28.718-35.441 32.047-92 8.283-140.741-24.411-50.069-69.528-82.789-114.94-83.358a15.54 15.54 0 0 1-6.277-1.771 14.08 14.08 0 0 1-5.934-6.227c-.075-.141-.551-1.093-.922-1.837l-.439-.877c-.637-1.317-1.466-2.532-2.461-3.605a16.32 16.32 0 0 0-6.652-4.369 11.11 11.11 0 0 0-5.872-.584c2.028.229 3.946 1.039 5.524 2.334.754.578 3.855 3.293 4.782 4.3l.438.468c.962 1.089 1.756 2.316 2.354 3.641l.361.711.937 1.835c1.139 2.375 2.914 4.389 5.128 5.817l.441.234a16.66 16.66 0 0 0 4.965 2c37.758 6.22 77.394 41.493 100.979 89.863 11.449 23.482 17.787 48.7 18.329 72.919.5 22.343-4.087 43.3-12.915 59a45.44 45.44 0 0 0-4.733 13.415c-.863 3.9-1.487 6.718-3.94 7.965" fill="#662049"/></svg>