<svg xmlns="http://www.w3.org/2000/svg" width="237.834" height="205.965" xmlns:v="https://vecta.io/nano"><path d="M226.299 14.203c5.624 6.717 10.838 17.983 3.738 33.509a25.47 25.47 0 0 1-9.607 11.4c2.641 3.991 5.004 8.158 7.074 12.473 2.286 4.759 4.269 9.657 5.937 14.666.306.914.587 1.823.864 2.731 3.406 13.885 4.316 26.3 2.865 37.548a67.6 67.6 0 0 1-2.5 9.811c-4.147 12.254-11.865 23.562-22.941 33.609a122.93 122.93 0 0 1-21.164 15.24 134.13 134.13 0 0 1-21.162 11.067l1.675-.842-1.717.731c2.073-1.017 4.534-2.315 7.17-3.886l-1.806.767c1.028-.5 2.189-1.1 3.435-1.762 3.246-2.008 6.348-4.24 9.284-6.679 6.6-5.529 11.335-11.521 14.064-17.81 3.418-7.874 3.706-16.755.808-24.835-.189-.566-.388-1.121-.592-1.671l-.252-.658-.293-.742q-.5-1.236-1.052-2.42l-.077-.167a40.32 40.32 0 0 0-14.561-17.1c-.195-.126-.4-.247-.593-.37-3.888-2.391-8.127-4.155-12.563-5.229-.835-.208-3.766-.809-4.384-.909q-2.467-.4-5.075-.6a72.02 72.02 0 0 0-10.757.036c-.6.045-1.765.174-3.124.333a9.61 9.61 0 0 1-1.6.052l-1.134.152.9-.169c-3.867-.286-7.185-2.865-8.416-6.542l-.026-.079c-22.812-68.179-31.231-78.584-33.428-80.152 2.093-.1 6.693 1.368 12.65 7.781 13.851 14.914 26.154 46.124 34.036 69.679q.178.533.354 1.063a9.49 9.49 0 0 0 8.28 6.483c2.6-.184 5.282-.286 8.011-.247 2.847.036 5.689.23 8.514.581-5.117-1.169-9.264-4.903-10.962-9.869q-.15-.457-.3-.916c-8.082-24.154-21.8-55.76-41.251-69.162-6.1-4.2-11.226-5.508-14.457-5.865a21.87 21.87 0 0 0-1.737-.122 34.82 34.82 0 0 1 3.747-.2 43.86 43.86 0 0 1 18.852 4.452c8.725 4.154 16.891 11.088 24.27 20.609 9.232 11.911 17.25 27.925 23.833 47.6q1.024 3.061 1.923 6.066a17.15 17.15 0 0 0 8.782 10.411 44.5 44.5 0 0 1 5.435 2.416c2.801 1.477 5.408 3.295 7.762 5.413-2.678-2.786-4.531-6.26-5.351-10.036a161.21 161.21 0 0 0-4.636-17.188c-6.7-20.136-15.579-36.286-26.288-48.032-8.575-9.4-18.357-16.015-29.075-19.649a60.52 60.52 0 0 0-24.6-2.984 81.08 81.08 0 0 1 31.075 1.268c12.628 3.103 24.211 9.49 33.574 18.513 12.113 11.506 21.727 27.72 28.577 48.191 3.355 9.713 5.36 19.841 5.961 30.1q.166 3.429.072 6.768a26.7 26.7 0 0 0 1.493 9.692q.138.39.271.785a29.7 29.7 0 0 1-.2 20.215 72.07 72.07 0 0 0 9.328-21.069c3.923-15.083 2.9-31.74-3.049-49.511-7-20.934-17.455-37.3-31.06-48.648-11.023-9.141-24.274-15.194-38.4-17.539a104.55 104.55 0 0 0-31.915-.4c12.536-2.275 25.334-2.732 38-1.357l.424.046q4.605.564 8.989 1.5c.171-.621.353-1.245.557-1.877.206-.52.423-1.044.665-1.574C174.543 3.567 186.475.141 195.234.001a44.08 44.08 0 0 1 12.051 1.594c-2.557-.413-5.161-.449-7.729-.107-6.8.934-16.343 5.191-23.2 20.2a41.42 41.42 0 0 0-1.294 3.172l1.192.374c1.53.546 3.07 1.129 4.623 1.758q1.731.7 3.437 1.48c.473-1.253 1.011-2.547 1.623-3.885 3.574-7.816 9.6-17.782 18.023-20.875a13.55 13.55 0 0 1 7.4-.661c-2.263.7-7.65 4.633-16.557 24.111q-1.332 2.913-2.394 5.514c3.521 2.052 6.9 4.337 10.115 6.841a145.03 145.03 0 0 0 3.41-6.981c9-19.683 8.406-26.392 7.473-28.559 1.999 1.593 3.506 3.719 4.348 6.133 3.139 8.459-.462 19.552-4.036 27.369-1.254 2.763-2.728 5.421-4.408 7.948a86.4 86.4 0 0 1 6.372 7.152 34.8 34.8 0 0 0 6.532-9.831c3.788-8.282 6.882-20.35.118-30.8a26.69 26.69 0 0 0-5.283-5.93 44.21 44.21 0 0 1 9.253 8.185m-77.448 187.475a111.25 111.25 0 0 1-5.5.911c-3.228.234-6.467.273-9.7.117-8.6-.442-15.986-2.38-21.951-5.76q-1.46-.827-2.8-1.772a34.01 34.01 0 0 1-12.787-17.576 53.39 53.39 0 0 1-1.611-5.9 40.34 40.34 0 0 1 1.321-22.51c.08-.218.167-.435.251-.652a43.53 43.53 0 0 1 6.886-11.737 110.22 110.22 0 0 1 2.954-3.364q1.729-1.8 3.692-3.532a71.99 71.99 0 0 1 8.613-6.446c.5-.323 1.514-.923 2.7-1.614 3.932-2.3 5.713-7.042 4.266-11.362l-.026-.079c-22.812-68.179-22.351-81.556-21.54-84.13-1.731 1.18-4.522 5.12-5.42 13.827-2.087 20.247 6.87 52.576 14.751 76.132q.179.533.357 1.062c1.382 4.068-.143 8.557-3.717 10.941-1.852 1.23-3.708 2.551-5.531 3.966l-.336.267-2.685 2.212q-2.269 1.945-4.264 3.954c-.213.215-.093.085.028-.044a15.29 15.29 0 0 0 3.614-15.4q-.156-.455-.309-.914c-8.082-24.154-16.148-57.651-8.678-80.06 2.341-7.023 5.651-11.155 8.016-13.384a21.94 21.94 0 0 1 1.314-1.143c-1.075.641-2.115 1.339-3.115 2.091a43.86 43.86 0 0 0-12.377 14.9c-4.468 8.569-6.817 19.02-6.98 31.065-.2 15.068 3.029 32.684 9.612 52.358q1.025 3.061 2.115 6a17.18 17.18 0 0 1-1.427 14.855c-.796 1.315-1.522 2.672-2.174 4.064a39.59 39.59 0 0 0-1.578 3.92 37.09 37.09 0 0 0-1.477 5.775c0 .018-.006.036-.009.054-.069.406-.1.553-.046.221l.043-.275c.645-4.094.063-8.287-1.672-12.05-2.516-5.379-4.734-10.893-6.642-16.516-6.764-20.116-9.4-38.355-7.911-54.181 1.189-12.67 5.023-23.837 11.4-33.191 4.702-6.9 10.781-12.753 17.854-17.19a81.08 81.08 0 0 0-24.054 19.714c-8.224 10.074-13.637 22.144-15.691 34.986-2.749 16.479-.67 35.214 6.18 55.685a112.31 112.31 0 0 0 13.352 27.622q1.93 2.839 4.016 5.449c2.067 2.568 3.641 5.498 4.641 8.639q.124.394.256.789a29.7 29.7 0 0 0 12.322 16.027c-7.268-2.634-14.065-6.42-20.13-11.213-12.21-9.685-21.416-23.606-27.361-41.376-7-20.934-8.508-40.295-4.471-57.544 3.302-13.934 10.242-26.742 20.112-37.117a104.56 104.56 0 0 1 25.25-19.524 132.62 132.62 0 0 0-31.167 21.789c-.1.1-.208.193-.311.292q-3.339 3.222-6.275 6.61c-.511-.393-1.031-.782-1.575-1.164-.477-.292-.966-.579-1.479-.857-15.014-8.127-26.605-3.682-33.684 1.477a44.07 44.07 0 0 0-8.665 8.526c1.794-1.869 3.852-3.465 6.108-4.738 5.991-3.345 16.175-5.69 30.687 2.166 1.047.567 2.023 1.153 2.942 1.754l-.726 1.016q-1.339 2.035-2.634 4.186-.96 1.6-1.854 3.25-1.7-1.074-3.634-2.126c-7.558-4.091-18.37-8.423-26.957-5.825a13.55 13.55 0 0 0-6.308 3.926c2.23-.8 8.9-.9 27.734 9.291a143.22 143.22 0 0 1 5.23 2.963c-1.577 3.757-2.9 7.616-3.961 11.55-2.141-1.016-4.444-2.181-6.924-3.523-19.033-10.3-22.6-16.019-23.155-18.311a13.54 13.54 0 0 0 .219 7.515c2.584 8.645 12.136 15.337 19.695 19.429 2.663 1.452 5.439 2.687 8.3 3.695a86.4 86.4 0 0 0-.785 9.547 34.8 34.8 0 0 1-11.133-3.921c-8.009-4.335-17.743-12.11-18.632-24.53-.179-2.656.04-5.324.651-7.915-1.383 3.9-2.213 7.975-2.463 12.105-.45 8.75 2.167 20.884 17.181 29.011 4.404 2.531 9.465 3.687 14.531 3.319.293 4.777.913 9.527 1.857 14.219 1.038 5.176 2.402 10.282 4.085 15.286.306.914.628 1.809.953 2.7 5.636 13.139 12.378 23.6 20.309 31.712a67.57 67.57 0 0 0 7.9 6.329c10.687 7.291 23.656 11.676 38.547 13.035 8.687.736 17.427.547 26.074-.565 7.954-.597 15.839-1.902 23.561-3.9a99.15 99.15 0 0 1-8.971 1.3l2.777-.681m-30.067-34.164c-4-11.944-6.841-28.883 2.3-41.756 2.198-3.083 4.943-5.736 8.1-7.826a52.03 52.03 0 0 0-13.608 10.08 38.59 38.59 0 0 0-9.742 17.471c-1.995 8.093-1.35 17.146 1.916 26.907 6.349 18.976 20.675 25.2 31.574 27.086 6.641 1.072 13.412 1.066 20.051-.017a40.2 40.2 0 0 1-14.436-2.418c-8.465-3.1-19.874-10.738-26.161-29.527m22.718-9.971c-10.413-31.121-9.35-39.272-8.375-41.352-1.35.8-4.125 2.942-5.984 7.743-4.233 10.934-.526 26.963 3.329 38.485 3.384 10.113 9.652 23.792 20.3 31.53 5.565 4.044 10.072 4.781 11.146 4.9-.747-.665-2.749-2.682-5.678-7.425-3.39-5.489-8.7-15.823-14.741-33.884m21.072 41.091c.786-.746 3.94-4.047 5.95-10.624 3.849-12.589.623-27.286-2.76-37.4-3.861-11.539-10.558-26.589-20.536-32.76-4.367-2.7-7.853-2.736-9.407-2.563 2.03 1.072 7.784 6.936 18.2 38.066 6.043 18.061 8.022 29.509 8.619 35.933.515 5.55.131 8.366-.066 9.347m27.334-53.732c-3.267-9.764-8.2-17.384-14.669-22.647-5.283-4.257-11.595-7.046-18.3-8.086-5.612-.877-11.33-.829-16.927.142a30.89 30.89 0 0 1 11.197 1.392c15.051 4.777 22.974 20.017 26.97 31.961 6.286 18.788 1.772 31.755-3.123 39.325-2.68 4.126-6.094 7.725-10.073 10.618 5.954-3.131 11.364-7.2 16.023-12.053 7.572-8.063 15.266-21.658 8.916-40.634" fill="#941f68"/></svg>