<?xml version="1.0" encoding="utf-8"?>
<!-- Generator: Adobe Illustrator 26.3.1, SVG Export Plug-In . SVG Version: 6.00 Build 0)  -->
<svg version="1.1" id="Layer_1" xmlns="http://www.w3.org/2000/svg" xmlns:xlink="http://www.w3.org/1999/xlink" x="0px" y="0px"
	 viewBox="0 0 323.5 161" style="enable-background:new 0 0 323.5 161;" xml:space="preserve">
<style type="text/css">
	.st0{fill:#E3120B;}
	.st1{clip-path:url(#SVGID_00000126289783270602079970000008963641865632504994_);fill:#FFFFFF;}
	.st2{clip-path:url(#SVGID_00000002354618035790954040000015904385488477365390_);fill:#FFFFFF;}
	.st3{clip-path:url(#SVGID_00000101823277426450231210000006870787905096920991_);fill:#FFFFFF;}
	.st4{clip-path:url(#SVGID_00000114779128363194543410000003432051074015586227_);fill:#FFFFFF;}
	.st5{clip-path:url(#SVGID_00000094581369959956439770000007876543164890547086_);fill:#FFFFFF;}
	.st6{clip-path:url(#SVGID_00000052098923737068101460000016266447658431587467_);fill:#FFFFFF;}
	.st7{clip-path:url(#SVGID_00000115478197246051111070000015394442358663416240_);fill:#FFFFFF;}
	.st8{clip-path:url(#SVGID_00000072257058692938481950000010235445190845521844_);fill:#FFFFFF;}
	.st9{clip-path:url(#SVGID_00000163055869920888258070000005533321962873416600_);fill:#FFFFFF;}
	.st10{clip-path:url(#SVGID_00000039093832925601060680000009385142962061247630_);fill:#FFFFFF;}
	.st11{clip-path:url(#SVGID_00000045606907031933549790000012517902118443433637_);fill:#FFFFFF;}
	.st12{clip-path:url(#SVGID_00000005960678367954027090000003225566561579892360_);fill:#FFFFFF;}
	.st13{fill:#FFFFFF;}
</style>
<rect x="1" y="1" class="st0" width="321.5" height="158.9"/>
<g>
	<g>
		<defs>
			<rect id="SVGID_1_" x="1" y="1" width="321.5" height="158.9"/>
		</defs>
		<clipPath id="SVGID_00000026161701996813689240000016014035962149845415_">
			<use xlink:href="#SVGID_1_"  style="overflow:visible;"/>
		</clipPath>
		<path style="clip-path:url(#SVGID_00000026161701996813689240000016014035962149845415_);fill:#FFFFFF;" d="M149.6,34.2l0.2,7.8
			l-1.8,0.1c-0.1-4.8-1.2-5.4-8.4-5.4H138v27.2c0,3.8,1,4.8,4.7,4.9l0.1,1.3c-3.5,0-6.2,0-7.9,0c-1.8,0-4.5,0-8.2,0l0.1-1.3
			c3.7-0.1,4.7-1.1,4.7-4.9V36.7h-1.8c-7.5,0-8.5,0.6-8.6,5.4l-1.8-0.1l0.2-7.8c6.8,0,11.9,0.1,15.3,0.1
			C138,34.3,143,34.3,149.6,34.2"/>
	</g>
	<g>
		<defs>
			<rect id="SVGID_00000043450266346254903200000017363888538867518623_" x="1" y="1" width="321.5" height="158.9"/>
		</defs>
		<clipPath id="SVGID_00000078763030610219200330000016225164044449460111_">
			<use xlink:href="#SVGID_00000043450266346254903200000017363888538867518623_"  style="overflow:visible;"/>
		</clipPath>
		<path style="clip-path:url(#SVGID_00000078763030610219200330000016225164044449460111_);fill:#FFFFFF;" d="M152.6,68.8
			c3.4,0,3.8-0.6,3.9-5.4V40.8c0-4.7-0.5-5.4-3.9-5.4l-0.1-1.2c4.6-0.2,5.6-0.4,9.8-1.1v15.4c2.7-2.9,4.8-4,7.8-4
			c4.9,0,7.7,3,7.7,8.7v10.3c0,4.7,0.5,5.4,3.9,5.4l0.1,1.2c-2.9-0.1-5.1-0.2-6.6-0.2c-1.4,0-3.5,0.1-6.2,0.2l0.1-1.2
			c2.7-0.4,2.9-0.9,3-5.4V56c0-6.3-1.1-8.4-4.4-8.4c-1.8,0-3.7,1.1-4.5,2.9c-0.3,0.6-0.5,1.2-0.7,1.9c0,0.3,0,0.5,0,0.6v10.6
			c0,4.5,0.3,5,3,5.4l0.1,1.2c-2.8-0.1-4.9-0.2-6.3-0.2c-1.5,0-3.7,0.1-6.5,0.2L152.6,68.8z"/>
	</g>
	<g>
		<defs>
			<rect id="SVGID_00000065769261922847183090000011885412166966464166_" x="1" y="1" width="321.5" height="158.9"/>
		</defs>
		<clipPath id="SVGID_00000108279262481703096860000011572405572679468170_">
			<use xlink:href="#SVGID_00000065769261922847183090000011885412166966464166_"  style="overflow:visible;"/>
		</clipPath>
		<path style="clip-path:url(#SVGID_00000108279262481703096860000011572405572679468170_);fill:#FFFFFF;" d="M205.7,65.1
			c-3.1,3.9-6.2,5.5-10.1,5.5c-7,0-11.7-5.1-11.7-12.6c0-8.1,4.9-13.5,11.9-13.5c3.8,0,6.5,1.4,8.4,4.4c1.3,2.1,1.6,3.6,1.7,7.2H190
			c0.2,7.5,3,11.8,7.6,11.8c2.7,0,5-1.3,7.5-4.1L205.7,65.1z M189.8,54.1c4.6-0.1,6-0.2,10.6-0.7c-0.6-4.9-2.4-7.2-5.5-7.2
			C191.8,46.2,190.3,48.6,189.8,54.1"/>
	</g>
	<g>
		<defs>
			<rect id="SVGID_00000173882150446288400050000002355593494740285370_" x="1" y="1" width="321.5" height="158.9"/>
		</defs>
		<clipPath id="SVGID_00000026143702960503829710000015579359338544487090_">
			<use xlink:href="#SVGID_00000173882150446288400050000002355593494740285370_"  style="overflow:visible;"/>
		</clipPath>
		<path style="clip-path:url(#SVGID_00000026143702960503829710000015579359338544487090_);fill:#FFFFFF;" d="M20.2,116.3
			c4.1-0.1,5.1-1.2,5.1-5.4v-26c0-4.2-1.1-5.3-5.1-5.4L20,78.2l8.6,0.1l13.5-0.2l3.6,0.1l0.2,8.1l-2.2,0.2c-0.4-5-1.3-5.6-9.3-5.6
			h-1.2h-0.6v15c1.1,0,1.9,0.1,2.4,0.1c0.9,0.1,1.7,0.1,2.6,0.1C42,96,43,95,43,90.9h2c-0.2,3.3-0.2,5-0.2,6.7c0,1.3,0,3.2,0.1,5.7
			H43c-0.2-4-1.1-4.8-5.3-4.8l-3-0.1l-2.1,0.1v11.6c0,4.7,0.3,4.9,5,4.9c6.2,0,8.1-1.4,8.6-6.7l2.2,0.1l-1.3,9.2l-4.3,0.1l-13.6-0.1
			H20L20.2,116.3z"/>
	</g>
	<g>
		<defs>
			<rect id="SVGID_00000093872885222406869330000002133703784987440792_" x="1" y="1" width="321.5" height="158.9"/>
		</defs>
		<clipPath id="SVGID_00000155129906829899333250000009988296389117616307_">
			<use xlink:href="#SVGID_00000093872885222406869330000002133703784987440792_"  style="overflow:visible;"/>
		</clipPath>
		<path style="clip-path:url(#SVGID_00000155129906829899333250000009988296389117616307_);fill:#FFFFFF;" d="M76.6,113.8
			c-3.2,3.3-5.7,4.6-9.4,4.6c-7.4,0-12.1-5.7-12.1-14.3c0-9,5-14.6,13-14.6c2.1,0,4.3,0.4,7.6,1.3l0.1,6.6l-2.5,0.2
			c-0.9-4.9-1.9-6.1-5.2-6.1c-4.2,0-6.4,3.6-6.4,10.8c0,8.4,2.6,13.1,7.4,13.1c2.5,0,4.4-1.1,6.6-3.4L76.6,113.8z"/>
	</g>
	<g>
		<defs>
			<rect id="SVGID_00000144300368180590033490000001644139055046944918_" x="1" y="1" width="321.5" height="158.9"/>
		</defs>
		<clipPath id="SVGID_00000100344042041616178160000000529860397093297324_">
			<use xlink:href="#SVGID_00000144300368180590033490000001644139055046944918_"  style="overflow:visible;"/>
		</clipPath>
		<path style="clip-path:url(#SVGID_00000100344042041616178160000000529860397093297324_);fill:#FFFFFF;" d="M82.6,105v-0.8
			c0-9.4,5.1-14.7,13.7-14.7c8,0,13.7,5.9,13.7,14.5s-5.5,14.5-13.9,14.5C88.2,118.4,82.9,113,82.6,105 M89.4,104.4
			c0.6,7.8,3.2,12.1,7.5,12.1c4,0,6.4-4.2,6.4-11.1c0-8.2-3.3-13.9-7.9-13.9c-4.1,0-6.1,3.4-6.1,10.3
			C89.3,102.7,89.3,103.5,89.4,104.4"/>
	</g>
	<g>
		<defs>
			<rect id="SVGID_00000002345206945133426100000013403361366269824141_" x="1" y="1" width="321.5" height="158.9"/>
		</defs>
		<clipPath id="SVGID_00000079477954576573109700000008784163587727057056_">
			<use xlink:href="#SVGID_00000002345206945133426100000013403361366269824141_"  style="overflow:visible;"/>
		</clipPath>
		<path style="clip-path:url(#SVGID_00000079477954576573109700000008784163587727057056_);fill:#FFFFFF;" d="M116.6,116.4
			c3.6,0,4.2-0.7,4.2-5.9V97.7c0-5.1-0.6-5.8-4.2-5.8l-0.1-1.3c4.9-0.3,6-0.4,10.2-1.3l0.3,4.9c3.2-3.5,5.6-4.8,8.9-4.8
			c5.4,0,8.5,3.5,8.5,9.7v6.7v4.7c-0.1,0.4-0.1,0.9-0.1,1.3c0,3.6,0.9,4.6,4.4,4.6l0.1,1.3c-3.2-0.1-5.7-0.2-7.3-0.2
			s-3.9,0.1-6.9,0.2l0.1-1.3c2.9-0.4,3.2-1,3.2-5.9l0.1-3.4v-4.9c0-7-1.3-9.2-4.8-9.2c-2.2,0-4,1.1-5.1,3.1
			c-0.4,0.8-0.8,2.2-0.8,2.7v11.7c0.1,4.9,0.3,5.5,3.3,5.9l0.2,1.3c-3.1-0.1-5.5-0.2-7-0.2c-1.6,0-4,0.1-7.2,0.2L116.6,116.4z"/>
	</g>
	<g>
		<defs>
			<rect id="SVGID_00000101091607720920911110000007334935054866016645_" x="1" y="1" width="321.5" height="158.9"/>
		</defs>
		<clipPath id="SVGID_00000016077273491626883010000004209095554673722284_">
			<use xlink:href="#SVGID_00000101091607720920911110000007334935054866016645_"  style="overflow:visible;"/>
		</clipPath>
		<path style="clip-path:url(#SVGID_00000016077273491626883010000004209095554673722284_);fill:#FFFFFF;" d="M153.5,105v-0.8
			c0-9.4,5.1-14.7,13.7-14.7c8.1,0,13.8,5.9,13.8,14.5s-5.5,14.5-13.9,14.5C159.1,118.4,153.8,113,153.5,105 M160.4,104.4
			c0.6,7.8,3.2,12.1,7.4,12.1c4,0,6.4-4.2,6.4-11.1c0-8.2-3.3-13.9-7.8-13.9c-4,0-6.1,3.4-6.1,10.3
			C160.3,102.7,160.3,103.5,160.4,104.4"/>
	</g>
	<g>
		<defs>
			<rect id="SVGID_00000155827928005828753950000015970610865064066178_" x="1" y="1" width="321.5" height="158.9"/>
		</defs>
		<clipPath id="SVGID_00000112631868509733348400000013679443756095752852_">
			<use xlink:href="#SVGID_00000155827928005828753950000015970610865064066178_"  style="overflow:visible;"/>
		</clipPath>
		<path style="clip-path:url(#SVGID_00000112631868509733348400000013679443756095752852_);fill:#FFFFFF;" d="M187.2,116.4
			c3.7,0,4.3-0.7,4.3-5.9V97.7c0-5.1-0.6-5.8-4.3-5.8l-0.1-1.3c5-0.3,6.1-0.4,10.3-1.3l0.2,4.9c3.1-3.4,5.6-4.8,8.9-4.8
			c3.8,0,6,1.6,7.6,5.2c3.4-3.8,5.9-5.2,9.3-5.2c5.3,0,8.2,3.6,8.2,9.7v6.7v4.7c0,0.4-0.1,0.9-0.1,1.3c0,3.6,1,4.6,4.4,4.6l0.1,1.3
			c-3.2-0.1-5.7-0.2-7.3-0.2c-1.5,0-3.8,0.1-6.9,0.2l0.1-1.3c3-0.4,3.2-1,3.3-5.9v-8.4c0-6.9-1.2-9.2-4.7-9.2
			c-2.1,0-4.2,1.2-5.1,3.1c-0.3,0.7-0.6,1.3-0.7,2.1c-0.1,0.3-0.1,0.5-0.1,0.6v11.7c0,4.9,0.3,5.5,3.3,5.9l0.1,1.3
			c-3-0.1-5.1-0.2-6.6-0.2c-1.4,0-3.6,0.1-6.5,0.2l0.1-1.3c3-0.4,3.2-1,3.3-5.9V102c0-6.9-1.2-9.2-4.7-9.2c-2.1,0-4,1.2-5.1,3.1
			c-0.4,0.9-0.8,2.2-0.8,2.7v11.7c0.1,4.9,0.3,5.5,3.3,5.9l0.1,1.3c-3.1-0.1-5.3-0.2-6.9-0.2c-1.6,0-4,0.1-7.3,0.2L187.2,116.4z"/>
	</g>
	<g>
		<defs>
			<rect id="SVGID_00000140714337917777489740000017698897142454410684_" x="1" y="1" width="321.5" height="158.9"/>
		</defs>
		<clipPath id="SVGID_00000075863200391834878620000009288582228275411900_">
			<use xlink:href="#SVGID_00000140714337917777489740000017698897142454410684_"  style="overflow:visible;"/>
		</clipPath>
		<path style="clip-path:url(#SVGID_00000075863200391834878620000009288582228275411900_);fill:#FFFFFF;" d="M251.7,89.2V107
			l0.1,3.4c0,5.2,0.5,5.9,4.3,5.9l0.1,1.3c-3.5-0.1-6-0.2-7.7-0.2s-4.1,0.1-7.5,0.2l0.1-1.3c3.7,0,4.2-0.7,4.2-5.9l0.1-3.4v-5.8
			l-0.1-3.6c0-5.1-0.5-5.8-4.2-5.8l-0.1-1.3C246,90.3,247.2,90.1,251.7,89.2 M244.6,80c0-2,1.6-3.7,3.7-3.7c2.1,0,3.7,1.7,3.7,3.7
			c0,2.1-1.6,3.8-3.7,3.8C246.1,83.8,244.6,82.1,244.6,80"/>
	</g>
	<g>
		<defs>
			<rect id="SVGID_00000070814733102035283680000010086751931684412307_" x="1" y="1" width="321.5" height="158.9"/>
		</defs>
		<clipPath id="SVGID_00000064330364701218139470000015920134741355329680_">
			<use xlink:href="#SVGID_00000070814733102035283680000010086751931684412307_"  style="overflow:visible;"/>
		</clipPath>
		<path style="clip-path:url(#SVGID_00000064330364701218139470000015920134741355329680_);fill:#FFFFFF;" d="M262.9,116.8l-0.2-5.7
			l2.8-0.1c1.3,4.3,2.1,5.1,5.1,5.1c2.6,0,4.2-1.3,4.2-3.3c0-1.9-1.2-3.3-4.7-5.6c-1.8-1.2-3-2.1-3.7-2.6c-1.5-1.1-2.5-2.4-3.1-3.9
			c-0.3-0.8-0.5-1.8-0.5-3c0-5,3.5-8.2,8.7-8.2c2,0,3.1,0.2,7.5,1.2l0.1,5.5l-2.8,0.1c-0.6-3.6-1.8-4.9-4.4-4.9
			c-2.5,0-4.3,1.4-4.3,3.4c0,1.9,0.9,3.1,3.8,4.9c2.6,1.7,4.6,3.3,6,4.5c1.6,1.5,2.5,3.4,2.5,5.5c0,4.9-4.1,8.7-9.5,8.7
			C268.4,118.4,266.5,117.9,262.9,116.8"/>
	</g>
	<g>
		<defs>
			<rect id="SVGID_00000017511292294863827840000001121399566835635076_" x="1" y="1" width="321.5" height="158.9"/>
		</defs>
		<clipPath id="SVGID_00000047044427053604548850000010664777854872989841_">
			<use xlink:href="#SVGID_00000017511292294863827840000001121399566835635076_"  style="overflow:visible;"/>
		</clipPath>
		<path style="clip-path:url(#SVGID_00000047044427053604548850000010664777854872989841_);fill:#FFFFFF;" d="M285.9,91
			c4.4-0.3,6.1-2.2,7.3-8h2.5v7.5h7l-0.8,3.1h-6.3v13.6c0,6.7,0.9,8.3,4.7,8.3c0.9,0,1.7-0.1,3.1-0.5v1.6c-1.9,1.1-4.5,1.7-7.2,1.7
			c-2.5,0-4.8-1.4-5.7-3.4c-0.8-1.7-1.1-3.4-1.1-7.1V93.6h-3.6V91H285.9z"/>
	</g>
</g>
<g id="white-stroke">
	<path class="st13" d="M323.5,161H0V0h323.5V161z M2,159h319.5V2H2V159z"/>
</g>
</svg>
