<?xml version="1.0" encoding="utf-8"?>
<!-- Generator: Adobe Illustrator 26.5.0, SVG Export Plug-In . SVG Version: 6.00 Build 0)  -->
<svg version="1.1" id="Layer_1" xmlns="http://www.w3.org/2000/svg" xmlns:xlink="http://www.w3.org/1999/xlink" x="0px" y="0px"
	 viewBox="0 0 116 32" style="enable-background:new 0 0 116 32;" xml:space="preserve">
<style type="text/css">
	.st0{fill:url(#button_00000112625267216649517170000009312713935646058883_);}
	.st1{enable-background:new    ;}
	.st2{fill:#224B45;}
</style>
<g id="CTA" transform="translate(12734 2668)">

		<linearGradient id="button_00000005269173146416224340000007807649351249573274_" gradientUnits="userSpaceOnUse" x1="-12970.9395" y1="-2244.2664" x2="-12969.9395" y2="-2244.2664" gradientTransform="matrix(116 0 0 -32 1491895 -74468.5234)">
		<stop  offset="0" style="stop-color:#CEBA79"/>
		<stop  offset="0.399" style="stop-color:#FFF4C4"/>
		<stop  offset="0.685" style="stop-color:#FFF4BD"/>
		<stop  offset="1" style="stop-color:#C3AB75"/>
	</linearGradient>

		<rect id="button" x="-12734" y="-2668" style="fill:url(#button_00000005269173146416224340000007807649351249573274_);" width="116" height="32"/>
	<g class="st1">
		<path class="st2" d="M-12718.2-2657.4c1,0,2,0.2,2.9,0.7v1.8c-1.1-0.6-2-1-2.8-1c-0.5,0-0.9,0.1-1.2,0.3c-0.3,0.2-0.4,0.5-0.4,0.8
			c0,0.4,0.3,0.7,0.8,1.1c0.1,0.1,0.7,0.4,1.7,0.8c0.8,0.4,1.4,0.8,1.8,1.3c0.4,0.5,0.6,1.1,0.6,1.7c0,0.9-0.3,1.6-0.9,2.1
			c-0.6,0.5-1.5,0.8-2.5,0.8c-0.7,0-1.2-0.1-1.7-0.2c-0.5-0.1-1-0.4-1.6-0.7v-1.9c1.1,0.9,2.1,1.4,3.1,1.4c0.5,0,0.9-0.1,1.2-0.3
			s0.4-0.5,0.4-0.8c0-0.5-0.3-0.9-0.8-1.2c-0.4-0.2-1-0.5-1.7-0.8c-0.8-0.4-1.4-0.8-1.8-1.3s-0.6-1.1-0.6-1.7c0-0.9,0.3-1.5,1-2.1
			C-12720.1-2657.1-12719.3-2657.4-12718.2-2657.4z"/>
		<path class="st2" d="M-12710.1-2657.2v4.3h5.3v-4.3h2v10.2h-2v-4.3h-5.3v4.3h-2v-10.2H-12710.1z"/>
		<path class="st2" d="M-12694.3-2657.4c1.1,0,2,0.2,2.9,0.7c0.8,0.4,1.5,1.1,2,1.9c0.5,0.8,0.8,1.7,0.8,2.7c0,1-0.2,1.8-0.7,2.7
			c-0.5,0.8-1.2,1.5-2,1.9c-0.9,0.5-1.8,0.7-2.9,0.7c-1.1,0-2-0.2-2.9-0.7s-1.5-1.1-2-1.9c-0.5-0.8-0.7-1.7-0.7-2.7
			c0-0.9,0.2-1.8,0.7-2.6c0.5-0.8,1.1-1.5,2-1.9C-12696.4-2657.1-12695.4-2657.4-12694.3-2657.4z M-12697.9-2652.1
			c0,0.7,0.2,1.3,0.5,1.8s0.7,1,1.3,1.3c0.5,0.3,1.2,0.4,1.9,0.4c1,0,1.9-0.3,2.6-1s1-1.5,1-2.5c0-0.7-0.2-1.3-0.5-1.8
			c-0.3-0.5-0.7-1-1.3-1.3c-0.6-0.3-1.2-0.4-1.9-0.4s-1.3,0.2-1.9,0.5c-0.6,0.3-1,0.7-1.3,1.3
			C-12697.8-2653.4-12697.9-2652.8-12697.9-2652.1z"/>
		<path class="st2" d="M-12681.8-2657.2c1,0,1.7,0.3,2.3,0.8c0.6,0.6,0.9,1.3,0.9,2.1c0,0.9-0.3,1.6-0.9,2.1s-1.4,0.8-2.4,0.8h-1.9
			v4.3h-2v-10.2H-12681.8z M-12682.3-2652.8c0.5,0,0.9-0.1,1.2-0.4c0.3-0.2,0.4-0.6,0.4-1.1c0-0.9-0.6-1.4-1.8-1.4h-1.3v2.8
			H-12682.3z"/>
		<path class="st2" d="M-12669-2657.2l6.1,7.1v-7.1h1.9v10.2h-1.7l-6.1-7.3v7.3h-1.9v-10.2H-12669z"/>
		<path class="st2" d="M-12652.4-2657.4c1.1,0,2,0.2,2.9,0.7c0.8,0.4,1.5,1.1,2,1.9c0.5,0.8,0.8,1.7,0.8,2.7c0,1-0.2,1.8-0.7,2.7
			c-0.5,0.8-1.2,1.5-2,1.9c-0.9,0.5-1.8,0.7-2.9,0.7c-1.1,0-2-0.2-2.9-0.7c-0.9-0.5-1.5-1.1-2-1.9c-0.5-0.8-0.7-1.7-0.7-2.7
			c0-0.9,0.2-1.8,0.7-2.6s1.1-1.5,2-1.9C-12654.5-2657.1-12653.5-2657.4-12652.4-2657.4z M-12656-2652.1c0,0.7,0.2,1.3,0.5,1.8
			s0.7,1,1.3,1.3c0.5,0.3,1.2,0.4,1.9,0.4c1,0,1.9-0.3,2.6-1c0.7-0.7,1-1.5,1-2.5c0-0.7-0.2-1.3-0.5-1.8c-0.3-0.5-0.7-1-1.3-1.3
			c-0.6-0.3-1.2-0.4-1.9-0.4s-1.3,0.2-1.9,0.5c-0.6,0.3-1,0.7-1.3,1.3C-12655.9-2653.4-12656-2652.8-12656-2652.1z"/>
		<path class="st2" d="M-12643.2-2657.2l2.5,6.3l2.7-6.3h1.7l2.7,6.3l2.5-6.3h2l-4.2,10.4h-0.7l-3.2-7.6l-3.2,7.6h-0.6l-4.2-10.4
			H-12643.2z"/>
	</g>
</g>
</svg>
