<svg xmlns="http://www.w3.org/2000/svg" width="133.965" height="13" viewBox="0 0 133.965 13">
  <g id="JL_logotype_linear" data-name="JL logotype linear" transform="translate(-54.14 -6.189)">
    <path id="S" d="M224.616,12.563l-1.163-.707a5.686,5.686,0,0,1-1.523-1.3,2.385,2.385,0,0,1-.517-1.516,2.629,2.629,0,0,1,.876-2.051,3.32,3.32,0,0,1,2.3-.779,4.107,4.107,0,0,1,2.456.752V8.7a3.541,3.541,0,0,0-2.487-1.112,2.059,2.059,0,0,0-1.232.347,1.064,1.064,0,0,0-.483.9,1.237,1.237,0,0,0,.315.865,4.792,4.792,0,0,0,1.182.915l1.214.691a3.374,3.374,0,0,1,1.912,2.975,2.757,2.757,0,0,1-.87,2.1,3.058,3.058,0,0,1-2.229.8,4.732,4.732,0,0,1-2.885-.985V14.247a3.574,3.574,0,0,0,2.87,1.549,1.789,1.789,0,0,0,1.2-.378,1.268,1.268,0,0,0,.492-1C226.039,13.764,225.555,13.146,224.616,12.563Z" transform="translate(-39.358 -0.004)"/>
    <rect id="I" width="1.537" height="10.693" transform="translate(173.398 6.341)"/>
    <path id="W" d="M194.93,6.387l-2.919,7.369-2.979-7.369h-1.457l-2.962,7.369-2.949-7.369h-1.535l4.326,10.787h.3L188.3,8.425l3.513,8.749h.3l4.342-10.787Z" transform="translate(-29.644 -0.047)"/>
    <path id="E" d="M162.687,6.387V17.08h6.9V15.7h-5.362V12.376h5.065V11h-5.065V7.766h5.223V6.387Z" transform="translate(-25.541 -0.047)"/>
    <path id="L" d="M144.673,6.387V17.08h6.553V15.7h-5.017V6.387Z" transform="translate(-21.302 -0.047)"/>
    <path id="N" d="M122.652,6.388h1.454V17.081h-1.316l-7.471-8.235v8.235h-1.439V6.388h1.24l7.533,8.3Z" transform="translate(-14.056 -0.047)"/>
    <path id="H" d="M99.355,6.388h1.531V17.081H99.355V12.427H93.1v4.654H91.57V6.388H93.1v4.656h6.255Z" transform="translate(-8.807 -0.047)"/>
    <path id="O" d="M73.387,6.189a5.749,5.749,0,0,1,4.126,1.569,5.205,5.205,0,0,1,1.649,3.934A5.12,5.12,0,0,1,77.5,15.607a5.914,5.914,0,0,1-4.2,1.55,5.576,5.576,0,0,1-4.027-1.55,5.166,5.166,0,0,1-1.61-3.884,5.283,5.283,0,0,1,1.622-3.965A5.657,5.657,0,0,1,73.387,6.189Zm.061,1.454a4.149,4.149,0,0,0-3.017,1.148,3.912,3.912,0,0,0-1.181,2.932A3.842,3.842,0,0,0,70.435,14.6a4.4,4.4,0,0,0,5.953-.023,3.915,3.915,0,0,0,1.2-2.916,3.825,3.825,0,0,0-1.2-2.859A4.064,4.064,0,0,0,73.448,7.643Z" transform="translate(-3.182)"/>
    <path id="J" d="M56.153,6.386h1.531v9.149a4.231,4.231,0,0,1-.8,2.972,2.45,2.45,0,0,1-1.328.728c-.026-.021-1.419-1.421-1.419-1.421a3.3,3.3,0,0,0,1.238-.135.992.992,0,0,0,.581-.561,4.766,4.766,0,0,0,.193-1.76Z" transform="translate(0 -0.046)"/>
  </g>
</svg>
