<?xml version="1.0" encoding="UTF-8"?>
<svg id="Layer_1" xmlns="http://www.w3.org/2000/svg" version="1.1" viewBox="0 0 551.6 112.2">
  <!-- Generator: Adobe Illustrator 29.5.1, SVG Export Plug-In . SVG Version: 2.1.0 Build 141)  -->
  <path d="M478.2,103.3l-.3-21.4c13.6,8.8,22.7,12.8,33.2,12.8s19.7-4.7,19.7-13.3-3.3-10.1-14-14.4l-17.2-6.9c-15.8-6.3-22.9-15.1-22.9-28.8s14.4-30.2,36.7-30.2,22.6,3.7,29,6.7v20.6c-12-8-20.9-11.2-29.9-11.2s-16.8,4.4-16.8,11.2,3.5,10.2,12,13.6l21.6,8.8c12.6,5.1,20.8,14.2,20.8,28.2s-14.3,31.8-39.8,31.8-24.9-4.2-32-7.4h0Z"/>
  <path d="M444.8,55.8c0-23.2-13.2-36-37.5-36h-12.6v72.1h12.6c24.3,0,37.5-12.8,37.5-36.1h0ZM375,94.1V17.6c0-4.3-1-9.2-2.5-15.3h36.1c34.3,0,56,21.9,56,53.5s-21.7,53.5-56,53.5h-36.1c1.5-6.1,2.5-11,2.5-15.3Z"/>
  <path d="M301.5,69.8c-16.4-16.7-30.6-39.5-37.9-67.4h22.6c.3,4.8,1.2,9.2,3,14.4,5.1,14.7,13,27,21.9,37.5,9.2-10,17.7-22.7,22.9-37.5,1.8-5.1,2.7-9.6,3-14.4h21.9c-7.2,28-21.5,50.7-37.9,67.4v39.6h-19.7v-39.6h0Z"/>
  <path d="M242.4,55.8c0-22.1-13.1-37.3-34.8-37.3s-34.8,15.3-34.8,37.3,13.1,37.3,34.8,37.3,34.8-15.3,34.8-37.3ZM153,55.8c0-30.6,22.4-54.8,54.6-54.8s54.6,24.3,54.6,54.8-22.4,54.8-54.6,54.8-54.6-24.3-54.6-54.8Z"/>
  <path d="M83,94.1V17.6c0-4.3-1-9.2-2.5-15.3h24.6c-1.5,6.1-2.5,11-2.5,15.3v74.3h27c9,0,14.7-.4,20.7-2.1l-6.1,19.5h-63.7c1.5-6.1,2.5-11,2.5-15.3h0Z"/>
  <path d="M3.5,94.1V17.6c0-4.3-1-9.2-2.5-15.3h24.6c-1.5,6.1-2.5,11-2.5,15.3v74.3h27c9,0,14.7-.4,20.7-2.1l-6.1,19.5H1c1.5-6.1,2.5-11,2.5-15.3h0Z"/>
</svg>