<?xml version="1.0" encoding="utf-8"?>
<!-- Generator: Adobe Illustrator 27.0.1, SVG Export Plug-In . SVG Version: 6.00 Build 0)  -->
<svg version="1.1" id="Layer_1" xmlns="http://www.w3.org/2000/svg" xmlns:xlink="http://www.w3.org/1999/xlink" x="0px" y="0px"
	 viewBox="0 0 66.1 21.6" style="enable-background:new 0 0 66.1 21.6;" xml:space="preserve">
<style type="text/css">
	.st0{fill:#FFFFFF;}
</style>
<g transform="translate(-372.724 -361.319)">
	<path class="st0" d="M374.8,366.3h2.5v13.2c0.1,1.9-1.4,3.4-3.3,3.4c-0.1,0-0.2,0-0.3,0h-1v-2.3h0.7c0.8,0,1.4-0.4,1.4-1.3
		L374.8,366.3z M374.8,361.3h2.5v2.5h-2.5V361.3z"/>
	<path class="st0" d="M381.3,371.3c0.1-1.9,1.1-2.9,2.6-2.9s2.5,1,2.6,2.9H381.3z M389,373.4v-2c0.1-2.8-2-5.1-4.8-5.2
		c-0.1,0-0.2,0-0.3,0c-2.4,0-5.1,1.5-5.1,6.3c0,5,2.9,6.2,5.5,6.2c1.7,0,3.3-0.7,4.4-2l-1.8-1.5c-0.7,0.7-1.7,1.2-2.7,1.2
		c-1.5,0.1-2.8-1-2.9-2.5c0-0.2,0-0.3,0-0.5L389,373.4z"/>
	<path class="st0" d="M390.9,362.6h2.5v3.7h1.8v1.9h-1.8v7.1c0,0.7,0.3,0.9,0.9,0.9h0.9v2.3h-1.3c-1.5,0.1-2.9-1.1-3-2.6
		c0-0.1,0-0.3,0-0.4v-7.4h-1.2v-1.9h1.2L390.9,362.6z"/>
	<path class="st0" d="M403.4,370.9c1.4-0.1,2.7,0.9,2.8,2.4s-0.9,2.7-2.4,2.8c-0.1,0-0.3,0-0.4,0h-4v-5.2H403.4z M396.8,378.6h7.3
		c2.6,0,4.8-2,4.8-4.6c0-0.1,0-0.2,0-0.3c0.1-1.8-1.1-3.5-2.8-4v0c1.6-0.5,2.6-2,2.5-3.7c0-2.7-1.7-4.6-5.1-4.6h-6.7L396.8,378.6z
		 M403.2,363.6c1.3-0.2,2.6,0.8,2.8,2.1c0,0.1,0,0.2,0,0.4c0,1.4-0.9,2.5-2.8,2.5h-3.8v-4.9H403.2z"/>
	<path class="st0" d="M410.3,361.3h2.5v14.1c0,0.6,0.3,0.8,0.9,0.8h0.9v2.3h-1.1c-1.8,0-3.1-0.8-3.1-3L410.3,361.3z"/>
	<path class="st0" d="M415.5,366.3h2.5v7.3c-0.1,1.3,0.9,2.5,2.2,2.6c1.3,0.1,2.5-0.9,2.6-2.2c0-0.1,0-0.3,0-0.4v-7.3h2.5v12.3h-2.5
		v-1.3h0c-0.8,1-1.9,1.5-3.2,1.5c-2.3,0-4.1-1.9-4.1-4.1c0,0,0-0.1,0-0.1L415.5,366.3z"/>
	<path class="st0" d="M429.1,371.3c0-1.9,1.1-2.9,2.6-2.9s2.5,1,2.6,2.9H429.1z M436.8,373.4v-2c0.1-2.7-2-5.1-4.8-5.2
		c-0.1,0-0.2,0-0.3,0c-2.4,0-5.1,1.5-5.1,6.3c0,5,2.9,6.2,5.5,6.2c1.7,0,3.3-0.7,4.4-2l-1.8-1.5c-0.7,0.7-1.7,1.2-2.7,1.2
		c-1.5,0.1-2.8-1-2.9-2.5c0-0.2,0-0.3,0-0.5L436.8,373.4z"/>
	<path class="st0" d="M437.7,366.1c0.6,0,1.1,0.5,1.1,1.1c0,0.6-0.5,1.1-1.1,1.1c-0.6,0-1.1-0.5-1.1-1.1
		C436.6,366.6,437.1,366.1,437.7,366.1L437.7,366.1 M437.7,368c0.5,0,0.9-0.4,0.9-0.9s-0.4-0.9-0.9-0.9c-0.5,0-0.9,0.4-0.9,0.9
		c0,0,0,0,0,0C436.8,367.6,437.2,368,437.7,368C437.7,368,437.7,368,437.7,368 M437.3,366.5h0.5c0.3,0,0.4,0.1,0.4,0.4
		c0,0.2-0.1,0.3-0.3,0.4c0,0,0,0,0,0l0.4,0.5H438l-0.4-0.5h-0.1v0.5h-0.2V366.5z M437.5,367.1h0.1c0.2,0,0.3,0,0.3-0.2
		s-0.1-0.2-0.3-0.2h-0.2V367.1z"/>
</g>
</svg>
