<svg xmlns="http://www.w3.org/2000/svg" width="175.185" height="17" viewBox="0 0 175.185 17">
  <g id="JL_logotype_linear" data-name="JL logotype linear" transform="translate(-54.14 -6.189)">
    <path id="S" d="M225.6,14.519l-1.521-.924a7.435,7.435,0,0,1-1.992-1.7,3.119,3.119,0,0,1-.676-1.983,3.438,3.438,0,0,1,1.146-2.682,4.342,4.342,0,0,1,3-1.019,5.371,5.371,0,0,1,3.212.983V9.461a4.63,4.63,0,0,0-3.252-1.454,2.693,2.693,0,0,0-1.611.454,1.391,1.391,0,0,0-.631,1.171,1.617,1.617,0,0,0,.412,1.131,6.266,6.266,0,0,0,1.546,1.2l1.587.9a4.413,4.413,0,0,1,2.5,3.89,3.606,3.606,0,0,1-1.138,2.745,4,4,0,0,1-2.915,1.052,6.187,6.187,0,0,1-3.773-1.288V16.721a4.674,4.674,0,0,0,3.753,2.025,2.34,2.34,0,0,0,1.566-.494,1.658,1.658,0,0,0,.644-1.311C227.462,16.089,226.83,15.282,225.6,14.519Z"/>
    <rect id="I" width="2.01" height="13.983" transform="translate(210.093 6.388)"/>
    <path id="W" d="M199.484,6.387l-3.816,9.636-3.9-9.636h-1.905l-3.873,9.636-3.857-9.636h-2.008l5.658,14.107h.389l4.634-11.441L195.4,20.494h.389l5.678-14.107Z"/>
    <path id="E" d="M162.687,6.387V20.37h9.02v-1.8H164.7V14.219h6.624v-1.8H164.7V8.19h6.83v-1.8Z"/>
    <path id="L" d="M144.673,6.387V20.37h8.569v-1.8h-6.561V6.387Z"/>
    <path id="N" d="M125.351,6.388h1.9V20.371h-1.721L115.761,9.6V20.371h-1.882V6.388H115.5l9.851,10.86Z"/>
    <path id="H" d="M101.751,6.388h2V20.371h-2V14.285H93.572v6.086h-2V6.388h2v6.089h8.179Z"/>
    <path id="O" d="M75.147,6.189a7.518,7.518,0,0,1,5.4,2.052A6.807,6.807,0,0,1,82.7,13.385a6.7,6.7,0,0,1-2.176,5.12,7.734,7.734,0,0,1-5.486,2.027A7.292,7.292,0,0,1,69.771,18.5a6.756,6.756,0,0,1-2.106-5.079,6.908,6.908,0,0,1,2.121-5.185A7.4,7.4,0,0,1,75.147,6.189Zm.08,1.9a5.426,5.426,0,0,0-3.945,1.5,5.115,5.115,0,0,0-1.545,3.834,5.024,5.024,0,0,0,1.55,3.763,5.755,5.755,0,0,0,7.785-.03,5.12,5.12,0,0,0,1.565-3.813,5,5,0,0,0-1.565-3.739A5.314,5.314,0,0,0,75.227,8.091Z"/>
    <path id="J" d="M56.772,6.386h2V18.35a5.533,5.533,0,0,1-1.041,3.887A3.2,3.2,0,0,1,56,23.189c-.034-.028-1.856-1.858-1.856-1.858a4.313,4.313,0,0,0,1.619-.176,1.3,1.3,0,0,0,.76-.734,6.233,6.233,0,0,0,.253-2.3Z"/>
  </g>
</svg>
