<?xml version="1.0" encoding="utf-8"?>
<!-- Generator: Adobe Illustrator 27.0.0, SVG Export Plug-In . SVG Version: 6.00 Build 0)  -->
<svg version="1.1" id="Layer_1" xmlns="http://www.w3.org/2000/svg" xmlns:xlink="http://www.w3.org/1999/xlink" x="0px" y="0px"
	 viewBox="0 0 90 38" style="enable-background:new 0 0 90 38;" xml:space="preserve">
<style type="text/css">
	.st0{clip-path:url(#SVGID_00000174560764870973352910000006566295101206541246_);}
	.st1{fill:#FFFFFF;}
	.st2{enable-background:new    ;}
	.st3{fill:#154734;}
</style>
<g id="Nero_partnership" transform="translate(-9 -473)">
	<g id="Nero_logo" transform="translate(61 473.004)">
		<g>
			<defs>
				<rect id="SVGID_1_" y="0" width="38" height="38"/>
			</defs>
			<clipPath id="SVGID_00000138547484518586640800000014632596498809037196_">
				<use xlink:href="#SVGID_1_"  style="overflow:visible;"/>
			</clipPath>
			
				<g id="Group_10047" transform="translate(0 -0.004)" style="clip-path:url(#SVGID_00000138547484518586640800000014632596498809037196_);">
				<path id="Path_3570" d="M19,38c10.5,0,19-8.5,19-19S29.5,0,19,0S0,8.5,0,19S8.5,38,19,38"/>
				<path id="Path_3571" class="st1" d="M32.7,17.7h-3.1v-3.4h3.1V17.7z M33.4,13h-4.6c-0.5,0-0.9,0.4-0.9,0.9v0v4.2
					c0,0.5,0.4,0.9,0.9,0.9l0,0h4.6c0.5,0,0.9-0.4,0.9-0.9v0v-4.2C34.3,13.4,33.9,13,33.4,13L33.4,13"/>
				<path id="Path_3572" class="st1" d="M12.4,19h5.9v-1.3h-4.1v-1.2l1.8,0l0.2-1.2h-2.1v-1h4.1V13h-5.9L12.4,19z"/>
				<path id="Path_3573" class="st1" d="M24.2,15.9h-2.4v-1.7h2.4V15.9z M25.3,17.1c0.4,0,0.7-0.3,0.8-0.7v-2.6
					c0-0.5-0.4-0.9-0.9-0.9c0,0,0,0,0,0H20v6h1.8v-1.8h1.5l1.2,1.8h2L25.3,17.1z"/>
				<path id="Path_3574" class="st1" d="M3.8,19h1.6v-2.9l5.4,3.1V13H9.2V16l-5.4-3.1L3.8,19z"/>
				<path id="Path_3575" class="st1" d="M4.7,22.3l0.9,1.2H5.1l-0.8-1.2H4.2v1.2H3.7v-2.9h0.5c0.3,0,0.6,0.1,0.8,0.2
					c0.2,0.2,0.3,0.4,0.3,0.6c0,0.2-0.1,0.4-0.2,0.5C5.1,22.2,4.9,22.3,4.7,22.3 M4.2,22h0.1c0.4,0,0.6-0.2,0.6-0.5
					c0-0.3-0.2-0.4-0.6-0.4H4.2V22z"/>
				<path id="Path_3576" class="st1" d="M6.4,22.1c0-0.4,0.2-0.8,0.5-1.1c0.3-0.3,0.7-0.4,1.1-0.4c0.8,0,1.5,0.7,1.5,1.5
					c0,0.4-0.2,0.8-0.5,1.1c-0.6,0.6-1.5,0.6-2.1,0C6.6,22.9,6.4,22.5,6.4,22.1 M6.9,22.1c0,0.3,0.1,0.6,0.3,0.8
					c0.4,0.4,1.1,0.4,1.5,0c0.4-0.4,0.4-1.1,0-1.6C8.5,21.1,8.2,21,7.9,21c-0.3,0-0.6,0.1-0.8,0.3C7,21.5,6.9,21.8,6.9,22.1"/>
				<path id="Path_3577" class="st1" d="M11.6,21.4l0.4,1h-0.9L11.6,21.4z M10.1,23.5h0.5l0.3-0.7h1.3l0.3,0.7H13l-1.4-3.1
					L10.1,23.5z"/>
				<path id="Path_3578" class="st1" d="M15.6,21l-0.4,0.2c0-0.1-0.1-0.2-0.2-0.2c-0.2-0.1-0.4-0.1-0.5,0c-0.1,0.1-0.1,0.2-0.1,0.3
					c0,0.1,0.1,0.3,0.3,0.3l0.3,0.1c0.2,0.1,0.4,0.2,0.5,0.3c0.1,0.1,0.2,0.3,0.2,0.5c0,0.2-0.1,0.5-0.3,0.7
					c-0.2,0.2-0.4,0.3-0.7,0.3c-0.2,0-0.5-0.1-0.6-0.2c-0.2-0.2-0.3-0.4-0.3-0.6l0.4-0.1c0,0.1,0,0.2,0.1,0.4
					c0.2,0.2,0.5,0.3,0.7,0.1c0,0,0,0,0,0c0.1-0.1,0.2-0.3,0.1-0.5c0,0,0-0.1-0.1-0.1c0,0-0.1-0.1-0.1-0.1c-0.1,0-0.1-0.1-0.2-0.1
					l-0.3-0.1c-0.3-0.1-0.6-0.4-0.6-0.7c0-0.2,0.1-0.4,0.3-0.5c0.2-0.2,0.4-0.2,0.6-0.2C15.1,20.6,15.4,20.7,15.6,21"/>
				<path id="Path_3579" class="st1" d="M16.5,20.6V21h0.7v2.5h0.4V21h0.7v-0.4H16.5z"/>
				<rect id="Rectangle_17932" x="19.2" y="20.6" class="st1" width="0.4" height="2.9"/>
				<path id="Path_3580" class="st1" d="M21,23.5h0.4v-2l2.1,2.2v-3.1h-0.4v2L21,20.4V23.5z"/>
				<path id="Path_3581" class="st1" d="M26.3,22h1.2v0.1c0,0.2,0,0.4-0.1,0.6c-0.1,0.2-0.1,0.3-0.3,0.4c-0.3,0.3-0.6,0.5-1,0.5
					c-0.4,0-0.8-0.2-1-0.4c-0.6-0.6-0.6-1.6,0-2.2c0.5-0.4,1.1-0.6,1.7-0.3c0.2,0.1,0.4,0.3,0.6,0.5l-0.3,0.3
					c-0.2-0.3-0.5-0.5-0.9-0.5c-0.3,0-0.6,0.1-0.8,0.3c-0.2,0.2-0.3,0.5-0.3,0.8c0,0.6,0.5,1.1,1.1,1.1c0.2,0,0.4-0.1,0.6-0.2
					c0.2-0.1,0.3-0.3,0.3-0.5h-0.7L26.3,22z"/>
				<path id="Path_3582" class="st1" d="M31.7,20.8v0.5c-0.2-0.2-0.5-0.3-0.8-0.3c-0.3,0-0.6,0.1-0.8,0.3c-0.2,0.2-0.3,0.5-0.3,0.8
					c0,0.3,0.1,0.6,0.3,0.8c0.2,0.2,0.5,0.3,0.8,0.3c0.1,0,0.3,0,0.4-0.1c0.1,0,0.1-0.1,0.2-0.1c0.1,0,0.1-0.1,0.2-0.2v0.5
					c-0.2,0.1-0.5,0.2-0.8,0.2c-0.4,0-0.8-0.2-1.1-0.4c-0.3-0.3-0.4-0.7-0.4-1.1c0-0.4,0.1-0.7,0.4-1c0.3-0.4,0.7-0.5,1.2-0.5
					C31.2,20.6,31.4,20.6,31.7,20.8"/>
				<path id="Path_3583" class="st1" d="M32.3,21.6c0-0.3,0.1-0.5,0.3-0.7c0.4-0.4,1-0.4,1.4,0c0.4,0.4,0.4,1,0,1.4
					c-0.2,0.2-0.4,0.3-0.7,0.3c-0.3,0-0.5-0.1-0.7-0.3C32.4,22.1,32.3,21.8,32.3,21.6 M32.8,21.6c0,0.2,0,0.3,0.1,0.4
					c0.2,0.2,0.6,0.2,0.8,0c0.2-0.3,0.2-0.6,0-0.9c-0.2-0.2-0.6-0.2-0.8,0C32.8,21.3,32.8,21.4,32.8,21.6"/>
				<path id="Path_3584" class="st1" d="M33.1,23.3c0-0.1,0-0.1,0.1-0.2c0.1-0.1,0.3-0.1,0.4,0c0.1,0.1,0.1,0.2,0,0.3c0,0,0,0,0,0
					c-0.1,0.1-0.3,0.1-0.4,0C33.1,23.4,33.1,23.4,33.1,23.3"/>
			</g>
		</g>
	</g>
	<g class="st2">
		<path class="st3" d="M10.7,489.9v4.1h-0.6v-4.1H10.7z"/>
		<path class="st3" d="M13.8,492.4v1.6h-0.5v-1.6c0-0.6-0.3-0.7-0.6-0.7c-0.2,0-0.5,0.1-0.6,0.4v1.9h-0.5v-2.7h0.5v0.3
			c0.2-0.3,0.6-0.4,0.8-0.4C13.5,491.3,13.8,491.7,13.8,492.4z"/>
		<path class="st3" d="M17.3,494.1c-0.2,0-0.3,0-0.6-0.1v1.4h-0.5v-4.1h1c0.9,0,1.5,0.5,1.5,1.3C18.7,493.4,18.1,494.1,17.3,494.1z
			 M16.8,493.5c0.1,0.1,0.3,0.1,0.5,0.1c0.5,0,0.8-0.4,0.8-0.9c0-0.6-0.3-0.9-0.9-0.9h-0.4V493.5z"/>
		<path class="st3" d="M21,492.1v1.4c0,0.1,0,0.1,0.1,0.1c0.1,0,0.2,0,0.3-0.1v0.4c-0.2,0.1-0.4,0.2-0.6,0.2c-0.2,0-0.3-0.1-0.4-0.3
			c-0.2,0.2-0.5,0.3-0.7,0.3c-0.4,0-0.7-0.3-0.7-0.7c0-0.5,0.3-0.7,1.4-1v-0.2c0-0.3-0.2-0.5-0.5-0.5c-0.3,0-0.6,0.1-0.9,0.4v-0.6
			c0.2-0.2,0.5-0.4,0.9-0.4C20.6,491.3,21,491.6,21,492.1z M20,493.7c0.2,0,0.3-0.1,0.5-0.2v-0.8c-0.6,0.2-0.9,0.4-0.9,0.6
			C19.6,493.5,19.8,493.7,20,493.7z"/>
		<path class="st3" d="M23.5,491.8c-0.1,0-0.2,0-0.4,0c-0.4,0-0.7,0.2-0.7,0.8v1.5h-0.5v-2.7h0.5v0.5c0.2-0.4,0.5-0.5,0.9-0.5
			c0.1,0,0.2,0,0.2,0V491.8z"/>
		<path class="st3" d="M24.8,491.3h0.9v0.5h-0.9v1.4c0,0.3,0.2,0.4,0.4,0.4c0.2,0,0.4,0,0.6-0.2v0.5c-0.2,0.1-0.4,0.2-0.6,0.2
			c-0.6,0-0.9-0.4-0.9-0.8v-1.4h-0.5v-0.5h0.5v-0.8h0.5V491.3z"/>
		<path class="st3" d="M28.5,492.4v1.6H28v-1.6c0-0.6-0.3-0.7-0.6-0.7c-0.2,0-0.5,0.1-0.6,0.4v1.9h-0.5v-2.7h0.5v0.3
			c0.2-0.3,0.6-0.4,0.8-0.4C28.2,491.3,28.5,491.7,28.5,492.4z"/>
		<path class="st3" d="M31.5,492.6L31.5,492.6l-1.9,0.1c0,0.5,0.4,0.8,0.9,0.8c0.3,0,0.7-0.1,1-0.3v0.5c-0.4,0.2-0.7,0.3-1,0.3
			c-0.7,0-1.3-0.5-1.3-1.4c0-0.8,0.5-1.4,1.3-1.4C31,491.3,31.5,491.8,31.5,492.6z M31,492.4c0-0.4-0.3-0.7-0.7-0.7
			c-0.4,0-0.7,0.3-0.7,0.7H31z"/>
		<path class="st3" d="M33.8,491.8c-0.1,0-0.2,0-0.4,0c-0.4,0-0.7,0.2-0.7,0.8v1.5h-0.5v-2.7h0.5v0.5c0.2-0.4,0.5-0.5,0.9-0.5
			c0.1,0,0.2,0,0.2,0V491.8z"/>
		<path class="st3" d="M34.9,491.3c0.3,0,0.5,0.1,0.8,0.2v0.5c-0.3-0.2-0.5-0.3-0.8-0.3c-0.2,0-0.3,0.1-0.3,0.2c0,0.1,0,0.2,0.5,0.5
			c0.3,0.2,0.7,0.4,0.7,0.9c0,0.3-0.2,0.8-0.9,0.8c-0.3,0-0.5,0-0.9-0.2v-0.6c0.3,0.2,0.6,0.4,0.9,0.4c0.3,0,0.4-0.1,0.4-0.3
			c0-0.2,0-0.2-0.6-0.6c-0.4-0.2-0.6-0.4-0.6-0.8C34.1,491.5,34.5,491.3,34.9,491.3z"/>
		<path class="st3" d="M38.8,492.3v1.7h-0.5v-1.7c0-0.4-0.2-0.6-0.5-0.6c-0.3,0-0.4,0.1-0.7,0.4v1.9h-0.5v-4.1h0.5v1.8
			c0.2-0.3,0.5-0.4,0.8-0.4C38.5,491.3,38.8,491.7,38.8,492.3z"/>
		<path class="st3" d="M40.1,490.5c0,0.2-0.1,0.3-0.3,0.3c-0.2,0-0.3-0.2-0.3-0.3c0-0.2,0.1-0.3,0.3-0.3
			C40,490.2,40.1,490.3,40.1,490.5z M40.1,491.3v2.7h-0.5v-2.7H40.1z"/>
		<path class="st3" d="M42,494.1c-0.2,0-0.3,0-0.6-0.1v1.4h-0.5v-4.1h1c0.9,0,1.5,0.5,1.5,1.3C43.3,493.4,42.8,494.1,42,494.1z
			 M41.4,493.5c0.1,0.1,0.3,0.1,0.5,0.1c0.5,0,0.8-0.4,0.8-0.9c0-0.6-0.3-0.9-0.9-0.9h-0.4V493.5z"/>
		<path class="st3" d="M45.8,491.3l0.7,1.6l0.7-1.6h0.4l0.7,1.6l0.7-1.6h0.6l-1.2,2.7h-0.2l-0.8-1.9l-0.8,1.9h-0.2l-1.2-2.7H45.8z"
			/>
		<path class="st3" d="M50.5,490.5c0,0.2-0.1,0.3-0.3,0.3c-0.2,0-0.3-0.2-0.3-0.3c0-0.2,0.1-0.3,0.3-0.3
			C50.3,490.2,50.5,490.3,50.5,490.5z M50.4,491.3v2.7h-0.5v-2.7H50.4z"/>
		<path class="st3" d="M51.9,491.3h0.9v0.5h-0.9v1.4c0,0.3,0.2,0.4,0.4,0.4c0.2,0,0.4,0,0.6-0.2v0.5c-0.2,0.1-0.4,0.2-0.6,0.2
			c-0.6,0-0.9-0.4-0.9-0.8v-1.4h-0.5v-0.5h0.5v-0.8h0.5V491.3z"/>
		<path class="st3" d="M55.7,492.3v1.7h-0.5v-1.7c0-0.4-0.2-0.6-0.5-0.6c-0.3,0-0.4,0.1-0.7,0.4v1.9h-0.5v-4.1h0.5v1.8
			c0.2-0.3,0.5-0.4,0.8-0.4C55.4,491.3,55.7,491.7,55.7,492.3z"/>
	</g>
</g>
</svg>
