<svg xmlns="http://www.w3.org/2000/svg" width="101.239" height="25.469" viewBox="0 0 101.239 25.469">
  <g id="Waitrose_logo_with_FTFGA_strapline" data-name="Waitrose logo with FTFGA strapline" transform="translate(-53.951 -533.264)">
    <path id="food_to_feel_good_about" data-name="food to feel good about" d="M47.207,6.734c0-.424.263-.831.992-.95a.582.582,0,0,1-.373-.517.722.722,0,0,1,.636-.679,1.356,1.356,0,0,1-1.069-1.306c0-.975.729-1.535,1.976-1.535H51.43v.805h-.747a1.055,1.055,0,0,1,.39.84c0,.729-.585,1.263-1.527,1.331-.331.034-.576.119-.576.305,0,.212.263.263.907.34,1,.11,1.433.534,1.433,1.187,0,.84-.729,1.3-2.052,1.3C47.9,7.853,47.207,7.412,47.207,6.734Zm1.111-.068c0,.331.331.5.984.5.6,0,.967-.178.967-.509s-.381-.492-1.009-.492C48.674,6.166,48.318,6.3,48.318,6.666ZM48.5,3.3a.678.678,0,0,0,.712.678.7.7,0,0,0,.746-.7.706.706,0,0,0-.72-.7A.733.733,0,0,0,48.5,3.3Zm35.61.907V1.747h1.272V4.062c0,.593.221.874.662.874a1.114,1.114,0,0,0,.907-.628V1.747h1.272V5.861H86.955V5.292a1.783,1.783,0,0,1-1.391.645C84.691,5.937,84.114,5.462,84.114,4.207Zm5.266.263V2.79h-.56v-.84h.56V.806h1.23V1.951h1.425v.84H90.61V4.469c0,.365.161.56.526.56a1.776,1.776,0,0,0,.9-.229v.89a2.786,2.786,0,0,1-1.136.246A1.349,1.349,0,0,1,89.38,4.469ZM78.763,3.808A2.309,2.309,0,0,1,83.369,3.8a2.309,2.309,0,0,1-4.605.009ZM80.095,3.8c0,.721.381,1.154.975,1.154s.975-.45.975-1.154c0-.738-.407-1.145-.992-1.145S80.095,3.078,80.095,3.8ZM73.887,5.58V.076h1.272V2a1.822,1.822,0,0,1,1.1-.331,1.931,1.931,0,0,1,1.9,2.137c0,1.51-1.018,2.129-2.332,2.129A5.988,5.988,0,0,1,73.887,5.58Zm1.272-2.638V4.868a2.147,2.147,0,0,0,.653.1c.441,0,1.026-.221,1.026-1.154,0-.72-.373-1.179-.907-1.179A1.322,1.322,0,0,0,75.159,2.943ZM71.47,5.5a1.764,1.764,0,0,1-1.212.433A1.03,1.03,0,0,1,69.087,4.9c0-.848.755-1.119,2.324-1.628V3.18c0-.483-.254-.628-.67-.628a2.114,2.114,0,0,0-1.527.738V2.231a2.776,2.776,0,0,1,1.764-.56c1.111,0,1.7.5,1.7,1.3v1.7c0,.195.034.348.187.348a.766.766,0,0,0,.381-.144v.78a2.547,2.547,0,0,1-1.119.288A.592.592,0,0,1,71.47,5.5Zm-1.128-.763a.437.437,0,0,0,.45.467,1.038,1.038,0,0,0,.619-.3V3.868C70.758,4.139,70.343,4.317,70.343,4.741ZM56.984,3.808A2.309,2.309,0,0,1,61.59,3.8a2.309,2.309,0,0,1-4.605.009ZM58.316,3.8c0,.721.381,1.154.975,1.154s.975-.45.975-1.154c0-.738-.407-1.145-.992-1.145S58.316,3.078,58.316,3.8Zm-6.53.009A2.309,2.309,0,0,1,56.391,3.8a2.309,2.309,0,0,1-4.605.009ZM53.117,3.8c0,.721.382,1.154.975,1.154s.976-.45.976-1.154c0-.738-.407-1.145-.993-1.145S53.117,3.078,53.117,3.8ZM38.5,3.783a2.03,2.03,0,0,1,2.222-2.112,1.936,1.936,0,0,1,1.968,2.162v.238H39.8a1.166,1.166,0,0,0,1.2.975,3.372,3.372,0,0,0,1.578-.433v.874a3.525,3.525,0,0,1-1.823.449A2.078,2.078,0,0,1,38.5,3.783Zm1.281-.356h1.7c-.009-.568-.314-.916-.823-.916A.869.869,0,0,0,39.776,3.426Zm-6.038.356A2.03,2.03,0,0,1,35.96,1.671a1.936,1.936,0,0,1,1.968,2.162v.238H35.044a1.166,1.166,0,0,0,1.2.975,3.371,3.371,0,0,0,1.577-.433v.874A3.525,3.525,0,0,1,36,5.937,2.078,2.078,0,0,1,33.738,3.783Zm1.281-.356h1.7c-.009-.568-.314-.916-.822-.916A.869.869,0,0,0,35.019,3.426ZM23.84,3.808a2.083,2.083,0,0,1,2.307-2.137,2.079,2.079,0,0,1,2.3,2.128,2.1,2.1,0,0,1-2.307,2.137A2.087,2.087,0,0,1,23.84,3.808ZM25.171,3.8c0,.721.381,1.154.975,1.154s.976-.45.976-1.154c0-.738-.407-1.145-.993-1.145S25.171,3.078,25.171,3.8Zm-4.41.67V2.79H20.2v-.84h.56V.806h1.23V1.951h1.425v.84H21.992V4.469c0,.365.161.56.526.56a1.779,1.779,0,0,0,.9-.229v.89a2.788,2.788,0,0,1-1.136.246A1.349,1.349,0,0,1,20.762,4.469ZM8.277,3.808a2.083,2.083,0,0,1,2.307-2.137,2.079,2.079,0,0,1,2.3,2.128,2.1,2.1,0,0,1-2.307,2.137A2.087,2.087,0,0,1,8.277,3.808ZM9.608,3.8c0,.721.381,1.154.975,1.154s.976-.45.976-1.154c0-.738-.407-1.145-.993-1.145S9.608,3.078,9.608,3.8Zm-6.53.009A2.084,2.084,0,0,1,5.385,1.671,2.079,2.079,0,0,1,7.683,3.8,2.1,2.1,0,0,1,5.377,5.937,2.087,2.087,0,0,1,3.078,3.808ZM4.41,3.8c0,.721.382,1.154.976,1.154s.975-.45.975-1.154c0-.738-.407-1.145-.992-1.145S4.41,3.078,4.41,3.8ZM64.6,5.86c-1.823,0-2.417-.848-2.417-2.112a1.945,1.945,0,0,1,1.976-2.077,1.9,1.9,0,0,1,1.043.271V.076h1.264V5.86ZM63.514,3.74c0,.806.322,1.136,1.213,1.136H65.2V2.867a1.253,1.253,0,0,0-.755-.229A.976.976,0,0,0,63.514,3.74ZM43.448,5.86V.076H44.72V5.86ZM31.3,5.86V2.739H30.66V1.832H31.3V1.781A1.583,1.583,0,0,1,32.967,0a3.413,3.413,0,0,1,.687.076v.967a1.95,1.95,0,0,0-.508-.076c-.323,0-.577.169-.577.746v.119H33.3v.907h-.729V5.86Zm-15.4,0c-1.823,0-2.417-.848-2.417-2.112a1.945,1.945,0,0,1,1.976-2.077,1.9,1.9,0,0,1,1.043.271V.076h1.264V5.86ZM14.807,3.74c0,.806.322,1.136,1.213,1.136h.475V2.867a1.251,1.251,0,0,0-.755-.229A.976.976,0,0,0,14.807,3.74ZM.636,5.86V2.739H0V1.832H.636V1.781A1.583,1.583,0,0,1,2.307,0a3.418,3.418,0,0,1,.687.076v.967A1.956,1.956,0,0,0,2.485.967c-.322,0-.577.169-.577.746v.119h.729v.907H1.908V5.86Z" transform="translate(58.553 550.88)" fill="#154734"/>
    <path id="WAITROSE" d="M86.376,11.472a4.987,4.987,0,0,1-3.048-1.053V8.16A3.728,3.728,0,0,0,86.361,9.9a1.771,1.771,0,0,0,1.186-.372,1.235,1.235,0,0,0,.481-.976c0-.634-.481-1.255-1.43-1.845l-1.2-.729a6.02,6.02,0,0,1-1.59-1.361,2.536,2.536,0,0,1-.549-1.611,2.8,2.8,0,0,1,.928-2.17A3.5,3.5,0,0,1,86.606.012a4.318,4.318,0,0,1,2.608.811V2.832a3.718,3.718,0,0,0-2.64-1.248,2.061,2.061,0,0,0-1.226.343,1.025,1.025,0,0,0-.466.861,1.207,1.207,0,0,0,.307.843,4.847,4.847,0,0,0,1.2.927l1.251.712A3.539,3.539,0,0,1,89.648,8.4a2.909,2.909,0,0,1-.921,2.219,3.22,3.22,0,0,1-2.264.851ZM68.331,9.838A5.424,5.424,0,0,1,66.649,5.78a5.541,5.541,0,0,1,1.695-4.141A5.927,5.927,0,0,1,72.622,0a6.024,6.024,0,0,1,4.306,1.638,5.46,5.46,0,0,1,1.722,4.11,5.374,5.374,0,0,1-1.739,4.091,6.2,6.2,0,0,1-4.376,1.618A5.848,5.848,0,0,1,68.331,9.838Zm1.3-7.026a3.975,3.975,0,0,0-1.2,2.967,3.9,3.9,0,0,0,1.2,2.912,4.459,4.459,0,0,0,6.03-.023,3.98,3.98,0,0,0,1.211-2.952,3.885,3.885,0,0,0-1.21-2.892,4.133,4.133,0,0,0-2.978-1.174A4.223,4.223,0,0,0,69.628,2.812ZM12.1,11.451,8.531,2.558l-3.6,8.893H4.521L0,.179H1.746L4.735,7.648l3-7.469h1.6l3.019,7.469L15.319.179h1.729L12.511,11.451Zm82.568-.1V.179H101.1V1.752H96.4v3.18h4.528V6.5H96.4V9.78h4.835v1.573Zm-33.53,0c-.2-.308-.54-.848-.573-.891l-.8-1.244-.587-.858a8.75,8.75,0,0,0-.887-1.085,3.076,3.076,0,0,0-.685-.551,2.556,2.556,0,0,0-1.1-.169h-.335v4.8H54.446V.18h2.87a4.075,4.075,0,0,1,2.7.846,2.86,2.86,0,0,1,1.009,2.3,2.966,2.966,0,0,1-.494,1.708,2.848,2.848,0,0,1-1.256,1.023,5.174,5.174,0,0,1,.933.881,19.136,19.136,0,0,1,1.41,2.1c.4.654.73,1.126.936,1.407l.673.909ZM56.208,5h.524a4.419,4.419,0,0,0,1.613-.2,1.58,1.58,0,0,0,.9-1.494,1.5,1.5,0,0,0-1-1.467,5.556,5.556,0,0,0-1.636-.17h-.4ZM44.292,11.354V1.734H40.463V.18h9.39V1.734H46.028v9.62Zm-10.116,0V.179h1.736V11.354Zm-6.058,0L26.65,8.087h-4.6l-1.378,3.267H18.881L23.681.115h1.208L29.9,11.354ZM22.735,6.531h3.2L24.274,2.805Z" transform="translate(53.951 533.264)" fill="#154734"/>
  </g>
</svg>
