<svg id="Component_44_4" data-name="Component 44 – 4" xmlns="http://www.w3.org/2000/svg" width="168.371" height="88.057" viewBox="0 0 168.371 88.057">
  <g id="Component_35_13" data-name="Component 35 – 13" transform="translate(25.371 25.361)">
    <path id="Path_7" data-name="Path 7" d="M89.338,107.576v-6.615h1.507v6.615Zm29.289-2.476a2.7,2.7,0,1,1-2.7-2.593A2.572,2.572,0,0,1,118.627,105.1Zm-1.487,0a1.212,1.212,0,1,0-2.418,0,1.213,1.213,0,1,0,2.418,0Zm-28.406.569c0,1.124-.752,1.906-2.322,1.906H83.287v-6.615h3c1.559,0,2.258.794,2.258,1.759a1.48,1.48,0,0,1-.884,1.382A1.581,1.581,0,0,1,88.734,105.67Zm-3.876-2.046H86.1c.548,0,.835-.261.835-.71s-.333-.67-.835-.67H84.858Zm2.223,1.95c0-.445-.325-.72-.866-.72H84.858v1.441h1.358C86.783,106.294,87.081,106.008,87.081,105.574Zm14.769-1.714a2.388,2.388,0,0,0-2.356-1.345,2.462,2.462,0,0,0-2.613,2.583,2.655,2.655,0,0,0,4.959,1.267l-1.216-.628a1.236,1.236,0,1,1-1.111-1.933,1.125,1.125,0,0,1,1.081.7Zm22.21,0a2.387,2.387,0,0,0-2.355-1.345,2.462,2.462,0,0,0-2.613,2.583,2.655,2.655,0,0,0,4.959,1.267l-1.216-.628a1.236,1.236,0,1,1-1.112-1.933,1.126,1.126,0,0,1,1.082.7Zm-10.828,3.716h-1.8l-1.255-2.226h-.963v2.226h-1.556v-6.615h2.8c1.515,0,2.576.721,2.576,2.148a2.06,2.06,0,0,1-1.251,1.947Zm-1.8-4.423c0-.569-.332-.88-1.065-.88h-1.156v1.766h1.156C111.089,104.039,111.435,103.636,111.435,103.153Zm-14.787,3.3v1.037a2.448,2.448,0,0,1-.885.162,1.006,1.006,0,0,1-1.03-.613,2.228,2.228,0,0,1-1.631.65c-1.01,0-1.66-.517-1.66-1.5,0-.962.779-1.538,1.983-1.538a4.909,4.909,0,0,1,1.186.148v-.161c0-.547-.318-.876-.977-.876a1.892,1.892,0,0,0-1.2.478l-.832-.937a3.388,3.388,0,0,1,2.219-.779c1.425,0,2.285.686,2.285,1.969v1.715c0,.182.093.28.291.28A1.057,1.057,0,0,0,96.648,106.455Zm-2.038-.839a3.691,3.691,0,0,0-.845-.11c-.519,0-.777.255-.777.606,0,.332.228.572.695.572a.837.837,0,0,0,.927-.745Zm34.834,1.96-1.776-3.079,1.666-1.814h-1.675l-1.752,1.948v-3.67h-1.494v6.615h1.494v-1.19l.716-.766,1.121,1.956Zm-22.191,0-1.776-3.079,1.666-1.814h-1.694l-1.732,1.948v-3.67h-1.494v6.615h1.494v-1.19l.716-.766,1.121,1.956Zm-27.887-4.895-.878,3.206-1.077-3.206H75.79l1.99,4.941a.666.666,0,0,1-.706.4,1.089,1.089,0,0,1-.588-.183l-.544,1.036a2.016,2.016,0,0,0,1.178.364,2.19,2.19,0,0,0,2.177-1.775l1.622-4.784Zm-3.534,2.39a2.361,2.361,0,0,1-2.279,2.634,1.872,1.872,0,0,1-1.442-.574v.444H70.628v-6.614h1.525v2.061a2.026,2.026,0,0,1,1.434-.574A2.329,2.329,0,0,1,75.832,105.071Zm-1.523,0a1.154,1.154,0,0,0-1.156-1.31,1.267,1.267,0,0,0-1,.527v1.633a1.277,1.277,0,0,0,1.034.471C73.87,106.392,74.309,105.916,74.309,105.071Zm-3.68-30.809V69.828h5.6v4.434Zm0,20.077V76.209h5.6v18.13Zm99.8-7.621h-12.59c.234,1.925,1.666,3.389,4.421,3.389a6,6,0,0,0,4.489-1.837l3.359,3.43a10.2,10.2,0,0,1-7.823,3.121c-6.434,0-10.2-3.7-10.2-9.68,0-5.52,3.649-9.535,9.427-9.535,5.75,0,9.141,3.524,9.141,8.776A10.49,10.49,0,0,1,170.428,86.718Zm-5.383-3.475a3.278,3.278,0,0,0-3.534-3.223,3.474,3.474,0,0,0-3.668,3.223Zm14.932,11.578a12.514,12.514,0,0,1-8.661-3.105l3.2-3.441a8.031,8.031,0,0,0,5.441,2.179c1.954,0,2.8-.508,2.8-1.281,0-.59-.428-.923-1.5-1.245-.931-.28-2.4-.524-3.643-.887-2.691-.788-5.369-1.908-5.369-5.711,0-3.524,2.868-5.7,7.67-5.7a11.893,11.893,0,0,1,8.176,2.777l-3.238,3.363a7.2,7.2,0,0,0-4.981-1.853c-1.444,0-2.241.509-2.241,1.211,0,.588.423.932,1.514,1.284.945.305,2.513.6,3.757.951,2.586.727,5.262,1.827,5.262,5.435C188.172,92.865,184.748,94.821,179.977,94.821Zm-86.387-17.9a7.2,7.2,0,0,0-5.7-2.507c-2.365,0-3.6.85-3.6,2.062,0,1.641,1.87,2.211,5.433,3.214,3.931,1.107,8.392,2.356,8.392,7.534,0,5.226-4.3,7.57-9.745,7.57-4.594,0-8.341-1.31-10.751-4.565l4.2-3.47a7.825,7.825,0,0,0,6.495,3.024c2.938,0,4.012-1.035,4.012-2.129,0-1.606-1.7-2-5.827-3.147-4.24-1.181-7.926-2.815-7.926-7.813,0-4.4,3.607-7.271,9.5-7.271,3.729,0,7.179.994,9.657,4.072Zm56.343-1.061a3.634,3.634,0,0,1,2.831,1.186l-2.246,4.72a3.141,3.141,0,0,0-1.927-.616c-1.431,0-2.656,1.234-2.656,3.473v9.716h-5.671V76.209h5.56V78.75C146.819,77.022,148.089,75.86,149.933,75.86Zm-32.667,6.258V94.339h-5.6V84.091c0-1.967-1.053-3.17-2.918-3.17a2.948,2.948,0,0,0-3.137,3.246V94.339h-5.6V69.828h5.6v8.816a6.865,6.865,0,0,1,5.608-2.8C114.637,75.848,117.266,78.08,117.266,82.118Zm21.18,8.018v3.842a9.072,9.072,0,0,1-3.281.6,3.729,3.729,0,0,1-3.819-2.271,8.257,8.257,0,0,1-6.042,2.409c-3.742,0-6.149-1.915-6.149-5.555,0-3.567,2.885-5.7,7.345-5.7a18.227,18.227,0,0,1,4.393.547v-.594c0-2.026-1.179-3.247-3.619-3.247a7.012,7.012,0,0,0-4.45,1.773l-3.082-3.473a12.432,12.432,0,0,1,8.22-2.885c5.279,0,8.464,2.54,8.464,7.293v6.354a.936.936,0,0,0,1.077,1.038A3.972,3.972,0,0,0,138.446,90.135Zm-7.552-3.109a13.731,13.731,0,0,0-3.132-.406c-1.924,0-2.879.946-2.879,2.245,0,1.229.845,2.118,2.575,2.118,1.829,0,3.436-1.1,3.436-2.759Zm62.525,5.711a1.836,1.836,0,1,1-1.836-1.817A1.7,1.7,0,0,1,193.419,92.738Zm-.3,0a1.54,1.54,0,1,0-1.535,1.573A1.431,1.431,0,0,0,193.117,92.738Zm-1.165.213.349.641h-.369L191.612,93h-.4v.592h-.33V91.806h.758c.437,0,.67.223.67.573A.55.55,0,0,1,191.952,92.951Zm.019-.554a.288.288,0,0,0-.33-.311h-.428v.632h.379C191.835,92.719,191.972,92.641,191.972,92.4Z" transform="translate(-70.628 -69.422)"/>
  </g>
  <g id="Group_490" data-name="Group 490" transform="translate(0 0)" opacity="0">
    <path id="Path_407" data-name="Path 407" d="M93.591,76.921a7.2,7.2,0,0,0-5.7-2.507c-2.365,0-3.6.85-3.6,2.062,0,1.641,1.87,2.211,5.433,3.214,3.931,1.107,8.392,2.356,8.392,7.534,0,5.226-4.3,7.57-9.745,7.57-4.594,0-8.341-1.31-10.751-4.565l4.2-3.47a7.825,7.825,0,0,0,6.495,3.024c2.938,0,4.012-1.035,4.012-2.129,0-1.606-1.7-2-5.827-3.147-4.24-1.181-7.926-2.815-7.926-7.813,0-4.4,3.607-7.271,9.5-7.271,3.729,0,7.179.994,9.657,4.072Z" transform="translate(-44.257 -69.422)"/>
    <path id="Path_409" data-name="Path 409" d="M93.591,76.921a7.2,7.2,0,0,0-5.7-2.507c-2.365,0-3.6.85-3.6,2.062,0,1.641,1.87,2.211,5.433,3.214,3.931,1.107,8.392,2.356,8.392,7.534,0,5.226-4.3,7.57-9.745,7.57-4.594,0-8.341-1.31-10.751-4.565l4.2-3.47a7.825,7.825,0,0,0,6.495,3.024c2.938,0,4.012-1.035,4.012-2.129,0-1.606-1.7-2-5.827-3.147-4.24-1.181-7.926-2.815-7.926-7.813,0-4.4,3.607-7.271,9.5-7.271,3.729,0,7.179.994,9.657,4.072Z" transform="translate(28.743 -18.422)"/>
    <path id="Path_412" data-name="Path 412" d="M93.591,76.921a7.2,7.2,0,0,0-5.7-2.507c-2.365,0-3.6.85-3.6,2.062,0,1.641,1.87,2.211,5.433,3.214,3.931,1.107,8.392,2.356,8.392,7.534,0,5.226-4.3,7.57-9.745,7.57-4.594,0-8.341-1.31-10.751-4.565l4.2-3.47a7.825,7.825,0,0,0,6.495,3.024c2.938,0,4.012-1.035,4.012-2.129,0-1.606-1.7-2-5.827-3.147-4.24-1.181-7.926-2.815-7.926-7.813,0-4.4,3.607-7.271,9.5-7.271,3.729,0,7.179.994,9.657,4.072Z" transform="translate(28.743 -6.736)"/>
    <path id="Path_411" data-name="Path 411" d="M93.591,76.921a7.2,7.2,0,0,0-5.7-2.507c-2.365,0-3.6.85-3.6,2.062,0,1.641,1.87,2.211,5.433,3.214,3.931,1.107,8.392,2.356,8.392,7.534,0,5.226-4.3,7.57-9.745,7.57-4.594,0-8.341-1.31-10.751-4.565l4.2-3.47a7.825,7.825,0,0,0,6.495,3.024c2.938,0,4.012-1.035,4.012-2.129,0-1.606-1.7-2-5.827-3.147-4.24-1.181-7.926-2.815-7.926-7.813,0-4.4,3.607-7.271,9.5-7.271,3.729,0,7.179.994,9.657,4.072Z" transform="translate(28.743 -6.736)"/>
    <path id="Path_408" data-name="Path 408" d="M93.591,76.921a7.2,7.2,0,0,0-5.7-2.507c-2.365,0-3.6.85-3.6,2.062,0,1.641,1.87,2.211,5.433,3.214,3.931,1.107,8.392,2.356,8.392,7.534,0,5.226-4.3,7.57-9.745,7.57-4.594,0-8.341-1.31-10.751-4.565l4.2-3.47a7.825,7.825,0,0,0,6.495,3.024c2.938,0,4.012-1.035,4.012-2.129,0-1.606-1.7-2-5.827-3.147-4.24-1.181-7.926-2.815-7.926-7.813,0-4.4,3.607-7.271,9.5-7.271,3.729,0,7.179.994,9.657,4.072Z" transform="translate(94.793 -50.181) rotate(90)"/>
    <path id="Path_410" data-name="Path 410" d="M93.591,76.921a7.2,7.2,0,0,0-5.7-2.507c-2.365,0-3.6.85-3.6,2.062,0,1.641,1.87,2.211,5.433,3.214,3.931,1.107,8.392,2.356,8.392,7.534,0,5.226-4.3,7.57-9.745,7.57-4.594,0-8.341-1.31-10.751-4.565l4.2-3.47a7.825,7.825,0,0,0,6.495,3.024c2.938,0,4.012-1.035,4.012-2.129,0-1.606-1.7-2-5.827-3.147-4.24-1.181-7.926-2.815-7.926-7.813,0-4.4,3.607-7.271,9.5-7.271,3.729,0,7.179.994,9.657,4.072Z" transform="translate(237.793 -48.181) rotate(90)"/>
  </g>
</svg>

