<svg xmlns="http://www.w3.org/2000/svg" width="326.237" height="344.805" xmlns:v="https://vecta.io/nano"><path d="M82.222 21.114c-3.164-6.487-6.525-14.418-4.573-15.37s6.132 6.58 9.3 13.067l1.845 3.781c3.261 6.685 6.618 12.3 8.165 13.659 13.776 12.091 37.979 61.8 68.621 124.735q3.682 7.562 7.471 15.336c35.4 72.58 70.447 147.419 62.109 152.358-9.025 3.529-46.421-70.165-81.822-142.744q-3.794-7.777-7.5-15.35C115.115 107.704 90.849 58.042 89.802 39.742c-.117-2.054-2.476-8.158-5.736-14.843l-1.844-3.781m157.5 316.937c-3.619 1.747-7.285.882-11.925-.213-5.57-1.314-12.5-2.949-23.054-1.439-31.42 4.5-65.022-2.081-94.616-18.518-30.817-17.117-55.52-43.408-71.438-76.031-31.781-65.13-22.251-140.757 23.713-188.188a16.37 16.37 0 0 0 3.924-7.42 16.48 16.48 0 0 0-1.249-10.731 509 509 0 0 0-1.171-2.432l-.562-1.166a16.55 16.55 0 0 1-1.69-5.827c-.092-1.891.135-3.784.671-5.6a22.7 22.7 0 0 1 6.626-9.936c-7.031 4.636-13.956 11.821-9.219 21.535l1.844 3.781c3.322 6.813 1.618 15.01-4.144 19.934-56.854 48.642-73.62 129.575-40.769 196.8 16.524 33.693 44.055 60.736 78.039 76.653 33.413 15.685 71.144 19.625 107.076 11.18a62.79 62.79 0 0 1 26.49-.88c4.82.718 8.3 1.238 11.936-.534s5.368-4.836 7.769-9.077a62.8 62.8 0 0 1 17-20.332c28.777-23.116 48.902-55.274 57.113-91.26 8.375-36.581 4.01-74.926-12.373-108.689C276.964 42.393 202.867 5.779 129.536 20.632c-7.428 1.509-14.937-2.195-18.26-9.007l-1.844-3.782c-4.738-9.714-14.664-8.68-22.646-5.994a22.7 22.7 0 0 1 11.909.9 16.85 16.85 0 0 1 4.829 2.922c1.477 1.407 2.68 3.075 3.551 4.919l.573 1.16 1.2 2.42c1.637 3.322 4.345 5.996 7.687 7.591a16.37 16.37 0 0 0 8.263 1.476c65.674-7.019 131.137 32.033 162.894 97.174 15.907 32.629 21.416 68.281 15.932 103.1-5.267 33.44-20.772 63.968-43.659 85.959-7.687 7.386-10.666 13.855-13.059 19.052-1.994 4.331-3.569 7.752-7.174 9.528m-3.379-6.883c-2.926 1.281-6.486-1.916-11.874-6.755-2.516-2.259-5.368-4.821-8.785-7.529-27.337-21.66-61.049-68.555-85.886-119.47-29.616-60.715-47.416-119.434-45.347-149.592a36.7 36.7 0 0 0 0-3.82c-.035-1.029-.068-2-.023-2.941.08-1.646-.789-4.779-2.325-8.382-.307-.721-.93-2.112-1.292-2.889a77.92 77.92 0 0 1-5.275-14.591c-1-3.7-1.01-6.011-.6-7.486-1.252 1.514-2.147 4.128-1.326 9.005a45.8 45.8 0 0 0 3.251 12.513l.628 1.354 1.127 2.47c1.618 3.747 2.39 7.171 2.117 9.393-.078.63-.131 1.28-.186 1.939a22.82 22.82 0 0 1-.825 5.116c-11.867 37.125-.859 99.4 28.048 158.653 31.677 64.932 76.635 101.383 105.51 112.869 4.825 2.005 9.427 4.508 13.732 7.468 4.408 2.87 7.321 4.764 9.818 3.638 2.425-1.273 2.726-4.736 3.178-9.976.318-5.215 1.179-10.383 2.569-15.419 8.724-29.825 7.679-87.693-23.985-152.633-28.9-59.26-71.192-106.273-107.753-119.778-1.603-.658-3.126-1.497-4.539-2.5l-1.643-1.047c-1.919-1.154-4.141-3.87-6.1-7.452-.232-.424-.839-1.6-1.253-2.409l-.68-1.328a45.79 45.79 0 0 0-7.859-10.266c-3.339-3.649-5.949-4.553-7.913-4.5 1.413.588 3.225 2.017 5.528 5.084a77.92 77.92 0 0 1 8.251 13.14l1.481 2.8c1.894 3.428 3.828 6.042 5.173 6.992.768.542 1.515 1.167 2.3 1.829a36.73 36.73 0 0 0 3.013 2.349c25.038 16.936 60.351 67.113 89.961 127.832 24.833 50.916 41.033 106.352 41.274 141.23.03 4.359.293 8.184.524 11.558.5 7.225.823 12-1.988 13.516m1.659 3.457c-3.122 1.459-6.383-.1-10.9-2.253-5.297-2.766-10.996-4.68-16.888-5.672-22.3-3.4-46.516-15.025-68.18-32.745-23.485-19.209-43.481-44.9-57.827-74.307C54.695 159.066 50.443 92.756 73.418 50.7c.961-2.034 1.586-4.21 1.852-6.443l.109-.616c.439-2.465-.212-5.945-1.786-9.546-.128-.293-.68-1.47-1.089-2.339l-.424-.9a18.19 18.19 0 0 1-1.778-5.13 31.29 31.29 0 0 0-.124-.793c-.279-1.692-.567-6.844-.556-8.034-.061-2.555.619-5.073 1.957-7.251-1.856 1.688-3.221 3.845-3.951 6.245a20.44 20.44 0 0 0-.817 9.934c.292 1.809.852 3.564 1.661 5.208l.526 1.109 1.1 2.326c1.622 3.302 2.171 7.028 1.57 10.657a19.46 19.46 0 0 1-3.092 7.559c-34.451 45.253-36.948 115-6.358 177.693 29.777 61.029 88.157 101.351 145.272 100.336 9.062-.161 15.269 1.968 20.256 3.677 4.475 1.534 7.709 2.642 10.768 1.19 3.028-1.517 4.146-4.746 5.692-9.217 1.723-4.983 3.867-11.184 9.573-18.226 35.968-44.389 40.137-115.218 10.378-176.255-30.57-62.7-87.069-103.676-143.939-104.388a19.46 19.46 0 0 1-7.86-2.217c-3.23-1.761-5.828-4.489-7.431-7.8-.094-.176-.69-1.368-1.155-2.3l-.55-1.1c-.797-1.65-1.836-3.171-3.082-4.515a20.44 20.44 0 0 0-8.331-5.472c-2.341-.902-4.881-1.155-7.354-.732 2.54.286 4.942 1.301 6.918 2.922.945.724 4.828 4.123 5.989 5.385l.549.586a18.19 18.19 0 0 1 2.948 4.56l.452.891 1.173 2.3c1.868 3.457 4.209 6.112 6.422 7.284l.553.294a20.86 20.86 0 0 0 6.217 2.508c47.284 7.789 96.921 51.962 126.456 112.535 14.338 29.408 22.275 60.984 22.953 91.317.626 27.98-5.118 54.22-16.173 73.886-2.846 5.254-4.846 10.924-5.928 16.8-1.081 4.885-1.862 8.412-4.934 9.974" fill="#662049"/></svg>