<svg xmlns="http://www.w3.org/2000/svg" width="447.561" height="466.622" xmlns:v="https://vecta.io/nano"><path d="M152.549 39.022c-2.69-8.279-5.374-18.317-2.882-19.126s6.223 8.89 8.909 17.168l1.569 4.826c2.772 8.533 5.84 15.805 7.459 17.685 14.426 16.755 34.99 80.193 61.025 160.51q3.129 9.651 6.35 19.574c30.1 92.637 59.399 187.912 48.61 192.413-11.372 2.701-43.669-91.603-73.771-184.238q-3.226-9.926-6.376-19.593c-26.14-80.267-46.789-143.666-44.966-165.699.205-2.474-1.587-10.16-4.36-18.689l-1.569-4.826m134.927 405.005c-4.616 1.48-8.85-.169-14.208-2.256-6.432-2.505-14.437-5.621-27.295-5.589-38.286.097-77.316-13.401-109.906-38.003-33.937-25.618-59.029-61.169-72.567-102.809-27.028-83.131-2.949-171.865 59.913-220.804 2.657-2.173 4.702-5 5.933-8.204a19.88 19.88 0 0 0 .315-13.026c-.037-.125-.577-1.811-.99-3.102l-.476-1.487c-.79-2.33-1.143-4.785-1.041-7.243a20.34 20.34 0 0 1 1.742-6.581 27.38 27.38 0 0 1 9.582-10.755c-9.177 4.357-18.655 11.777-14.627 24.176l1.569 4.826c2.824 8.696-.588 18.201-8.298 23.115C41.049 124.848 7.436 218.7 35.386 304.51c14.076 43.022 42.418 79.949 80.336 104.671a197.57 197.57 0 0 0 126.022 31.33 75.74 75.74 0 0 1 31.789 3.396c5.637 1.668 9.71 2.872 14.349 1.366s7.219-4.877 10.803-9.538c6.292-8.75 14.379-16.057 23.721-21.432a197.57 197.57 0 0 0 83.543-99.42c16.145-42.289 17.369-88.822 3.469-131.901C381.591 97.129 299.231 40.956 209.144 46.389c-9.125.555-17.472-5.129-20.298-13.823l-1.569-4.826c-4.029-12.398-16.059-12.83-26.043-10.961 4.881-.251 9.741.808 14.074 3.07a20.33 20.33 0 0 1 5.278 4.3 19.97 19.97 0 0 1 3.415 6.472l.489 1.483 1.023 3.091a19.88 19.88 0 0 0 7.907 10.357c2.879 1.868 6.195 2.954 9.621 3.15 79.624 2.64 151.259 60.275 178.258 143.414 13.524 41.644 14.118 85.155 1.722 125.828-11.905 39.058-35.549 72.92-66.58 95.346-10.421 7.532-15.063 14.759-18.797 20.565-3.109 4.838-5.559 8.661-10.168 10.177m-2.88-8.786c-3.71 1.039-7.425-3.377-13.05-10.062-2.626-3.121-5.603-6.66-9.233-10.468-29.017-30.462-61.413-92.135-82.536-157.121-25.183-77.494-36.588-150.62-29.056-186.295a44.27 44.27 0 0 0 .646-4.562c.131-1.235.255-2.403.467-3.517.375-1.952-.14-5.84-1.366-10.401a149.84 149.84 0 0 0-1.058-3.667c-1.89-5.961-3.18-12.097-3.851-18.314-.566-4.592-.197-7.349.536-9.043-1.749 1.598-3.257 4.57-3.096 10.534-.141 5.223.459 10.439 1.783 15.493l.522 1.722.931 3.14c1.303 4.748 1.65 8.966.952 11.575-.199.74-.371 1.507-.547 2.285a27.53 27.53 0 0 1-1.844 5.972c-20.408 42.353-17.713 118.589 6.869 194.213 26.937 82.876 74.519 133.964 107.081 152.53a90.61 90.61 0 0 1 15.156 11.222c4.784 4.167 7.945 6.92 11.116 5.992 3.11-1.114 4.051-5.199 5.47-11.382 1.255-6.176 3.152-12.205 5.658-17.988 15.429-34.158 23.896-103.456-3.026-186.338-24.566-75.632-67.199-138.891-108.603-161.16-1.804-1.055-3.482-2.313-5.002-3.748l-1.786-1.526c-2.098-1.7-4.302-5.318-6.033-9.924-.206-.545-.732-2.056-1.092-3.088l-.59-1.699c-1.9-4.867-4.48-9.44-7.664-13.582-3.375-4.918-6.342-6.437-8.696-6.702 1.585.939 3.514 2.951 5.75 7.001 3.112 5.425 5.674 11.147 7.649 17.081l1.3 3.589c1.686 4.413 3.558 7.86 5.005 9.22.827.777 1.613 1.649 2.445 2.571a44.3 44.3 0 0 0 3.212 3.305c27.063 24.432 60.825 90.296 85.997 167.792 21.107 64.992 31.152 133.928 25.579 175.628-.696 5.212-1.024 9.825-1.314 13.893-.619 8.714-1.031 14.47-4.645 15.807m1.4 4.408c-3.974 1.219-7.609-1.187-12.638-4.521-4.734-3.135-10.624-7.037-19.22-9.61-26.068-7.804-53.04-25.755-75.941-50.561-24.828-26.887-44.398-60.936-56.598-98.465-25.127-77.304-19.071-157.222 15.429-203.6 1.489-2.268 2.601-4.762 3.294-7.385l.233-.718c.939-2.871.745-7.137-.531-11.702-.103-.372-.566-1.87-.907-2.977l-.354-1.151c-.74-2.067-1.166-4.233-1.263-6.426.002-.246-.006-.582-.014-.968-.05-2.067.472-8.27.684-9.69.356-3.062 1.59-5.956 3.554-8.332-2.5 1.704-4.492 4.053-5.767 6.797a24.65 24.65 0 0 0-2.643 11.728c.044 2.209.417 4.4 1.106 6.499l.443 1.413.926 2.964c1.379 4.845 1.41 9.459.086 12.992a23.47 23.47 0 0 1-4.963 8.51C82.205 122.699 67.514 205.591 93.527 285.61c25.322 77.896 88.286 135.859 156.679 144.234 10.852 1.329 17.908 4.913 23.578 7.792 5.09 2.585 8.766 4.45 12.662 3.229 3.872-1.303 5.748-4.973 8.347-10.054 2.894-5.662 6.497-12.709 14.494-20.163 50.412-46.968 67.281-130.871 41.981-208.774C325.28 121.847 264.67 63.42 196.857 53.022a23.47 23.47 0 0 1-9.017-3.967c-3.148-2.08-5.835-5.831-7.568-10.562-.083-.227-.594-1.751-.993-2.941l-.472-1.403c-.675-2.104-1.661-4.096-2.923-5.91-2.31-3.35-5.413-6.075-9.033-7.934-2.644-1.471-5.637-2.199-8.661-2.109 2.986.768 5.685 2.384 7.773 4.652 1.007 1.024 5.074 5.735 6.25 7.437l.557.792a21.94 21.94 0 0 1 2.756 5.941l.39 1.139 1.015 2.942c1.651 4.443 4.001 8.008 6.449 9.779l.611.443c2.102 1.715 4.468 3.079 7.006 4.039 55.171 17.246 107.045 78.336 132.155 155.646 12.19 37.533 16.369 76.581 12.087 112.927-3.949 33.527-15.216 63.904-31.722 85.54-5.44 7.133-7.913 13.754-9.901 19.072-2.107 5.654-3.636 9.736-7.567 11.086" fill="#662049"/></svg>