<svg xmlns="http://www.w3.org/2000/svg" width="37.362" height="28" xmlns:v="https://vecta.io/nano"><path d="M21.844 13.567v.173a1.46 1.46 0 0 0 .891 1.348l1.179.355c.413.144.818.311 1.213.5a2.33 2.33 0 0 1-1.117-1.973v-.148c0-3.915-.458-9.191-2.64-12.093a4.9 4.9 0 0 0-1.821-1.56 2.33 2.33 0 0 0-.247-.1 5.46 5.46 0 0 1 .557.152c.95.328 1.815.864 2.531 1.569a10.57 10.57 0 0 1 2.532 4.188c.829 2.618 1.219 5.355 1.153 8.1q0 .5-.015.978c-.023.728.257 1.433.772 1.947.238.19.463.397.674.617a5.9 5.9 0 0 1 .867 1.168 3.21 3.21 0 0 1-.291-1.724 24.9 24.9 0 0 0 .162-2.731 20.47 20.47 0 0 0-1.49-8.284 10.71 10.71 0 0 0-3.28-4.282C22.452.991 21.281.434 20.033.133a12.46 12.46 0 0 1 4.468 1.7 11.33 11.33 0 0 1 3.99 4.336c1.283 2.616 1.906 5.506 1.815 8.418a17.26 17.26 0 0 1-.6 4.677q-.143.508-.32.99a4.12 4.12 0 0 0-.255 1.485v.128c.016 1.067-.343 2.107-1.014 2.937a11.07 11.07 0 0 0 2.387-2.616 13.26 13.26 0 0 0 1.97-7.365 16.17 16.17 0 0 0-2.155-8.606c-1.161-1.87-2.797-3.398-4.742-4.429-1.452-.772-3.014-1.317-4.632-1.615a20.36 20.36 0 0 1 5.605 1.656l.06.027q.643.306 1.237.657l.173-.246a5.9 5.9 0 0 1 .174-.2C29.399.606 31.38.039 33.176.64a6.77 6.77 0 0 1 1.679.82 4.07 4.07 0 0 0-1.122-.393c-1.036-.2-2.635-.041-4.367 1.812-.125.134-.239.267-.344.4.052.038.1.075.156.113a13.77 13.77 0 0 1 .588.482q.218.186.429.383.2-.24.426-.487c.9-.965 2.267-2.124 3.645-2.164a2.08 2.08 0 0 1 1.111.265c-.364-.008-1.341.3-3.589 2.707-.224.24-.429.468-.618.687a14.09 14.09 0 0 1 1.141 1.491 23.78 23.78 0 0 0 .837-.851c2.272-2.43 2.513-3.437 2.482-3.8a2.08 2.08 0 0 1 .334 1.106c.045 1.386-1.021 2.827-1.923 3.793a8.8 8.8 0 0 1-1.03.943c.218.44.411.892.579 1.354.537-.287 1.022-.664 1.432-1.115a4.9 4.9 0 0 0 1.52-4.484 4.1 4.1 0 0 0-.481-1.123 6.8 6.8 0 0 1 .949 1.644c.722 1.752.288 3.767-1.089 5.067-.517.585-1.196 1.002-1.952 1.198a16.07 16.07 0 0 1 .423 2.163 19.2 19.2 0 0 1 .15 2.427c0 .148 0 .294-.007.44a15.74 15.74 0 0 1-1.414 5.613c-.248.456-.53.894-.844 1.308a12.36 12.36 0 0 1-4.983 3.78 18.94 18.94 0 0 1-3.829 1.189 20.62 20.62 0 0 1-3.624.581l.285-.041-.286.023c.352-.047.773-.116 1.234-.216l-.3.024a17.09 17.09 0 0 0 .587-.089 12.68 12.68 0 0 0 1.679-.521 7.59 7.59 0 0 0 2.918-1.91c.882-.981 1.357-2.261 1.329-3.58v-.273-.108c0-.036 0-.081-.006-.122q-.013-.205-.036-.4v-.028a6.2 6.2 0 0 0-1.289-3.2l-.068-.083a6.7 6.7 0 0 0-1.576-1.375c-.112-.071-.509-.3-.595-.346q-.34-.179-.71-.335a11.09 11.09 0 0 0-1.57-.519c-.089-.023-.266-.061-.472-.1-.081-.017-.159-.04-.236-.07l-.172-.033.14.02a1.48 1.48 0 0 1-.908-1.364v-.013c0-11.051-.72-12.978-.964-13.314.311.088.909.526 1.465 1.751 1.279 2.833 1.554 7.983 1.554 11.8zM17.08 1.751c-1.292 2.849-1.563 8-1.563 11.816v.173a1.46 1.46 0 0 1-1.075 1.413c-.33.089-.665.191-1 .308l-.062.023-.5.192q-.426.173-.815.368c-.042.021-.018.008.006 0a2.35 2.35 0 0 0 1.278-2.069v-.148c0-3.915.458-9.191 2.639-12.093A4.9 4.9 0 0 1 17.81.174c.088-.041.171-.074.247-.1-.188.041-.373.092-.556.152-.95.326-1.815.859-2.532 1.562-1.16 1.179-2.028 2.613-2.533 4.188-.829 2.618-1.218 5.355-1.152 8.1q0 .5.015.978a2.64 2.64 0 0 1-.932 2.1 6.72 6.72 0 0 0-.516.486 6.13 6.13 0 0 0-.421.495 5.72 5.72 0 0 0-.5.769v.008c-.03.056-.042.076-.018.03l.02-.038a3.23 3.23 0 0 0 .344-1.838c-.105-.907-.159-1.818-.163-2.731a20.48 20.48 0 0 1 1.49-8.284c.71-1.684 1.839-3.158 3.28-4.282A9.3 9.3 0 0 1 17.324.135c-1.585.273-3.102.85-4.468 1.7-1.69 1.068-3.067 2.564-3.991 4.336a17.85 17.85 0 0 0-1.815 8.418 17.27 17.27 0 0 0 .6 4.677q.142.508.32.99a4.1 4.1 0 0 1 .255 1.485v.128c-.016 1.068.344 2.107 1.015 2.937a11.08 11.08 0 0 1-2.387-2.616 13.26 13.26 0 0 1-1.97-7.365c-.098-3.013.649-5.994 2.155-8.606A12.44 12.44 0 0 1 11.78 1.79 16.07 16.07 0 0 1 16.413.175c-1.939.28-3.827.837-5.606 1.656l-.059.027q-.644.306-1.237.657c-.055-.082-.112-.164-.173-.246-.055-.066-.113-.132-.174-.2C7.959.608 5.978.04 4.182.642a6.76 6.76 0 0 0-1.679.82c.352-.185.73-.318 1.121-.393 1.037-.2 2.635-.041 4.367 1.812.125.134.239.267.344.4l-.156.113c-.2.154-.392.314-.587.482q-.218.186-.429.383-.2-.24-.426-.487c-.9-.965-2.267-2.124-3.645-2.164-.388-.017-.773.075-1.111.265.364-.008 1.341.3 3.589 2.707.224.24.429.468.618.687-.413.471-.794.969-1.14 1.491-.263-.253-.542-.535-.838-.851-2.272-2.43-2.512-3.437-2.482-3.8-.213.33-.329.713-.334 1.106-.045 1.386 1.021 2.827 1.923 3.793a8.73 8.73 0 0 0 1.031.943 13.27 13.27 0 0 0-.58 1.354c-.537-.287-1.022-.665-1.432-1.115A4.9 4.9 0 0 1 .817 3.704a4.1 4.1 0 0 1 .481-1.123 6.8 6.8 0 0 0-.95 1.644C-.373 5.977.06 7.991 1.437 9.292c.518.584 1.2.999 1.956 1.193-.19.711-.331 1.433-.423 2.163a19.34 19.34 0 0 0-.149 2.427 9.18 9.18 0 0 0 .007.44c.12 1.942.599 3.846 1.414 5.613a10.36 10.36 0 0 0 .844 1.308 12.36 12.36 0 0 0 4.983 3.78c1.23.531 2.514.929 3.828 1.189 1.189.301 2.402.495 3.625.581a15.99 15.99 0 0 1-1.372-.247l.438.036c-.242-.032-.529-.077-.846-.136-.482-.123-.956-.275-1.42-.456-1.108-.401-2.107-1.055-2.918-1.91q-.172-.192-.323-.4a5.23 5.23 0 0 1-1.012-3.185 8.21 8.21 0 0 1 .053-.939 6.2 6.2 0 0 1 1.291-3.217c.022-.028.045-.055.068-.083a6.71 6.71 0 0 1 1.576-1.375c.112-.071.51-.3.6-.346q.34-.179.711-.335c.51-.212 1.034-.386 1.57-.519a8.43 8.43 0 0 1 .471-.1 1.48 1.48 0 0 0 1.176-1.448v-.013c0-11.051.719-12.978.963-13.314-.313.089-.913.527-1.468 1.752zm-.84 13.6a4.73 4.73 0 0 1 1.562-.746c-.864.131-1.7.404-2.475.806a5.93 5.93 0 0 0-2.273 2.071c-.72 1.212-1.079 2.606-1.033 4.015a5.93 5.93 0 0 0 3.281 5.488c.916.48 1.903.81 2.923.976a6.19 6.19 0 0 1-1.986-1.057c-1.63-1.379-2.51-3.449-2.373-5.58.003-1.936.413-4.536 2.374-5.969zm1.921 11.286a25.4 25.4 0 0 1-.5-5.658c0-5.044.553-6.18.8-6.436a2.3 2.3 0 0 0-1.25.837c-1.15 1.387-1.392 3.9-1.392 5.772-.088 1.962.407 3.905 1.422 5.586a3.8 3.8 0 0 0 1.386 1.258 5.24 5.24 0 0 1-.465-1.355zm1.957.1c1.015-1.681 1.51-3.624 1.422-5.586 0-1.87-.242-4.391-1.4-5.776-.31-.409-.749-.703-1.246-.833.244.255.8 1.391.8 6.436.045 1.899-.123 3.797-.5 5.658-.092.472-.249.93-.466 1.359a3.8 3.8 0 0 0 1.391-1.253zm1 .166c-.592.471-1.265.829-1.986 1.057a9.62 9.62 0 0 0 2.923-.976 5.93 5.93 0 0 0 3.282-5.488 7.4 7.4 0 0 0-1.034-4.016 5.93 5.93 0 0 0-2.274-2.071c-.775-.4-1.611-.67-2.474-.8.562.15 1.092.403 1.563.746 1.961 1.431 2.372 4.038 2.372 5.974.137 2.13-.742 4.199-2.371 5.579z" fill="#fff4c0"/></svg>