<?xml version="1.0" encoding="UTF-8"?>
<svg id="Layer_1" xmlns="http://www.w3.org/2000/svg" xmlns:xlink="http://www.w3.org/1999/xlink" version="1.1" viewBox="0 0 307.2 163.9">
  <!-- Generator: Adobe Illustrator 29.6.0, SVG Export Plug-In . SVG Version: 2.1.1 Build 207)  -->
  <defs>
    <style>
      .st0 {
        fill: none;
      }

      .st1 {
        fill: #fff;
      }

      .st2 {
        clip-path: url(#clippath);
      }
    </style>
    <clipPath id="clippath">
      <rect class="st0" width="307.2" height="163.9"/>
    </clipPath>
  </defs>
  <g class="st2">
    <path class="st1" d="M5.2,156.3l3.2-8.9h0l3.2,8.9h-6.5ZM0,163.6h5.4v-1h-2.4l1.9-5.2h7.3l1.9,5.2h-2.4v1h5.4v-1h-1.5l-6.1-16.3h-1.7l-6.1,16.3H0v1ZM22.1,147.3h3c4.1,0,6.7,3.2,6.7,7.6s-2.6,7.7-6.7,7.7h-3v-15.3ZM18.4,163.6h6.8c5.2,0,8-3.5,8-8.7s-2.8-8.7-8-8.7h-6.8v1h2.4v15.3h-2.4v1ZM33.5,147.3h1.5l5.8,16.3h1.6l5.8-16.3h1.5v-1h-5.6v1h2.6l-5.1,14.9h0l-5.1-14.9h2.6v-1h-5.6v1ZM51.1,163.6h12.8v-5.4h-1.2v4.4h-7.9v-7.4h4.2v3h1.2v-6.9h-1.2v2.8h-4.2v-6.9h7.8v4.1h1.2v-5.1h-12.7v1h2.4v15.3h-2.4v1ZM68.4,162.6h-2.4v1h6.1v-1h-2.4v-15.3h0l8.7,16.3h2v-16.3h2.1v-1h-5.8v1h2.4v14.9h0l-8.5-15.9h-4.7v1h2.4v15.3ZM90.3,162.6h-2.9v1h7v-1h-2.9v-15.2h4.8v4.2h1.2v-5.4h-13.3v5.4h1.2v-4.2h4.8v15.2ZM99.2,147.3h1.8v10.1c0,3.9,1.6,6.5,5.9,6.5s5.9-2.6,5.9-6.5v-10.1h1.8v-1h-5.8v1h2.6v10.1c0,3.8-1.9,5.5-4.6,5.5s-4.6-1.7-4.6-5.5v-10.1h2.6v-1h-5.8v1ZM116.3,163.6h6.1v-1h-2.4v-7h2.9c2.4,0,3,.9,4,5.1l.7,2.9h2.9v-1h-1.7l-1.1-3.8c-.6-2.1-1.1-3.3-2.6-3.6h0c1.8-.3,3.3-1.9,3.3-4.1s-1.4-4.8-4.9-4.8h-7.3v1h2.4v15.3h-2.4v1ZM120,147.3h3c3,0,4.1,1.4,4.1,3.8s-.8,3.5-3.9,3.5h-3.2v-7.3ZM132.1,163.6h12.8v-5.4h-1.2v4.4h-7.9v-7.4h4.2v3h1.2v-6.9h-1.2v2.8h-4.2v-6.9h7.8v4.1h1.2v-5.1h-12.7v1h2.4v15.3h-2.4v1ZM156.8,148.3h0c-.6-1.3-2-2.4-4.1-2.4s-4.7,1.8-4.7,4.7c0,5.6,9,3.5,9,8.3s-1.4,3.9-3.8,3.9-3.9-2.3-4-5.2h-1.2v6h1.2v-2.4h0c.6,1.9,2.3,2.7,4.5,2.7s4.7-2.2,4.7-4.9c0-6.2-9-3.6-9-8.5s1.3-3.5,3.4-3.5,3.9,1.9,4,5.1h1.2v-5.9h-1.2v2.1ZM175.3,148.3h0c-.6-1.3-2-2.4-4.1-2.4s-4.7,1.8-4.7,4.7c0,5.6,9,3.5,9,8.3s-1.4,3.9-3.8,3.9-3.9-2.3-4-5.2h-1.2v6h1.2v-2.4h0c.6,1.9,2.3,2.7,4.5,2.7s4.7-2.2,4.7-4.9c0-6.2-9-3.6-9-8.5s1.3-3.5,3.4-3.5,3.9,1.9,4,5.1h1.2v-5.9h-1.2v2.1ZM184.6,162.6h-2.9v1h7v-1h-2.9v-15.2h4.8v4.2h1.2v-5.4h-13.3v5.4h1.2v-4.2h4.8v15.2ZM196.8,156.3l3.2-8.9h0l3.2,8.9h-6.5ZM191.6,163.6h5.4v-1h-2.4l1.9-5.2h7.3l1.9,5.2h-2.4v1h5.4v-1h-1.5l-6.1-16.3h-1.7l-6.1,16.3h-1.5v1ZM210.1,163.6h6.1v-1h-2.4v-7h2.9c2.4,0,3,.9,4,5.1l.7,2.9h2.9v-1h-1.7l-1.1-3.8c-.6-2.1-1.1-3.3-2.6-3.6h0c1.8-.3,3.3-1.9,3.3-4.1s-1.4-4.8-4.9-4.8h-7.3v1h2.4v15.3h-2.4v1ZM213.8,147.3h3c3,0,4.1,1.4,4.1,3.8s-.8,3.5-3.9,3.5h-3.2v-7.3ZM231,162.6h-2.9v1h7v-1h-2.9v-15.2h4.8v4.2h1.2v-5.4h-13.3v5.4h1.2v-4.2h4.8v15.2ZM255.8,163.6h6.2v-1h-2.4v-15.3h2.4v-1h-6.2v1h2.4v6.9h-9v-6.9h2.4v-1h-6.1v1h2.4v15.3h-2.4v1h6.1v-1h-2.4v-7.2h9v7.2h-2.4v1ZM263.6,163.6h12.8v-5.4h-1.2v4.4h-7.9v-7.4h4.2v3h1.2v-6.9h-1.2v2.8h-4.2v-6.9h7.8v4.1h1.2v-5.1h-12.7v1h2.4v15.3h-2.4v1ZM278.5,163.6h6.1v-1h-2.4v-7h2.9c2.4,0,3,.9,4,5.1l.7,2.9h2.9v-1h-1.7l-1.1-3.8c-.6-2.1-1.1-3.3-2.6-3.6h0c1.8-.3,3.3-1.9,3.3-4.1s-1.4-4.8-4.9-4.8h-7.3v1h2.4v15.3h-2.4v1ZM282.2,147.3h3c3,0,4.1,1.4,4.1,3.8s-.8,3.5-3.8,3.5h-3.2v-7.3ZM294.4,163.6h12.8v-5.4h-1.2v4.4h-7.9v-7.4h4.2v3h1.2v-6.9h-1.2v2.8h-4.2v-6.9h7.8v4.1h1.2v-5.1h-12.7v1h2.4v15.3h-2.4v1Z"/>
    <polygon class="st1" points="182.4 82.8 154.8 0 127.2 82.8 106.5 20.7 92.7 20.7 127.2 124.2 154.8 41.4 182.4 124.2 216.9 20.7 203.1 20.7 182.4 82.8"/>
    <path class="st1" d="M87.2,69.4h-15.2v13.1h10.7v5.7c-2.9,2.5-6.6,4-10.7,4-9,0-16.3-7.3-16.3-16.2s7.3-16.2,16.3-16.2,7.8,1.5,10.7,4l5.7-12.1c-4.7-3.1-10.3-5-16.3-5-16.2,0-29.3,13.1-29.3,29.3s13.1,29.3,29.3,29.3,18.5-4.8,23.8-12.2v-23.7h-8.6Z"/>
    <path class="st1" d="M230.6,61.4h16.7s0,0,0,0c3.6,0,6.6,2.9,6.6,6.6s-2.9,6.5-6.4,6.6h-16.8v-13.1ZM267,68c0-10.9-8.8-19.7-19.7-19.7h-29.8v55.2h13.1v-15.9h14.6l7.4,15.9h14.3l-8.9-19.1c5.4-3.5,8.9-9.6,8.9-16.5"/>
  </g>
</svg>