<?xml version="1.0" encoding="utf-8"?>
<!-- Generator: Adobe Illustrator 27.0.0, SVG Export Plug-In . SVG Version: 6.00 Build 0)  -->
<svg version="1.1" id="Layer_1" xmlns="http://www.w3.org/2000/svg" xmlns:xlink="http://www.w3.org/1999/xlink" x="0px" y="0px"
	 viewBox="0 0 138 29" style="enable-background:new 0 0 138 29;" xml:space="preserve">
<style type="text/css">
	.st0{enable-background:new    ;}
	.st1{fill:#154734;}
	.st2{fill:none;stroke:#154734;stroke-width:0.3;}
	.st3{fill:none;}
	.st4{fill:none;stroke:#154734;stroke-width:1.5;}
</style>
<g id="CTA" transform="translate(-95 -195)">
	<g class="st0">
		<path class="st1" d="M119.4,206.2v1h-2.8v1.8h2.8v1h-2.8v3h-1.3v-6.8H119.4z"/>
		<path class="st1" d="M122.7,206.2v6.8h-1.3v-6.8H122.7z"/>
		<path class="st1" d="M126.1,206.2l4.1,4.8v-4.8h1.3v6.8h-1.1l-4.1-4.8v4.8h-1.3v-6.8H126.1z"/>
		<path class="st1" d="M136.5,206.2c0.7,0,1.3,0.1,1.9,0.4s1,0.7,1.3,1.2s0.5,1.1,0.5,1.8c0,0.7-0.2,1.3-0.5,1.8
			c-0.3,0.5-0.7,0.9-1.3,1.2s-1.2,0.4-1.9,0.4h-2.8v-6.8H136.5z M136.3,212c0.7,0,1.3-0.2,1.8-0.7c0.4-0.4,0.7-1,0.7-1.7
			c0-0.7-0.2-1.3-0.7-1.7s-1-0.6-1.8-0.6h-1.4v4.8H136.3z"/>
		<path class="st1" d="M146,206.2l1.7,2.3l1.7-2.3h1.6l-2.6,3.4v3.4H147v-3.4l-2.6-3.4H146z"/>
		<path class="st1" d="M155.4,206.1c0.7,0,1.3,0.1,1.9,0.4c0.6,0.3,1,0.7,1.4,1.3c0.3,0.5,0.5,1.2,0.5,1.8c0,0.6-0.2,1.2-0.5,1.8
			c-0.3,0.5-0.8,1-1.3,1.3c-0.6,0.3-1.2,0.5-1.9,0.5c-0.7,0-1.3-0.2-1.9-0.5s-1-0.7-1.4-1.3c-0.3-0.5-0.5-1.1-0.5-1.8
			c0-0.6,0.2-1.2,0.5-1.8s0.8-1,1.3-1.3C154,206.2,154.6,206.1,155.4,206.1z M153,209.6c0,0.5,0.1,0.9,0.3,1.2
			c0.2,0.4,0.5,0.6,0.9,0.8s0.8,0.3,1.2,0.3c0.7,0,1.3-0.2,1.7-0.7c0.5-0.4,0.7-1,0.7-1.7c0-0.5-0.1-0.9-0.3-1.2
			c-0.2-0.4-0.5-0.6-0.9-0.8s-0.8-0.3-1.2-0.3s-0.9,0.1-1.2,0.3c-0.4,0.2-0.7,0.5-0.9,0.8C153.1,208.7,153,209.1,153,209.6z"/>
		<path class="st1" d="M162.3,206.2v4c0,0.4,0.1,0.7,0.2,1c0.1,0.2,0.3,0.4,0.6,0.6s0.6,0.2,1,0.2c0.4,0,0.7-0.1,1-0.2
			c0.3-0.1,0.5-0.4,0.6-0.6c0.1-0.3,0.2-0.6,0.2-1.1v-3.9h1.3v4.1c0,0.9-0.3,1.6-0.8,2.1c-0.6,0.5-1.3,0.7-2.3,0.7
			c-0.6,0-1.2-0.1-1.6-0.3s-0.8-0.5-1.1-1c-0.2-0.4-0.4-0.9-0.4-1.5v-4.1H162.3z"/>
		<path class="st1" d="M171.9,206.2c0.6,0,1.2,0.2,1.6,0.5c0.4,0.4,0.6,0.8,0.6,1.4c0,0.4-0.1,0.7-0.3,1c-0.2,0.3-0.5,0.5-0.9,0.7
			c0.2,0.1,0.4,0.3,0.6,0.5c0.2,0.2,0.4,0.5,0.6,1c0.4,0.8,0.7,1.4,0.9,1.7h-1.5c-0.1-0.1-0.2-0.4-0.4-0.7c-0.4-0.7-0.7-1.2-0.8-1.5
			c-0.2-0.3-0.3-0.4-0.5-0.5c-0.2-0.1-0.4-0.2-0.6-0.2h-0.5v2.9h-1.3v-6.8H171.9z M171.6,209.1c0.3,0,0.6-0.1,0.8-0.3
			c0.2-0.2,0.3-0.4,0.3-0.7c0-0.3-0.1-0.5-0.3-0.7c-0.2-0.2-0.5-0.2-0.8-0.2h-0.8v1.9H171.6z"/>
		<path class="st1" d="M182,206.1c0.7,0,1.3,0.2,1.9,0.5v1.2c-0.7-0.4-1.3-0.6-1.9-0.6c-0.3,0-0.6,0.1-0.8,0.2
			c-0.2,0.1-0.3,0.3-0.3,0.5c0,0.3,0.2,0.5,0.5,0.7c0.1,0.1,0.5,0.2,1.1,0.5c0.6,0.3,1,0.6,1.2,0.9c0.2,0.3,0.4,0.7,0.4,1.2
			c0,0.6-0.2,1.1-0.6,1.4c-0.4,0.4-1,0.5-1.6,0.5c-0.4,0-0.8,0-1.1-0.1c-0.3-0.1-0.7-0.3-1.1-0.5v-1.3c0.7,0.6,1.4,0.9,2.1,0.9
			c0.3,0,0.6-0.1,0.8-0.2c0.2-0.1,0.3-0.3,0.3-0.6c0-0.3-0.2-0.6-0.5-0.8c-0.3-0.2-0.7-0.3-1.1-0.6c-0.5-0.2-0.9-0.5-1.2-0.9
			c-0.3-0.3-0.4-0.7-0.4-1.1c0-0.6,0.2-1,0.6-1.4C180.7,206.3,181.3,206.1,182,206.1z"/>
		<path class="st1" d="M191.5,206.2v1h-2.4v5.8h-1.3v-5.8h-2.4v-1H191.5z"/>
		<path class="st1" d="M196.3,206.1c0.7,0,1.3,0.1,1.9,0.4c0.6,0.3,1,0.7,1.4,1.3c0.3,0.5,0.5,1.2,0.5,1.8c0,0.6-0.2,1.2-0.5,1.8
			c-0.3,0.5-0.8,1-1.3,1.3c-0.6,0.3-1.2,0.5-1.9,0.5c-0.7,0-1.3-0.2-1.9-0.5c-0.6-0.3-1-0.7-1.3-1.3c-0.3-0.5-0.5-1.1-0.5-1.8
			c0-0.6,0.2-1.2,0.5-1.8s0.8-1,1.3-1.3C194.9,206.2,195.6,206.1,196.3,206.1z M193.9,209.6c0,0.5,0.1,0.9,0.3,1.2
			c0.2,0.4,0.5,0.6,0.9,0.8s0.8,0.3,1.2,0.3c0.7,0,1.3-0.2,1.7-0.7c0.5-0.4,0.7-1,0.7-1.7c0-0.5-0.1-0.9-0.3-1.2
			c-0.2-0.4-0.5-0.6-0.9-0.8c-0.4-0.2-0.8-0.3-1.2-0.3c-0.5,0-0.9,0.1-1.2,0.3c-0.4,0.2-0.7,0.5-0.9,0.8
			C194,208.7,193.9,209.1,193.9,209.6z"/>
		<path class="st1" d="M204.5,206.2c0.6,0,1.2,0.2,1.6,0.5c0.4,0.4,0.6,0.8,0.6,1.4c0,0.4-0.1,0.7-0.3,1c-0.2,0.3-0.5,0.5-0.9,0.7
			c0.2,0.1,0.4,0.3,0.6,0.5c0.2,0.2,0.4,0.5,0.6,1c0.4,0.8,0.7,1.4,0.9,1.7h-1.5c-0.1-0.1-0.2-0.4-0.4-0.7c-0.4-0.7-0.7-1.2-0.8-1.5
			c-0.2-0.3-0.3-0.4-0.5-0.5c-0.2-0.1-0.4-0.2-0.6-0.2h-0.5v2.9H202v-6.8H204.5z M204.2,209.1c0.3,0,0.6-0.1,0.8-0.3
			c0.2-0.2,0.3-0.4,0.3-0.7c0-0.3-0.1-0.5-0.3-0.7c-0.2-0.2-0.5-0.2-0.8-0.2h-0.8v1.9H204.2z"/>
		<path class="st1" d="M213.6,206.2v1h-3.1v1.8h3v1h-3v1.9h3.2v1h-4.5v-6.8H213.6z"/>
	</g>
	<g class="st0">
		<path class="st2" d="M119.4,206.2v1h-2.8v1.8h2.8v1h-2.8v3h-1.3v-6.8H119.4z"/>
		<path class="st2" d="M122.7,206.2v6.8h-1.3v-6.8H122.7z"/>
		<path class="st2" d="M126.1,206.2l4.1,4.8v-4.8h1.3v6.8h-1.1l-4.1-4.8v4.8h-1.3v-6.8H126.1z"/>
		<path class="st2" d="M136.5,206.2c0.7,0,1.3,0.1,1.9,0.4s1,0.7,1.3,1.2s0.5,1.1,0.5,1.8c0,0.7-0.2,1.3-0.5,1.8
			c-0.3,0.5-0.7,0.9-1.3,1.2s-1.2,0.4-1.9,0.4h-2.8v-6.8H136.5z M136.3,212c0.7,0,1.3-0.2,1.8-0.7c0.4-0.4,0.7-1,0.7-1.7
			c0-0.7-0.2-1.3-0.7-1.7s-1-0.6-1.8-0.6h-1.4v4.8H136.3z"/>
		<path class="st2" d="M146,206.2l1.7,2.3l1.7-2.3h1.6l-2.6,3.4v3.4H147v-3.4l-2.6-3.4H146z"/>
		<path class="st2" d="M155.4,206.1c0.7,0,1.3,0.1,1.9,0.4c0.6,0.3,1,0.7,1.4,1.3c0.3,0.5,0.5,1.2,0.5,1.8c0,0.6-0.2,1.2-0.5,1.8
			c-0.3,0.5-0.8,1-1.3,1.3c-0.6,0.3-1.2,0.5-1.9,0.5c-0.7,0-1.3-0.2-1.9-0.5s-1-0.7-1.4-1.3c-0.3-0.5-0.5-1.1-0.5-1.8
			c0-0.6,0.2-1.2,0.5-1.8s0.8-1,1.3-1.3C154,206.2,154.6,206.1,155.4,206.1z M153,209.6c0,0.5,0.1,0.9,0.3,1.2
			c0.2,0.4,0.5,0.6,0.9,0.8s0.8,0.3,1.2,0.3c0.7,0,1.3-0.2,1.7-0.7c0.5-0.4,0.7-1,0.7-1.7c0-0.5-0.1-0.9-0.3-1.2
			c-0.2-0.4-0.5-0.6-0.9-0.8s-0.8-0.3-1.2-0.3s-0.9,0.1-1.2,0.3c-0.4,0.2-0.7,0.5-0.9,0.8C153.1,208.7,153,209.1,153,209.6z"/>
		<path class="st2" d="M162.3,206.2v4c0,0.4,0.1,0.7,0.2,1c0.1,0.2,0.3,0.4,0.6,0.6s0.6,0.2,1,0.2c0.4,0,0.7-0.1,1-0.2
			c0.3-0.1,0.5-0.4,0.6-0.6c0.1-0.3,0.2-0.6,0.2-1.1v-3.9h1.3v4.1c0,0.9-0.3,1.6-0.8,2.1c-0.6,0.5-1.3,0.7-2.3,0.7
			c-0.6,0-1.2-0.1-1.6-0.3s-0.8-0.5-1.1-1c-0.2-0.4-0.4-0.9-0.4-1.5v-4.1H162.3z"/>
		<path class="st2" d="M171.9,206.2c0.6,0,1.2,0.2,1.6,0.5c0.4,0.4,0.6,0.8,0.6,1.4c0,0.4-0.1,0.7-0.3,1c-0.2,0.3-0.5,0.5-0.9,0.7
			c0.2,0.1,0.4,0.3,0.6,0.5c0.2,0.2,0.4,0.5,0.6,1c0.4,0.8,0.7,1.4,0.9,1.7h-1.5c-0.1-0.1-0.2-0.4-0.4-0.7c-0.4-0.7-0.7-1.2-0.8-1.5
			c-0.2-0.3-0.3-0.4-0.5-0.5c-0.2-0.1-0.4-0.2-0.6-0.2h-0.5v2.9h-1.3v-6.8H171.9z M171.6,209.1c0.3,0,0.6-0.1,0.8-0.3
			c0.2-0.2,0.3-0.4,0.3-0.7c0-0.3-0.1-0.5-0.3-0.7c-0.2-0.2-0.5-0.2-0.8-0.2h-0.8v1.9H171.6z"/>
		<path class="st2" d="M182,206.1c0.7,0,1.3,0.2,1.9,0.5v1.2c-0.7-0.4-1.3-0.6-1.9-0.6c-0.3,0-0.6,0.1-0.8,0.2
			c-0.2,0.1-0.3,0.3-0.3,0.5c0,0.3,0.2,0.5,0.5,0.7c0.1,0.1,0.5,0.2,1.1,0.5c0.6,0.3,1,0.6,1.2,0.9c0.2,0.3,0.4,0.7,0.4,1.2
			c0,0.6-0.2,1.1-0.6,1.4c-0.4,0.4-1,0.5-1.6,0.5c-0.4,0-0.8,0-1.1-0.1c-0.3-0.1-0.7-0.3-1.1-0.5v-1.3c0.7,0.6,1.4,0.9,2.1,0.9
			c0.3,0,0.6-0.1,0.8-0.2c0.2-0.1,0.3-0.3,0.3-0.6c0-0.3-0.2-0.6-0.5-0.8c-0.3-0.2-0.7-0.3-1.1-0.6c-0.5-0.2-0.9-0.5-1.2-0.9
			c-0.3-0.3-0.4-0.7-0.4-1.1c0-0.6,0.2-1,0.6-1.4C180.7,206.3,181.3,206.1,182,206.1z"/>
		<path class="st2" d="M191.5,206.2v1h-2.4v5.8h-1.3v-5.8h-2.4v-1H191.5z"/>
		<path class="st2" d="M196.3,206.1c0.7,0,1.3,0.1,1.9,0.4c0.6,0.3,1,0.7,1.4,1.3c0.3,0.5,0.5,1.2,0.5,1.8c0,0.6-0.2,1.2-0.5,1.8
			c-0.3,0.5-0.8,1-1.3,1.3c-0.6,0.3-1.2,0.5-1.9,0.5c-0.7,0-1.3-0.2-1.9-0.5c-0.6-0.3-1-0.7-1.3-1.3c-0.3-0.5-0.5-1.1-0.5-1.8
			c0-0.6,0.2-1.2,0.5-1.8s0.8-1,1.3-1.3C194.9,206.2,195.6,206.1,196.3,206.1z M193.9,209.6c0,0.5,0.1,0.9,0.3,1.2
			c0.2,0.4,0.5,0.6,0.9,0.8s0.8,0.3,1.2,0.3c0.7,0,1.3-0.2,1.7-0.7c0.5-0.4,0.7-1,0.7-1.7c0-0.5-0.1-0.9-0.3-1.2
			c-0.2-0.4-0.5-0.6-0.9-0.8c-0.4-0.2-0.8-0.3-1.2-0.3c-0.5,0-0.9,0.1-1.2,0.3c-0.4,0.2-0.7,0.5-0.9,0.8
			C194,208.7,193.9,209.1,193.9,209.6z"/>
		<path class="st2" d="M204.5,206.2c0.6,0,1.2,0.2,1.6,0.5c0.4,0.4,0.6,0.8,0.6,1.4c0,0.4-0.1,0.7-0.3,1c-0.2,0.3-0.5,0.5-0.9,0.7
			c0.2,0.1,0.4,0.3,0.6,0.5c0.2,0.2,0.4,0.5,0.6,1c0.4,0.8,0.7,1.4,0.9,1.7h-1.5c-0.1-0.1-0.2-0.4-0.4-0.7c-0.4-0.7-0.7-1.2-0.8-1.5
			c-0.2-0.3-0.3-0.4-0.5-0.5c-0.2-0.1-0.4-0.2-0.6-0.2h-0.5v2.9H202v-6.8H204.5z M204.2,209.1c0.3,0,0.6-0.1,0.8-0.3
			c0.2-0.2,0.3-0.4,0.3-0.7c0-0.3-0.1-0.5-0.3-0.7c-0.2-0.2-0.5-0.2-0.8-0.2h-0.8v1.9H204.2z"/>
		<path class="st2" d="M213.6,206.2v1h-3.1v1.8h3v1h-3v1.9h3.2v1h-4.5v-6.8H213.6z"/>
	</g>
	<g id="Rectangle_17811" transform="translate(95 195)">
		<rect y="0" class="st3" width="138" height="29"/>
		<rect x="0.8" y="0.7" class="st4" width="136.5" height="27.5"/>
	</g>
</g>
</svg>
