<svg xmlns="http://www.w3.org/2000/svg" xmlns:xlink="http://www.w3.org/1999/xlink" width="64" height="66" viewBox="0 0 64 66">
  <defs>
    <clipPath id="clip-path">
      <rect id="Rectangle_17933" data-name="Rectangle 17933" width="50" height="50" transform="translate(0 0)" fill="none"/>
    </clipPath>
  </defs>
  <g id="Nero_partnership" data-name="Nero partnership" transform="translate(-118 -457)">
    <g id="Nero_logo" data-name="Nero logo" transform="translate(125 473.004)">
      <g id="Group_10047" data-name="Group 10047" transform="translate(0 -0.004)" clip-path="url(#clip-path)">
        <path id="Path_3570" data-name="Path 3570" d="M25,50A25,25,0,1,0,0,25,25,25,0,0,0,25,50" transform="translate(0 0.004)"/>
        <path id="Path_3571" data-name="Path 3571" d="M841.382,394.789h-4.055v-4.454h4.055Zm1-6.158h-6.1A1.174,1.174,0,0,0,835.1,389.8v5.521a1.174,1.174,0,0,0,1.174,1.174h6.1a1.174,1.174,0,0,0,1.174-1.174V389.8a1.174,1.174,0,0,0-1.174-1.174" transform="translate(-798.4 -371.55)" fill="#fff"/>
        <path id="Path_3572" data-name="Path 3572" d="M370.761,396.379h7.821v-1.707h-5.451v-1.615L375.56,393l.307-1.538h-2.736v-1.252h5.451V388.5h-7.821Z" transform="translate(-354.466 -371.424)" fill="#fff"/>
        <path id="Path_3573" data-name="Path 3573" d="M604.224,392.532h-3.176v-2.291h3.176Zm1.39,1.565a.975.975,0,0,0,1-.9v-3.385a1.173,1.173,0,0,0-1.174-1.174h-6.755v7.877h2.372V394.1H603l1.6,2.411h2.7Z" transform="translate(-572.372 -371.557)" fill="#fff"/>
        <path id="Path_3574" data-name="Path 3574" d="M113.3,393.8h2.046v-3.817l7.06,4.139v-8.2h-2v4.022l-7.1-4.141Z" transform="translate(-108.324 -368.845)" fill="#fff"/>
        <path id="Path_3575" data-name="Path 3575" d="M112.706,619.355l1.189,1.636h-.709l-1.1-1.572h-.1v1.572h-.579v-3.839h.679a1.7,1.7,0,0,1,1.1.286,1.049,1.049,0,0,1,.373.84,1.09,1.09,0,0,1-.234.7,1.041,1.041,0,0,1-.617.375m-.721-.44h.184q.822,0,.823-.629,0-.589-.8-.59h-.207Z" transform="translate(-106.51 -590.028)" fill="#fff"/>
        <path id="Path_3576" data-name="Path 3576" d="M192.214,617.479a1.881,1.881,0,0,1,.594-1.392,1.956,1.956,0,0,1,1.423-.582,2.009,2.009,0,0,1,2,2,1.89,1.89,0,0,1-.593,1.406,2.028,2.028,0,0,1-2.77.064,1.885,1.885,0,0,1-.651-1.492m.584.008a1.388,1.388,0,0,0,.428,1.047,1.416,1.416,0,0,0,2-.008,1.49,1.49,0,0,0,0-2.059,1.354,1.354,0,0,0-1.009-.418,1.37,1.37,0,0,0-1.013.418,1.388,1.388,0,0,0-.412,1.02" transform="translate(-183.766 -588.453)" fill="#fff"/>
        <path id="Path_3577" data-name="Path 3577" d="M304.939,612.954l.569,1.306h-1.166Zm-1.891,2.782h.625l.428-.932h1.642l.4.932h.634l-1.834-4.08Z" transform="translate(-289.729 -584.773)" fill="#fff"/>
        <path id="Path_3578" data-name="Path 3578" d="M414.286,616.086l-.47.278a.818.818,0,0,0-.251-.3.669.669,0,0,0-.722.057.427.427,0,0,0-.159.339c0,.187.14.338.418.453l.383.156a1.641,1.641,0,0,1,.684.461,1.046,1.046,0,0,1,.216.667,1.176,1.176,0,0,1-.353.876,1.215,1.215,0,0,1-.883.348,1.182,1.182,0,0,1-.826-.3,1.365,1.365,0,0,1-.4-.833l.587-.129a.989.989,0,0,0,.14.468.662.662,0,0,0,.972.067.678.678,0,0,0,.147-.666.493.493,0,0,0-.1-.171.78.78,0,0,0-.17-.147,1.692,1.692,0,0,0-.249-.131l-.37-.153a1.067,1.067,0,0,1-.789-.975.925.925,0,0,1,.331-.724,1.193,1.193,0,0,1,.824-.294,1.15,1.15,0,0,1,1.036.647" transform="translate(-393.82 -588.39)" fill="#fff"/>
        <path id="Path_3579" data-name="Path 3579" d="M493.686,617.145v.545h.883v3.294h.58v-3.294h.88v-.545Z" transform="translate(-471.988 -590.021)" fill="#fff"/>
        <rect id="Rectangle_17932" data-name="Rectangle 17932" width="0.58" height="3.839" transform="translate(25.322 27.125)" fill="#fff"/>
        <path id="Path_3580" data-name="Path 3580" d="M627.684,615.314h.58v-2.687l2.8,2.921v-4.073h-.58v2.668l-2.8-2.929Z" transform="translate(-600.097 -584.351)" fill="#fff"/>
        <path id="Path_3581" data-name="Path 3581" d="M741.6,617.36h1.586v.127a2.623,2.623,0,0,1-.1.766,1.62,1.62,0,0,1-.336.577,1.74,1.74,0,0,1-1.36.6,1.87,1.87,0,0,1-1.381-.582,2,2,0,0,1,2.273-3.22,2.409,2.409,0,0,1,.734.6l-.413.4a1.4,1.4,0,0,0-1.152-.63,1.379,1.379,0,0,0-1.022.42,1.4,1.4,0,0,0-.413,1.035,1.443,1.443,0,0,0,1.393,1.442,1.162,1.162,0,0,0,.768-.288,1.029,1.029,0,0,0,.38-.7H741.6Z" transform="translate(-706.938 -588.396)" fill="#fff"/>
        <path id="Path_3582" data-name="Path 3582" d="M881.624,615.721v.687a1.606,1.606,0,0,0-1.04-.421,1.323,1.323,0,0,0-1,.426,1.434,1.434,0,0,0-.407,1.034,1.4,1.4,0,0,0,.407,1.02,1.347,1.347,0,0,0,1,.415,1.219,1.219,0,0,0,.52-.1,1.5,1.5,0,0,0,.247-.134,2.993,2.993,0,0,0,.27-.2v.7a2.1,2.1,0,0,1-1.045.281,1.928,1.928,0,0,1-1.4-.575,1.9,1.9,0,0,1-.579-1.4,1.973,1.973,0,0,1,.485-1.308,1.93,1.93,0,0,1,1.544-.7,1.96,1.96,0,0,1,1,.281" transform="translate(-839.98 -588.391)" fill="#fff"/>
        <path id="Path_3583" data-name="Path 3583" d="M967.791,618.726a1.2,1.2,0,0,1,.376-.893,1.323,1.323,0,0,1,1.835,0,1.3,1.3,0,0,1,0,1.823,1.282,1.282,0,0,1-.927.366,1.231,1.231,0,0,1-.912-.373,1.253,1.253,0,0,1-.369-.925m.572.01a.812.812,0,0,0,.194.574.752.752,0,0,0,1.049,0,.908.908,0,0,0,0-1.129.745.745,0,0,0-1.044,0,.778.778,0,0,0-.2.552" transform="translate(-925.256 -590.327)" fill="#fff"/>
        <path id="Path_3584" data-name="Path 3584" d="M989.625,690.068a.312.312,0,0,1,.1-.234.355.355,0,0,1,.492,0,.325.325,0,0,1,0,.474.364.364,0,0,1-.495,0,.319.319,0,0,1-.1-.241" transform="translate(-946.13 -659.421)" fill="#fff"/>
      </g>
    </g>
    <text id="In_partnership_with" data-name="In partnership with" transform="translate(150 466)" fill="#154734" font-size="8" font-family="GillSansNovaforJL-Medium, Gill Sans Nova for JL" font-weight="500"><tspan x="-31.12" y="0">In partnership with</tspan></text>
  </g>
</svg>
