<svg xmlns="http://www.w3.org/2000/svg" width="511.402" height="578.748" xmlns:v="https://vecta.io/nano"><path d="M149.83 460.743l-.045-.04.045.04m.062.054l-.062-.054.089.076zm-.108-.094l.045.04.062.054-.048-.042-.06-.052m.06.052l-.025-.022-.034-.03.06.052m-.06-.052l.034.03-.025-.021-.009-.007m.009.007l-.009-.007.009.007m.171.149l-.048-.042.04.035.008.007m-.073-.063l.056.048.009.008-.04-.035zm0 0l-.048-.042.093.082.011.009-.056-.048m-.048-.042l.093.082-.01-.009-.109-.095.025.022m.084.073l-.008-.006-.126-.11.025.021.109.095m-.143-.124l.009.007.126.11-.008-.007-.127-.11m.127.11l-.007-.001-.121-.105.127.11m-.008-.006l-.008-.006-.112-.098.12.104m-.12-.104l.112.098c-.035-.036-.079-.063-.112-.098M487.747 71.41l-83.486 89.277c-4.859 5.218-12.676 13.978-15.949 18.775-5.174 7.578-5.371 8.643-5.371 8.643l-85.803 93.196c-11.22 12.137-19.158 20.907-22.089 25.146a87.16 87.16 0 0 0-5.513 9.004l-88.373 96.167c-11.015 12.017-17.224 18.618-23.333 27.709-1.8 2.677-3.178 4.888-4.285 6.783a38.6 38.6 0 0 0-4.241 9.27c-.359 1.147-.468 2.358-.318 3.551.098.654.375 1.267.8 1.773l-.247-.215-.166-.145-.014-.012a26.97 26.97 0 0 1-3.703-4.295 22.47 22.47 0 0 1-3.11-6.531c-1.218-4.359-1.385-8.944-.486-13.38.518-2.901 1.28-5.754 2.278-8.527 3.885-11.028 11.114-17.634 22.841-29.024l93.854-90.515c.513-3.145.34-5.703 2.639-11.497 2.007-5.048 10.331-13.484 22.38-24.906l91.972-87.834s-.826-2.179 2.597-11.281c2.168-5.759 10.012-14.051 15.274-18.913l90.879-83.075c2.91-2.522 4.66-3.503 5.169-3.067h0c-.164-.136-1.562 1.151-4.191 3.917M155.515 460.78a38.23 38.23 0 0 0 8.588-5.491c1.725-1.358 3.72-3.03 6.123-5.184 8.151-7.315 13.825-14.38 24.19-26.964l82.931-100.898c2.85-2.068 5.572-4.308 8.15-6.708 3.784-3.496 11.37-12.576 21.827-25.374l80.347-97.937s1.028-.343 7.81-6.523c4.296-3.908 11.882-12.868 16.373-18.407l76.793-95.103c2.354-2.968 3.444-4.543 3.295-4.696h0c.5.459-.242 2.34-2.316 5.547-1.924 2.978-17.927 27.018-69.621 101.559-4.084 5.886-11.202 14.809-16.603 17.757-8.533 4.654-10.812 4.138-10.812 4.138l-74.179 103.301c-9.628 13.521-16.824 22.937-21.546 25.625-5.416 3.084-7.972 3.27-11.016 4.215l-76.569 105.541c-9.649 13.195-15.189 21.276-25.566 26.655a52.01 52.01 0 0 1-8.125 3.444 28.6 28.6 0 0 1-13.316 1.378l-4.845-1.284a25.11 25.11 0 0 1-7.463-4.511 3.61 3.61 0 0 0 3.034.66c.867-.143 1.713-.391 2.52-.739m-6.159-.449h0l.014.012-.014-.012m.014.012l.11.096.043.037.014.012-.166-.145m0 0l.11.096-.077-.067-.047-.041.014.012m-.014-.012h0l.047.041-.047-.041m.166.145l-.043-.037.021.019.021.017m-.043-.037l.021.019-.052-.045-.048-.042.077.067m-.077-.067l.048.042-.052-.046-.042-.036.047.041m-.047-.041h0l.042.036-.042-.036m.428.372l-.059-.052-.168-.146-.021-.017.247.215m-.227-.198l-.021-.017-.014-.012.034.03m.136.123l-.136-.123.168.146-.031-.027m-.171-.149l-.021-.017.152.132.039.034-.136-.123-.034-.03m.132.115l-.039-.034-.165-.144.052.045.152.132m-.257-.223l.178.154.04.035-.165-.144-.052-.046m0 0l.178.154-.042-.036-.178-.154h0l.042.036m.134.123l-.178-.152h0l.178.154m.25.218l-.059-.052zm-.089-.078l.089.078-.059-.052-.031-.027m.089.078h0l-.129-.113.039.034.089.078m-.129-.113l-.039-.034.154.134.014.012-.129-.113m.115.1l-.027-.025-.166-.145.04.035.154.134m-.237-.206l.183.16.025.021-.166-.145-.042-.036m.183.16c-.116-.105-.241-.203-.356-.31l.178.152.183.16m-.573-.496l-.112-.097-.1-.087.212.184m-.212-.184h0l.1.087-.1-.087m.423.371l-.082-.072-.129-.113.212.184m-.212-.184l.129.113-.094-.082-.147-.125.112.097m-.212-.184h0l.153.133.093.082-.147-.125-.1-.087m.153.133l-.15-.125h0l.153.133m.267.235l-.082-.072.082.072m-.082-.072l-.094-.082.146.124.031.027-.082-.072m-.094-.082l.146.124-.076-.067-.163-.142.093.082m.069.061l-.313-.272.15.125.163.142m.108.094l-.031-.027.031.027m0 0h0l-.015-.014-.089-.079.076.067.031.027m-.419-.37h0l.401.349-.089-.079-.313-.272m.421.37l-.017-.015.015.014zm0 0h0l-.42-.365.401.349.017.015m12.5 8.886l7.171 3.307c5.753 2.18 11.904 3.111 18.044 2.729a49.1 49.1 0 0 0 10.133-1.7c12.595-3.449 18.007-12.544 26.948-26.359 18.302-29.674 70.199-110.175 70.199-110.175 3.914-.19 7.401.434 13.883-1.721 5.649-1.881 12.459-11.633 21.261-25.873l68.009-108.665s3.528 1.378 13.813-1.754c6.508-1.98 13.155-10.868 16.835-17.106l62.443-108.016c1.796-3.45 2.195-5.635 1.345-6.392h0c1.197 1.059 1.146 3.547-.368 7.241-1.409 3.422-13.8 31.056-55.277 114.472-3.271 6.59-9.45 15.433-17.07 16.452-12.04 1.609-16.809-.626-16.809-.626l-61.84 114.03c-7.972 14.96-14.395 25.047-20.975 26.121-7.55 1.228-11.976-.211-16.755-.775l-63.832 114.809c-8.238 14.445-13.506 24.543-28.325 26.06a57.21 57.21 0 0 1-12.137-.043 68.01 68.01 0 0 1-22.772-6.838l-9.497-5.326a135 135 0 0 1-16.345-12.232l.009.008c3.662 3.203 7.653 6.01 11.907 8.372M485.789 69.708c-2.939 2.095-26.552 19.752-98.274 76.873-5.666 4.512-13.54 12.334-14.594 19.052-1.671 10.622.185 13.921.185 13.921l-98.141 82.471c-12.877 10.696-21.587 18.796-22.663 24.658-1.232 6.72-.128 10.088.226 13.989l-99.328 84.851c-12.439 10.776-20.692 17.397-22.353 30.353a48.83 48.83 0 0 0-.272 10.271 43.32 43.32 0 0 0 5.213 17.489 53.97 53.97 0 0 0 6.539 9.512 74.95 74.95 0 0 0 6.609 6.818l-.048-.042-.295-.256-.079-.069q-4.965-4.448-9.519-9.35c-3.645-3.896-6.978-8.073-9.969-12.492-4.557-6.56-7.923-13.87-9.944-21.597a57.25 57.25 0 0 1-1.731-12.013c-.564-14.889 8.702-21.514 21.863-31.678 28.568-20.745 104.806-79.191 104.806-79.191-1.223-4.655-3.258-8.833-3.096-16.487.144-6.66 9.243-14.432 22.945-24.411l104.313-77.105s-2.879-4.414-2.961-16.56c-.051-7.688 7.848-15.031 13.919-19.192l105.669-70.662c3.473-2.034 5.917-2.411 7.127-1.366h0c-.86-.744-2.956-.063-6.147 2.217M148.595 459.667l-.079-.069.079.069m.295.256l-.128-.111-.166-.145.295.256m-.128-.111l-.246-.214.079.069.166.145m.178.153l-.048-.042.048.042m-.048-.042l-.128-.111.164.142.012.011-.048-.042m-.128-.111l.164.142-.408-.354h0l.246.214m.178.153l-.012-.011.012.011m0 0h0l-.418-.364-.006-.001.408.354.012.011m0 0h0l-.414-.36-.005-.001.418.364m0 0c-.136-.123-.281-.239-.417-.363l.414.36zm-.428-.372l-.42-.365-.005-.001.425.371m0 0h0l-.42-.365.42.365m0 0l-.418-.364h0l.42.365zm0 0l.006.001-.417-.363-.007-.001.418.364m.01.009c-.139-.123-.283-.24-.421-.37l.417.363.005.001m22.206 17.327l11.821 7.348a101.69 101.69 0 0 0 27.5 10.947 72 72 0 0 0 14.14 1.783c17.044.418 22.184-10.698 29.705-25.755 14.832-32.687 57.469-119.444 57.469-119.444 5.647 1.317 11.003 3.565 19.621 3.266 7.508-.266 13.547-10.687 20.693-26.366l55.663-119.394s6.021 3.098 19.814 3.013c8.725-.055 14.433-8.859 17.302-15.801l48.11-120.931c1.238-3.935.941-6.73-.607-8.095h0c1.899 1.663 2.544 4.757 1.586 8.94-.889 3.877-9.682 35.091-40.932 127.388-2.471 7.292-7.708 16.062-17.539 15.151-15.546-1.439-22.812-5.394-22.812-5.394l-49.5 124.753c-6.315 16.401-11.968 27.162-20.407 26.614-9.685-.623-15.977-3.689-22.491-5.76l-51.102 124.082c-6.81 15.681-11.812 27.809-31.082 25.457-5.478-.687-10.882-1.867-16.147-3.527a143.95 143.95 0 0 1-32.225-15.057l-14.149-9.372c-8.743-6.238-17.143-12.921-25.232-19.958l.01.009a223.75 223.75 0 0 0 20.791 16.098M483.829 68.004c-3.457 1.644-31.113 16.233-113.061 64.467-6.471 3.811-14.401 10.679-13.237 19.334 1.835 13.669 5.739 19.2 5.739 19.2l-110.483 71.743c-14.533 9.257-24.012 16.689-23.232 24.163.903 8.576 3.875 13.573 5.965 18.976l-110.285 73.535c-13.863 9.541-24.161 16.176-21.374 32.998a72.03 72.03 0 0 0 3.736 13.754 101.65 101.65 0 0 0 14.667 25.711 165.69 165.69 0 0 0 13.398 15.467q6.011 6.157 12.423 11.876l-.417-.363q-7.874-6.978-15.335-14.408a245.8 245.8 0 0 1-16.82-18.452c-7.674-9.1-14.19-19.116-19.398-29.82a91.65 91.65 0 0 1-5.746-15.5c-5.01-18.755 6.304-25.395 20.885-34.321 32.044-17.729 115.765-67.871 115.765-67.871-2.956-6.16-6.865-11.966-8.832-21.469-1.713-8.281 8.155-15.375 23.516-23.916l116.651-66.38s-4.93-6.646-8.519-21.842c-2.27-9.611 5.685-16.014 12.565-19.474 87.047-43.792 116.736-56.838 120.45-58.263 4.035-1.545 7.178-1.315 9.081.333h.005c-1.557-1.348-4.354-1.275-8.107.514M148.087 459.228h.005l-.417-.363-.005-.001.417.363m.005.001l-.414-.36h0l.417.363m0 0h0l-.414-.36h0l.414.36m.009.007c-.138-.123-.281-.239-.419-.37l.414.36.007.001m-.432-.372l-.416-.363.005.001.417.363h-.005m.005.001h0l-.414-.359-.007-.001.417.363m.007.001c-.136-.123-.282-.239-.417-.363l.414.359zm2.104 1.829l-.014-.012.014.012m29.807 23.949l16.474 11.392c11.539 7.434 23.674 14.178 36.957 19.166a115.95 115.95 0 0 0 18.146 5.273c21.494 4.285 26.364-8.858 32.461-25.158 11.367-35.706 44.738-128.718 44.738-128.718 7.38 2.824 14.605 6.697 25.357 8.251 9.37 1.352 14.634-9.742 20.124-26.861l43.328-130.118s8.514 4.821 25.813 7.778c10.941 1.876 15.708-6.857 17.766-14.492 26.141-96.748 33.133-129.753 33.766-133.853.676-4.423-.316-7.824-2.567-9.792h0c2.6 2.273 3.944 5.979 3.544 10.641-.372 4.328-5.556 39.121-26.591 140.309-1.656 7.99-5.948 16.684-18.002 13.843-19.049-4.484-28.812-10.16-28.812-10.16l-37.159 135.482c-4.661 17.838-9.54 29.268-19.839 27.108-11.821-2.48-19.98-7.169-28.226-10.748l-38.373 133.355c-5.382 16.915-10.118 31.073-33.837 24.855a144.99 144.99 0 0 1-20.152-7.007c-14.828-6.341-28.552-14.467-41.68-23.282l-18.805-13.413q-17.549-13.213-34.113-27.677l.008.007c9.569 8.324 19.452 16.295 29.673 23.818M481.871 66.301c-3.972 1.193-35.685 12.713-127.852 52.066-7.275 3.1-15.257 9.034-11.878 19.61 5.335 16.717 11.295 24.478 11.295 24.478l-122.821 61.017c-16.188 7.818-26.441 14.577-23.802 23.668 3.039 10.433 7.879 17.048 11.702 23.964L97.277 333.319c-15.288 8.311-27.629 14.962-20.394 35.649a115.6 115.6 0 0 0 7.744 17.24c6.784 12.452 15.154 23.533 24.122 33.925 6.445 7.466 13.226 14.586 20.254 21.432q8.919 8.685 18.25 16.94l-.414-.36q-10.792-9.514-21.167-19.477c-8.174-7.842-16.096-15.956-23.682-24.414-10.553-11.771-20.509-24.231-28.851-38.03-3.712-6.08-6.971-12.426-9.75-18.986-9.457-22.62 3.902-29.282 19.903-36.968 35.509-14.716 126.716-56.561 126.716-56.561-4.69-7.669-10.467-15.096-14.568-26.455-3.573-9.898 7.067-16.32 24.085-23.421l128.994-55.652s-6.984-8.881-14.077-27.122c-4.488-11.539 3.524-16.999 11.206-19.751 97.275-34.913 131.01-44.888 135.239-45.862 4.598-1.056 8.438-.221 11.04 2.036-2.251-1.951-5.744-2.485-10.059-1.188M147.253 458.502l.005.001-.413-.359-.007-.001.414.36m.011.01l-.419-.364.413.359.007.001m2.521 2.191h0l-.042-.036.027.025.014.012m-2.936-2.555l-.418-.364.412.359.007.001M55.337 294.169c38.978-11.706 137.672-45.24 137.672-45.24-6.424-9.176-14.068-18.225-20.303-31.441-5.433-11.516 5.975-17.267 24.654-22.926l141.332-44.926s-9.037-11.11-19.631-32.401c-6.705-13.466 1.358-17.977 9.847-20.033C436.4 71.175 474.182 64.269 478.933 63.748a16.68 16.68 0 0 1 12.995 3.736c-2.946-2.556-7.138-3.697-12.014-2.883-4.492.745-40.25 9.189-142.638 39.656-8.088 2.405-16.122 7.389-10.524 19.893 8.84 19.765 16.852 29.76 16.852 29.76l-135.165 50.283c-17.843 6.379-28.869 12.466-24.367 23.173 5.172 12.287 11.881 20.527 17.438 28.949l-132.19 50.9c-16.711 7.067-31.094 13.738-19.415 38.29a178.01 178.01 0 0 0 11.753 20.731c9.893 15.148 21.436 28.987 33.578 42.14q13.085 14.177 27.107 27.4 11.833 11.218 24.083 22.012-13.923-12.225-27.413-24.909-15.692-14.75-30.542-30.377c-13.729-14.532-26.86-29.751-38.304-46.247a215.09 215.09 0 0 1-13.76-22.478c-13.907-26.484 1.507-33.167 18.924-39.611m133.128 198.182l21.127 15.437c14.714 10.193 30.021 19.697 46.404 27.388a177.94 177.94 0 0 0 22.163 8.752c25.944 8.151 30.545-7.023 35.214-24.557 7.896-38.72 32.008-137.992 32.008-137.992 9.116 4.332 18.21 9.83 31.096 13.24 11.229 2.969 15.721-8.798 19.551-27.359l30.991-140.84s11.012 6.541 31.812 12.544c13.161 3.806 16.978-4.848 18.235-13.191C492.979 120.138 496.366 83.553 496.478 79c.12-4.907-1.575-8.918-4.523-11.492a16.73 16.73 0 0 1 5.503 12.344c.143 4.775-1.436 43.153-12.247 153.228-.855 8.692-4.2 17.305-18.468 12.539-22.557-7.527-34.818-14.931-34.818-14.931l-24.814 146.209c-3.005 19.278-7.112 31.379-19.269 27.603-13.955-4.336-23.983-10.649-33.966-15.734l-25.641 142.63c-3.957 18.15-8.426 34.342-36.595 24.253a214.9 214.9 0 0 1-24.166-10.494c-17.931-9.038-34.829-19.924-51.132-31.498l-23.457-17.46q-21.979-17.064-42.992-35.397l.008.006q18.797 16.349 38.554 31.538m-38.713-31.678l-.025-.021.067.058-.042-.036" fill="#224b45"/></svg>