 <svg id="Component_45_5" data-name="Component 45 – 5" xmlns="http://www.w3.org/2000/svg" width="201.453" height="105.132" viewBox="0 0 201.453 105.132">
  <g id="Component_27_5" data-name="Component 27 – 5" transform="translate(30.453 29.453)">
    <path id="Path_7" data-name="Path 7" d="M93.085,115.218v-7.94h1.809v7.94Zm35.156-2.971a3.238,3.238,0,1,1-3.236-3.113A3.088,3.088,0,0,1,128.241,112.246Zm-1.784,0a1.455,1.455,0,1,0-2.9,0,1.456,1.456,0,1,0,2.9,0Zm-34.1.683c0,1.35-.9,2.288-2.788,2.288H85.823v-7.94h3.6c1.871,0,2.71.953,2.71,2.112a1.776,1.776,0,0,1-1.061,1.659A1.9,1.9,0,0,1,92.361,112.93Zm-4.652-2.456h1.5c.657,0,1-.314,1-.853s-.4-.8-1-.8h-1.5Zm2.668,2.34c0-.534-.39-.865-1.04-.865h-1.63v1.729h1.63C90.018,113.679,90.377,113.335,90.377,112.814Zm17.727-2.057a2.866,2.866,0,0,0-2.828-1.615,2.955,2.955,0,0,0-3.137,3.1,3.187,3.187,0,0,0,5.953,1.521l-1.459-.753a1.484,1.484,0,1,1-1.334-2.32,1.35,1.35,0,0,1,1.3.837Zm26.658,0a2.865,2.865,0,0,0-2.827-1.615,2.955,2.955,0,0,0-3.136,3.1,3.187,3.187,0,0,0,5.953,1.521l-1.459-.753a1.484,1.484,0,1,1-1.334-2.32,1.351,1.351,0,0,1,1.3.837Zm-13,4.461H119.6l-1.506-2.671h-1.156v2.671h-1.868v-7.94h3.361c1.818,0,3.092.866,3.092,2.578a2.473,2.473,0,0,1-1.5,2.337Zm-2.158-5.309c0-.682-.4-1.056-1.279-1.056h-1.388v2.12h1.388C119.193,110.972,119.608,110.489,119.608,109.908Zm-17.748,3.964v1.245a2.938,2.938,0,0,1-1.063.194,1.208,1.208,0,0,1-1.237-.736,2.674,2.674,0,0,1-1.957.78c-1.212,0-1.992-.62-1.992-1.8,0-1.155.935-1.846,2.38-1.846a5.892,5.892,0,0,1,1.423.177v-.193c0-.656-.382-1.052-1.173-1.052a2.271,2.271,0,0,0-1.441.574l-1-1.125a4.067,4.067,0,0,1,2.663-.935c1.71,0,2.742.823,2.742,2.363v2.059c0,.219.112.336.349.336A1.269,1.269,0,0,0,101.859,113.872Zm-2.446-1.007a4.431,4.431,0,0,0-1.015-.132c-.623,0-.932.306-.932.727,0,.4.274.686.834.686a1,1,0,0,0,1.113-.894Zm41.81,2.353-2.132-3.7,2-2.178h-2.01l-2.1,2.338v-4.405h-1.793v7.94h1.793v-1.429l.859-.919,1.345,2.348Zm-26.635,0-2.132-3.7,2-2.178h-2.034l-2.079,2.338v-4.405H108.55v7.94h1.793v-1.429l.859-.919,1.345,2.348Zm-33.472-5.875-1.054,3.848-1.293-3.848H76.824l2.389,5.931a.8.8,0,0,1-.848.481,1.308,1.308,0,0,1-.706-.22l-.653,1.243a2.42,2.42,0,0,0,1.414.437,2.629,2.629,0,0,0,2.613-2.13l1.947-5.742Zm-4.242,2.868c0,1.936-1.184,3.161-2.736,3.161a2.247,2.247,0,0,1-1.731-.689v.533H70.628v-7.939h1.83v2.474a2.431,2.431,0,0,1,1.721-.689C75.73,109.063,76.874,110.276,76.874,112.211Zm-1.828,0a1.385,1.385,0,0,0-1.388-1.573,1.521,1.521,0,0,0-1.2.633v1.96a1.533,1.533,0,0,0,1.241.565C74.52,113.8,75.046,113.226,75.046,112.211Zm-4.417-36.98V69.909h6.723v5.322Zm0,24.1V77.568h6.723V99.329Zm119.789-9.147H175.305c.281,2.31,2,4.067,5.306,4.067a7.207,7.207,0,0,0,5.387-2.2l4.032,4.117a12.239,12.239,0,0,1-9.389,3.746c-7.723,0-12.242-4.446-12.242-11.618,0-6.625,4.38-11.445,11.315-11.445,6.9,0,10.971,4.23,10.971,10.534A12.589,12.589,0,0,1,190.417,90.182Zm-6.461-4.171a3.934,3.934,0,0,0-4.242-3.869,4.17,4.17,0,0,0-4.4,3.869Zm17.923,13.9a15.02,15.02,0,0,1-10.4-3.727l3.841-4.13a9.64,9.64,0,0,0,6.531,2.616c2.345,0,3.367-.61,3.367-1.538,0-.708-.514-1.108-1.8-1.494-1.118-.337-2.882-.628-4.372-1.065-3.23-.946-6.444-2.29-6.444-6.855,0-4.229,3.443-6.836,9.206-6.836a14.275,14.275,0,0,1,9.813,3.333l-3.886,4.036a8.646,8.646,0,0,0-5.979-2.224c-1.733,0-2.69.611-2.69,1.453,0,.706.508,1.118,1.817,1.541,1.135.367,3.017.722,4.509,1.142,3.1.873,6.316,2.193,6.316,6.523C211.715,97.56,207.605,99.908,201.879,99.908ZM98.19,78.423a8.638,8.638,0,0,0-6.841-3.009c-2.839,0-4.323,1.02-4.323,2.474,0,1.97,2.245,2.654,6.521,3.858,4.718,1.328,10.073,2.828,10.073,9.043,0,6.273-5.165,9.086-11.7,9.086-5.514,0-10.012-1.572-12.9-5.479l5.041-4.165a9.392,9.392,0,0,0,7.8,3.629c3.527,0,4.816-1.243,4.816-2.555,0-1.927-2.046-2.4-6.994-3.777-5.089-1.417-9.513-3.378-9.513-9.378,0-5.284,4.329-8.727,11.406-8.727,4.475,0,8.617,1.193,11.591,4.888Zm67.627-1.274a4.362,4.362,0,0,1,3.4,1.423l-2.7,5.665a3.77,3.77,0,0,0-2.313-.739c-1.717,0-3.188,1.481-3.188,4.169V99.329h-6.807V77.568h6.674v3.051C162.08,78.544,163.6,77.149,165.817,77.149Zm-39.21,7.511V99.329H119.89v-12.3c0-2.361-1.263-3.805-3.5-3.805a3.539,3.539,0,0,0-3.766,3.9v12.21H105.9V69.909h6.717V80.492a8.24,8.24,0,0,1,6.731-3.356C123.452,77.135,126.607,79.814,126.607,84.661Zm25.422,9.623V98.9a10.889,10.889,0,0,1-3.938.719c-1.853,0-3.713-.58-4.584-2.726a9.911,9.911,0,0,1-7.252,2.891c-4.491,0-7.381-2.3-7.381-6.667,0-4.281,3.463-6.839,8.816-6.839a21.878,21.878,0,0,1,5.273.657v-.713c0-2.432-1.415-3.9-4.344-3.9a8.416,8.416,0,0,0-5.341,2.128l-3.7-4.168a14.922,14.922,0,0,1,9.867-3.463c6.336,0,10.16,3.049,10.16,8.754V93.2a1.124,1.124,0,0,0,1.293,1.245A4.768,4.768,0,0,0,152.029,94.284Zm-9.064-3.731a16.48,16.48,0,0,0-3.759-.487c-2.309,0-3.455,1.135-3.455,2.694,0,1.475,1.014,2.542,3.09,2.542,2.2,0,4.124-1.317,4.124-3.312Zm75.048,6.855a2.2,2.2,0,1,1-2.2-2.18A2.039,2.039,0,0,1,218.012,97.408Zm-.362,0a1.848,1.848,0,1,0-1.842,1.888A1.718,1.718,0,0,0,217.651,97.408Zm-1.4.256.419.769h-.443l-.385-.711h-.478v.711h-.4V96.289h.91c.524,0,.8.268.8.688A.66.66,0,0,1,216.252,97.664Zm.023-.664a.345.345,0,0,0-.4-.373h-.513v.758h.455C216.112,97.385,216.275,97.291,216.275,97Z" transform="translate(-70.628 -69.336)"/>
    <rect id="Rectangle_15" data-name="Rectangle 15" width="28" height="30" transform="translate(0 30)" fill="none"/>
    <rect id="Rectangle_17" data-name="Rectangle 17" width="30" height="30" transform="translate(141)" fill="none"/>
  </g>
  <g id="Group_491" data-name="Group 491" transform="translate(9.453 9.453)" opacity="0">
    <path id="Path_413" data-name="Path 413" d="M98.19,78.423a8.638,8.638,0,0,0-6.841-3.009c-2.839,0-4.323,1.02-4.323,2.474,0,1.97,2.245,2.654,6.521,3.858,4.718,1.328,10.073,2.828,10.073,9.043,0,6.273-5.165,9.086-11.7,9.086-5.514,0-10.012-1.572-12.9-5.479l5.041-4.165a9.392,9.392,0,0,0,7.8,3.629c3.527,0,4.816-1.243,4.816-2.555,0-1.927-2.046-2.4-6.994-3.777-5.089-1.417-9.513-3.378-9.513-9.378,0-5.284,4.329-8.727,11.406-8.727,4.475,0,8.617,1.193,11.591,4.888Z" transform="translate(40.372 -18.422)"/>
    <path id="Path_415" data-name="Path 415" d="M98.19,78.423a8.638,8.638,0,0,0-6.841-3.009c-2.839,0-4.323,1.02-4.323,2.474,0,1.97,2.245,2.654,6.521,3.858,4.718,1.328,10.073,2.828,10.073,9.043,0,6.273-5.165,9.086-11.7,9.086-5.514,0-10.012-1.572-12.9-5.479l5.041-4.165a9.392,9.392,0,0,0,7.8,3.629c3.527,0,4.816-1.243,4.816-2.555,0-1.927-2.046-2.4-6.994-3.777-5.089-1.417-9.513-3.378-9.513-9.378,0-5.284,4.329-8.727,11.406-8.727,4.475,0,8.617,1.193,11.591,4.888Z" transform="translate(-48.628 -78.875)"/>
    <path id="Path_416" data-name="Path 416" d="M98.19,78.423a8.638,8.638,0,0,0-6.841-3.009c-2.839,0-4.323,1.02-4.323,2.474,0,1.97,2.245,2.654,6.521,3.858,4.718,1.328,10.073,2.828,10.073,9.043,0,6.273-5.165,9.086-11.7,9.086-5.514,0-10.012-1.572-12.9-5.479l5.041-4.165a9.392,9.392,0,0,0,7.8,3.629c3.527,0,4.816-1.243,4.816-2.555,0-1.927-2.046-2.4-6.994-3.777-5.089-1.417-9.513-3.378-9.513-9.378,0-5.284,4.329-8.727,11.406-8.727,4.475,0,8.617,1.193,11.591,4.888Z" transform="translate(-78.875 131.093) rotate(-90)"/>
    <path id="Path_417" data-name="Path 417" d="M98.19,78.423a8.638,8.638,0,0,0-6.841-3.009c-2.839,0-4.323,1.02-4.323,2.474,0,1.97,2.245,2.654,6.521,3.858,4.718,1.328,10.073,2.828,10.073,9.043,0,6.273-5.165,9.086-11.7,9.086-5.514,0-10.012-1.572-12.9-5.479l5.041-4.165a9.392,9.392,0,0,0,7.8,3.629c3.527,0,4.816-1.243,4.816-2.555,0-1.927-2.046-2.4-6.994-3.777-5.089-1.417-9.513-3.378-9.513-9.378,0-5.284,4.329-8.727,11.406-8.727,4.475,0,8.617,1.193,11.591,4.888Z" transform="translate(92.125 131.093) rotate(-90)"/>
    <path id="Path_414" data-name="Path 414" d="M98.19,78.423a8.638,8.638,0,0,0-6.841-3.009c-2.839,0-4.323,1.02-4.323,2.474,0,1.97,2.245,2.654,6.521,3.858,4.718,1.328,10.073,2.828,10.073,9.043,0,6.273-5.165,9.086-11.7,9.086-5.514,0-10.012-1.572-12.9-5.479l5.041-4.165a9.392,9.392,0,0,0,7.8,3.629c3.527,0,4.816-1.243,4.816-2.555,0-1.927-2.046-2.4-6.994-3.777-5.089-1.417-9.513-3.378-9.513-9.378,0-5.284,4.329-8.727,11.406-8.727,4.475,0,8.617,1.193,11.591,4.888Z" transform="translate(40.372 -4.196)"/>
  </g>
</svg>


