<svg xmlns="http://www.w3.org/2000/svg" width="213.999" height="70" viewBox="0 0 213.999 70">
  <path id="JetBlue_Logo" data-name="JetBlue Logo" d="M3.137,70H0V62.478H2.273a4.8,4.8,0,0,0,3.266-1,4.109,4.109,0,0,0,1.206-3.231V16.06h8V58.875a11.818,11.818,0,0,1-.865,4.547,10.149,10.149,0,0,1-2.41,3.512A10.765,10.765,0,0,1,7.8,69.2,13.315,13.315,0,0,1,3.137,70ZM192.4,56.249a21.239,21.239,0,0,1-6.2-.867,15.1,15.1,0,0,1-5.684-3.129c-3.825-3.4-5.765-8.857-5.765-16.217a29.148,29.148,0,0,1,1.48-9.706,16.926,16.926,0,0,1,3.833-6.305,14.489,14.489,0,0,1,5.274-3.412,16.867,16.867,0,0,1,17.3,3.51,15.648,15.648,0,0,1,3.576,5.282,18.058,18.058,0,0,1,1.326,6.949v6.581H182.757a9.916,9.916,0,0,0,2.686,7.335,9.524,9.524,0,0,0,6.805,2.458,12.454,12.454,0,0,0,8.706-3.839l5.8,4.935a18.176,18.176,0,0,1-6.648,4.916A19.519,19.519,0,0,1,192.4,56.249ZM191.147,23.11a7.931,7.931,0,0,0-5.9,2.36,10.125,10.125,0,0,0-2.49,6.885h16.784a10.381,10.381,0,0,0-2.519-6.885A7.869,7.869,0,0,0,191.147,23.11ZM152.025,56.249a13.567,13.567,0,0,1-9.02-3.516,13.4,13.4,0,0,1-4.314-10.272V16.06h8V39.718a8.828,8.828,0,0,0,2.254,6.3,7.659,7.659,0,0,0,5.666,2.243,7.544,7.544,0,0,0,5.6-2.243,8.862,8.862,0,0,0,2.245-6.3V16.06h8V55.779h-8V51.547H162.3A12.674,12.674,0,0,1,152.025,56.249Zm-114.471,0a21.238,21.238,0,0,1-6.2-.867,15.1,15.1,0,0,1-5.683-3.129c-3.825-3.4-5.764-8.857-5.764-16.217a29.148,29.148,0,0,1,1.48-9.706,16.927,16.927,0,0,1,3.833-6.305A14.489,14.489,0,0,1,30.5,16.614a16.864,16.864,0,0,1,17.294,3.51,15.649,15.649,0,0,1,3.576,5.282,18.061,18.061,0,0,1,1.326,6.949v6.581H27.908a9.916,9.916,0,0,0,2.687,7.335,9.523,9.523,0,0,0,6.8,2.458,12.452,12.452,0,0,0,8.707-3.839l5.8,4.935a18.177,18.177,0,0,1-6.648,4.916A19.516,19.516,0,0,1,37.554,56.249ZM36.3,23.11a7.933,7.933,0,0,0-5.9,2.36,10.127,10.127,0,0,0-2.491,6.885H44.694a10.383,10.383,0,0,0-2.52-6.885A7.868,7.868,0,0,0,36.3,23.11ZM135.32,55.779h-3.53c-3.117,0-5.564-.722-7.274-2.145-1.939-1.614-2.922-4.134-2.922-7.492V0h8V45.517c0,1.793,1.031,2.741,2.981,2.741h2.745v7.52Zm-33.854,0H77.935V0H99.582a21.9,21.9,0,0,1,7.185,1.1,14.171,14.171,0,0,1,5.178,3.087,14.424,14.424,0,0,1,4.187,10.772,12.466,12.466,0,0,1-1.677,6.639A13.878,13.878,0,0,1,107.9,26.95v.156a10.967,10.967,0,0,1,6.842,4.838,14.873,14.873,0,0,1,2.255,8.011,17.018,17.018,0,0,1-1.246,6.538,14.778,14.778,0,0,1-3.371,4.988A15.527,15.527,0,0,1,101.465,55.779ZM86.405,31.023V47.788h13.02a9.3,9.3,0,0,0,6.9-2.546,8.318,8.318,0,0,0,2.2-5.836,8.321,8.321,0,0,0-2.2-5.838,9.3,9.3,0,0,0-6.9-2.546Zm0-23.5V23.5H98.64a9.522,9.522,0,0,0,6.805-2.35,7.647,7.647,0,0,0,2.215-5.641,7.739,7.739,0,0,0-2.215-5.61A9.482,9.482,0,0,0,98.64,7.522ZM72.836,55.779H68.681a9.673,9.673,0,0,1-6.912-2.546,9.8,9.8,0,0,1-2.736-7.246V22.17h-4V16.06h4V4h8V16.06h5.8V22.17h-5.8V45.282a3.161,3.161,0,0,0,.677,2.31,2.854,2.854,0,0,0,2.147.666h2.979v7.52ZM210.461,22.441A3.534,3.534,0,1,1,214,18.907,3.54,3.54,0,0,1,210.461,22.441Zm0-6.366a2.712,2.712,0,0,0-2.776,2.831,2.777,2.777,0,1,0,5.552,0A2.712,2.712,0,0,0,210.461,16.076Zm-.635,4.8h-.7V16.75h1.564c.966,0,1.417.391,1.417,1.23a1.082,1.082,0,0,1-1.057,1.2l1.182,1.688-.82,0-1.183-1.67h-.4v1.67Zm0-3.477h0v1.162h.489c.572,0,1.084-.044,1.084-.576,0-.389-.312-.586-.929-.586h-.644Zm-195.08-9.4h-8V0h8V7.99Z" fill="#00a"/>
</svg>
