<?xml version="1.0" encoding="utf-8"?>
<!-- Generator: Adobe Illustrator 26.4.1, SVG Export Plug-In . SVG Version: 6.00 Build 0)  -->
<svg version="1.1" id="Layer_1" xmlns="http://www.w3.org/2000/svg" xmlns:xlink="http://www.w3.org/1999/xlink" x="0px" y="0px"
	 viewBox="0 0 135 671" style="enable-background:new 0 0 135 671;" xml:space="preserve">
<style type="text/css">
	.st0{display:none;opacity:5.000000e-02;}
	.st1{display:inline;}
	.st2{enable-background:new    ;}
</style>
<g id="Group_324" transform="translate(3886.319 -1041.232)" class="st0">
	<g id="Group_334" transform="translate(-3886.319 1641.173)" class="st1">
		<g class="st2">
			<path d="M22.8,29.3H11.2v12.3H1.9V8.9h9.3v12.4h11.6V8.9H32v32.6h-9.3L22.8,29.3L22.8,29.3z"/>
			<path d="M51.1,8.2c11.5,0,16.2,5.7,16.2,17s-5.2,17-16.3,17c-11.4,0-16.1-5.8-16.1-17.1C34.9,13.9,40.1,8.2,51.1,8.2z M51,34.6
				c4.6,0,6.8-2.5,6.8-9.4c0-6.8-2.3-9.3-6.8-9.3c-4.6,0-6.9,2.4-6.9,9.4C44.2,32.1,46.5,34.6,51,34.6z"/>
			<path d="M91,29.3H79.4v12.3h-9.3V8.9h9.3v12.4H91V8.9h9.3v32.6H91V29.3z"/>
			<path d="M104.8,8.9h25.4v7.2h-16.4v5.3H128v7.3h-14.1v5.5h16.8v7.3h-25.9C104.8,41.5,104.8,8.9,104.8,8.9z"/>
		</g>
		<g class="st2">
			<path d="M10.6,52.4c-0.7-1-1.5-1.6-2.9-1.6c-1.5,0-2,0.6-2,1.3s0.5,1.1,2,1.4L9,53.8c3.6,0.8,4.6,2.5,4.6,4.6
				c0,2.9-2.1,4.8-6.3,4.8c-2.4,0-4.7-0.7-5.9-2.9l2.6-2c0.7,1.3,1.8,2,3.4,2c1.5,0,2.4-0.5,2.4-1.3c0-0.7-0.4-1-1.8-1.3l-1.4-0.3
				C3,56.6,2,54.6,2,52.6c0-2.9,2-4.8,6-4.8c2.2,0,4.3,0.8,5.4,2.8L10.6,52.4z"/>
			<path d="M27.4,47.9v3.6H23v11.3h-4.2V51.6h-4.3V48L27.4,47.9L27.4,47.9z"/>
			<path d="M36.1,60.8H31l-0.6,2h-4.2l4.9-14.9h5.1l4.9,14.9h-4.3L36.1,60.8z M31.9,57.6h3.3l-1.6-5.5L31.9,57.6z"/>
			<path d="M46.5,54.7l0.1,8.1h-4V47.9h3.1l6.7,8.8l-0.1-8.8h4v14.9h-3.6L46.5,54.7z"/>
			<path d="M59.5,47.9h6.7c4.7,0,6.8,2.3,6.8,7.3c0,4.9-2.2,7.6-7.2,7.6h-6.4L59.5,47.9L59.5,47.9z M68.8,55.3c0-2.7-1-4-2.9-4h-2.2
				v8.1h1.8C67.6,59.4,68.8,58.4,68.8,55.3z"/>
			<path d="M83.1,60.8H78l-0.6,2h-4.2l4.9-14.9h5.1l4.9,14.9h-4.3L83.1,60.8z M79,57.6h3.3l-1.6-5.5L79,57.6z"/>
			<path d="M89.7,47.9h7.8c3.3,0,5,2.1,5,5.1c0,2.1-0.8,3.6-2.3,4.4l2.4,5.3H98l-1.8-4.5h-2.3v4.5h-4.2V47.9z M93.8,51.4v3.5h2.8
				c1.1,0,1.7-0.6,1.7-1.8c0-0.9-0.5-1.7-1.7-1.7H93.8z"/>
			<path d="M104.7,47.9h6.7c4.7,0,6.8,2.3,6.8,7.3c0,4.9-2.2,7.6-7.2,7.6h-6.4L104.7,47.9L104.7,47.9z M114,55.3c0-2.7-1-4-2.9-4
				H109v8.1h1.8C112.8,59.4,114,58.4,114,55.3z"/>
			<path d="M128.5,52.4c-0.7-1-1.5-1.6-2.9-1.6c-1.5,0-2,0.6-2,1.3s0.5,1.1,2,1.4l1.3,0.3c3.6,0.8,4.6,2.5,4.6,4.6
				c0,2.9-2.1,4.8-6.3,4.8c-2.4,0-4.7-0.7-5.9-2.9l2.6-2c0.7,1.3,1.8,2,3.4,2c1.5,0,2.4-0.5,2.4-1.3c0-0.7-0.4-1-1.8-1.3l-1.4-0.3
				c-3.6-0.8-4.6-2.8-4.6-4.8c0-2.9,2-4.8,6-4.8c2.2,0,4.3,0.8,5.4,2.8L128.5,52.4z"/>
		</g>
	</g>
	<g id="Group_344" transform="translate(-3886.319 1581.173)" class="st1">
		<g class="st2">
			<path d="M22.8,28.5H11.2v12.3H1.9V8.1h9.3v12.4h11.6V8.1H32v32.6h-9.3L22.8,28.5L22.8,28.5z"/>
			<path d="M51.1,7.4c11.5,0,16.2,5.7,16.2,17s-5.2,17-16.3,17c-11.4,0-16.1-5.8-16.1-17.1C34.9,13.1,40.1,7.4,51.1,7.4z M51,33.8
				c4.6,0,6.8-2.5,6.8-9.4c0-6.8-2.3-9.3-6.8-9.3c-4.6,0-6.9,2.4-6.9,9.4C44.2,31.3,46.5,33.8,51,33.8z"/>
			<path d="M91,28.5H79.4v12.3h-9.3V8.1h9.3v12.4H91V8.1h9.3v32.6H91V28.5z"/>
			<path d="M104.8,8.1h25.4v7.2h-16.4v5.3H128v7.3h-14.1v5.5h16.8v7.3h-25.9C104.8,40.7,104.8,8.1,104.8,8.1z"/>
		</g>
		<g class="st2">
			<path d="M10.6,51.6c-0.7-1-1.5-1.6-2.9-1.6c-1.5,0-2,0.6-2,1.3s0.5,1.1,2,1.4L9,52.9c3.6,0.8,4.6,2.5,4.6,4.6
				c0,2.9-2.1,4.8-6.3,4.8c-2.4,0-4.7-0.7-5.9-2.9l2.6-2c0.7,1.3,1.8,2,3.4,2c1.5,0,2.4-0.5,2.4-1.3c0-0.7-0.4-1-1.8-1.3l-1.4-0.3
				C3,55.7,2,53.7,2,51.7c0-2.9,2-4.8,6-4.8c2.2,0,4.3,0.8,5.4,2.8L10.6,51.6z"/>
			<path d="M27.4,47.1v3.6H23V62h-4.2V50.8h-4.3v-3.6h12.9V47.1z"/>
			<path d="M36.1,60H31l-0.6,2h-4.2l4.9-14.9h5.1L41.1,62h-4.3L36.1,60z M31.9,56.8h3.3l-1.6-5.5L31.9,56.8z"/>
			<path d="M46.5,53.9l0.1,8.1h-4V47.1h3.1l6.7,8.8l-0.1-8.8h4V62h-3.6L46.5,53.9z"/>
			<path d="M59.5,47.1h6.7c4.7,0,6.8,2.3,6.8,7.3c0,4.9-2.2,7.6-7.2,7.6h-6.4L59.5,47.1L59.5,47.1z M68.8,54.5c0-2.7-1-4-2.9-4h-2.2
				v8.1h1.8C67.6,58.6,68.8,57.6,68.8,54.5z"/>
			<path d="M83.1,60H78l-0.6,2h-4.2l4.9-14.9h5.1L88.1,62h-4.3L83.1,60z M79,56.8h3.3l-1.6-5.5L79,56.8z"/>
			<path d="M89.7,47.1h7.8c3.3,0,5,2.1,5,5.1c0,2.1-0.8,3.6-2.3,4.4l2.4,5.3H98l-1.8-4.5h-2.3V62h-4.2V47.1z M93.8,50.6v3.5h2.8
				c1.1,0,1.7-0.6,1.7-1.8c0-0.9-0.5-1.7-1.7-1.7H93.8z"/>
			<path d="M104.7,47.1h6.7c4.7,0,6.8,2.3,6.8,7.3c0,4.9-2.2,7.6-7.2,7.6h-6.4L104.7,47.1L104.7,47.1z M114,54.5c0-2.7-1-4-2.9-4
				H109v8.1h1.8C112.8,58.6,114,57.6,114,54.5z"/>
			<path d="M128.5,51.6c-0.7-1-1.5-1.6-2.9-1.6c-1.5,0-2,0.6-2,1.3s0.5,1.1,2,1.4l1.3,0.3c3.6,0.8,4.6,2.5,4.6,4.6
				c0,2.9-2.1,4.8-6.3,4.8c-2.4,0-4.7-0.7-5.9-2.9l2.6-2c0.7,1.3,1.8,2,3.4,2c1.5,0,2.4-0.5,2.4-1.3c0-0.7-0.4-1-1.8-1.3l-1.4-0.3
				c-3.6-0.8-4.6-2.8-4.6-4.8c0-2.9,2-4.8,6-4.8c2.2,0,4.3,0.8,5.4,2.8L128.5,51.6z"/>
		</g>
	</g>
	<g id="Group_345" transform="translate(-3886.319 1521.173)" class="st1">
		<g class="st2">
			<path d="M22.8,27.7H11.2V40H1.9V7.3h9.3v12.4h11.6V7.3H32v32.6h-9.3L22.8,27.7L22.8,27.7z"/>
			<path d="M51.1,6.6c11.5,0,16.2,5.7,16.2,17s-5.2,17-16.3,17c-11.4,0-16.1-5.8-16.1-17.1C34.9,12.3,40.1,6.6,51.1,6.6z M51,33
				c4.6,0,6.8-2.5,6.8-9.4c0-6.8-2.3-9.3-6.8-9.3c-4.6,0-6.9,2.4-6.9,9.4C44.2,30.5,46.5,33,51,33z"/>
			<path d="M91,27.7H79.4V40h-9.3V7.3h9.3v12.4H91V7.3h9.3v32.6H91V27.7z"/>
			<path d="M104.8,7.3h25.4v7.2h-16.4v5.3H128v7.3h-14.1v5.5h16.8v7.3h-25.9C104.8,39.9,104.8,7.3,104.8,7.3z"/>
		</g>
		<g class="st2">
			<path d="M10.6,50.8c-0.7-1-1.5-1.6-2.9-1.6c-1.5,0-2,0.6-2,1.3s0.5,1.1,2,1.4L9,52.1c3.6,0.8,4.6,2.5,4.6,4.6
				c0,2.9-2.1,4.8-6.3,4.8c-2.4,0-4.7-0.7-5.9-2.9l2.6-2c0.7,1.3,1.8,2,3.4,2c1.5,0,2.4-0.5,2.4-1.3c0-0.7-0.4-1-1.8-1.3l-1.4-0.3
				C3,54.9,2,52.9,2,50.9c0-2.9,2-4.8,6-4.8c2.2,0,4.3,0.8,5.4,2.8L10.6,50.8z"/>
			<path d="M27.4,46.3V50H23v11.3h-4.2V50h-4.3v-3.6h12.9V46.3z"/>
			<path d="M36.1,59.2H31l-0.6,2h-4.2l4.9-14.9h5.1l4.9,14.9h-4.3L36.1,59.2z M31.9,56h3.3l-1.6-5.5L31.9,56z"/>
			<path d="M46.5,53.1l0.1,8.1h-4V46.3h3.1l6.7,8.8l-0.1-8.8h4v14.9h-3.6L46.5,53.1z"/>
			<path d="M59.5,46.3h6.7c4.7,0,6.8,2.3,6.8,7.3c0,4.9-2.2,7.6-7.2,7.6h-6.4L59.5,46.3L59.5,46.3z M68.8,53.7c0-2.7-1-4-2.9-4h-2.2
				v8.1h1.8C67.6,57.8,68.8,56.8,68.8,53.7z"/>
			<path d="M83.1,59.2H78l-0.6,2h-4.2l4.9-14.9h5.1l4.9,14.9h-4.3L83.1,59.2z M79,56h3.3l-1.6-5.5L79,56z"/>
			<path d="M89.7,46.3h7.8c3.3,0,5,2.1,5,5.1c0,2.1-0.8,3.6-2.3,4.4l2.4,5.3H98l-1.8-4.5h-2.3v4.5h-4.2V46.3z M93.8,49.8v3.5h2.8
				c1.1,0,1.7-0.6,1.7-1.8c0-0.9-0.5-1.7-1.7-1.7H93.8z"/>
			<path d="M104.7,46.3h6.7c4.7,0,6.8,2.3,6.8,7.3c0,4.9-2.2,7.6-7.2,7.6h-6.4L104.7,46.3L104.7,46.3z M114,53.7c0-2.7-1-4-2.9-4
				H109v8.1h1.8C112.8,57.8,114,56.8,114,53.7z"/>
			<path d="M128.5,50.8c-0.7-1-1.5-1.6-2.9-1.6c-1.5,0-2,0.6-2,1.3s0.5,1.1,2,1.4l1.3,0.3c3.6,0.8,4.6,2.5,4.6,4.6
				c0,2.9-2.1,4.8-6.3,4.8c-2.4,0-4.7-0.7-5.9-2.9l2.6-2c0.7,1.3,1.8,2,3.4,2c1.5,0,2.4-0.5,2.4-1.3c0-0.7-0.4-1-1.8-1.3l-1.4-0.3
				c-3.6-0.8-4.6-2.8-4.6-4.8c0-2.9,2-4.8,6-4.8c2.2,0,4.3,0.8,5.4,2.8L128.5,50.8z"/>
		</g>
	</g>
	<g id="Group_346" transform="translate(-3886.319 1461.173)" class="st1">
		<g class="st2">
			<path d="M22.8,26.9H11.2v12.3H1.9V6.5h9.3v12.4h11.6V6.5H32v32.6h-9.3L22.8,26.9L22.8,26.9z"/>
			<path d="M51.1,5.8c11.5,0,16.2,5.7,16.2,17s-5.2,17-16.3,17c-11.4,0-16.1-5.8-16.1-17.1C34.9,11.5,40.1,5.8,51.1,5.8z M51,32.2
				c4.6,0,6.8-2.5,6.8-9.4c0-6.8-2.3-9.3-6.8-9.3c-4.6,0-6.9,2.4-6.9,9.4C44.2,29.7,46.5,32.2,51,32.2z"/>
			<path d="M91,26.9H79.4v12.3h-9.3V6.5h9.3v12.4H91V6.5h9.3v32.6H91V26.9z"/>
			<path d="M104.8,6.5h25.4v7.2h-16.4V19H128v7.3h-14.1v5.5h16.8v7.3h-25.9C104.8,39.1,104.8,6.5,104.8,6.5z"/>
		</g>
		<g class="st2">
			<path d="M10.6,50c-0.7-1-1.5-1.6-2.9-1.6c-1.5,0-2,0.6-2,1.3s0.5,1.1,2,1.4L9,51.3c3.6,0.8,4.6,2.5,4.6,4.6
				c0,2.9-2.1,4.8-6.3,4.8c-2.4,0-4.7-0.7-5.9-2.9l2.6-2c0.7,1.3,1.8,2,3.4,2c1.5,0,2.4-0.5,2.4-1.3c0-0.7-0.4-1-1.8-1.3l-1.4-0.3
				C3,54,1.9,52,1.9,50c0-2.9,2-4.8,6-4.8c2.2,0,4.3,0.8,5.4,2.8L10.6,50z"/>
			<path d="M27.4,45.5v3.6H23v11.3h-4.2V49.1h-4.3v-3.6H27.4z"/>
			<path d="M36.1,58.4H31l-0.6,2h-4.2l4.9-14.9h5.1l4.9,14.9h-4.3L36.1,58.4z M31.9,55.2h3.3l-1.6-5.5L31.9,55.2z"/>
			<path d="M46.5,52.3l0.1,8.1h-4V45.5h3.1l6.7,8.8l-0.1-8.8h4v14.9h-3.6L46.5,52.3z"/>
			<path d="M59.5,45.5h6.7c4.7,0,6.8,2.3,6.8,7.3c0,4.9-2.2,7.6-7.2,7.6h-6.4L59.5,45.5L59.5,45.5z M68.8,52.9c0-2.7-1-4-2.9-4h-2.2
				V57h1.8C67.6,57,68.8,56,68.8,52.9z"/>
			<path d="M83.1,58.4H78l-0.6,2h-4.2l4.9-14.9h5.1l4.9,14.9h-4.3L83.1,58.4z M79,55.2h3.3l-1.6-5.5L79,55.2z"/>
			<path d="M89.7,45.5h7.8c3.3,0,5,2.1,5,5.1c0,2.1-0.8,3.6-2.3,4.4l2.4,5.3H98l-1.8-4.5h-2.3v4.5h-4.2V45.5z M93.8,49v3.5h2.8
				c1.1,0,1.7-0.6,1.7-1.8c0-0.9-0.5-1.7-1.7-1.7H93.8z"/>
			<path d="M104.7,45.5h6.7c4.7,0,6.8,2.3,6.8,7.3c0,4.9-2.2,7.6-7.2,7.6h-6.4L104.7,45.5L104.7,45.5z M114,52.9c0-2.7-1-4-2.9-4
				H109V57h1.8C112.8,57,114,56,114,52.9z"/>
			<path d="M128.5,50c-0.7-1-1.5-1.6-2.9-1.6c-1.5,0-2,0.6-2,1.3s0.5,1.1,2,1.4l1.3,0.3c3.6,0.8,4.6,2.5,4.6,4.6
				c0,2.9-2.1,4.8-6.3,4.8c-2.4,0-4.7-0.7-5.9-2.9l2.6-2c0.7,1.3,1.8,2,3.4,2c1.5,0,2.4-0.5,2.4-1.3c0-0.7-0.4-1-1.8-1.3l-1.4-0.3
				c-3.6-0.8-4.6-2.8-4.6-4.8c0-2.9,2-4.8,6-4.8c2.2,0,4.3,0.8,5.4,2.8L128.5,50z"/>
		</g>
	</g>
	<g id="Group_347" transform="translate(-3886.319 1401.173)" class="st1">
		<g class="st2">
			<path d="M22.8,26.1H11.2v12.3H1.9V5.7h9.3v12.4h11.6V5.7H32v32.6h-9.3L22.8,26.1L22.8,26.1z"/>
			<path d="M51.1,5c11.5,0,16.2,5.7,16.2,17S62.1,39,51,39c-11.3,0-16.1-5.7-16.1-17S40.1,5,51.1,5z M51,31.4c4.6,0,6.8-2.5,6.8-9.4
				c0-6.8-2.3-9.3-6.8-9.3c-4.6,0-6.9,2.4-6.9,9.4C44.2,28.9,46.5,31.4,51,31.4z"/>
			<path d="M91,26.1H79.4v12.3h-9.3V5.7h9.3v12.4H91V5.7h9.3v32.6H91V26.1z"/>
			<path d="M104.8,5.7h25.4v7.2h-16.4v5.3H128v7.3h-14.1V31h16.8v7.3h-25.9C104.8,38.3,104.8,5.7,104.8,5.7z"/>
		</g>
		<g class="st2">
			<path d="M10.6,49.2c-0.7-1-1.5-1.6-2.9-1.6c-1.5,0-2,0.6-2,1.3s0.5,1.1,2,1.4L9,50.5c3.6,0.8,4.6,2.5,4.6,4.6
				c0,2.9-2.1,4.8-6.3,4.8c-2.4,0-4.7-0.7-5.9-2.9L4,55c0.7,1.3,1.8,2,3.4,2c1.5,0,2.4-0.5,2.4-1.3c0-0.7-0.4-1-1.8-1.3L6.5,54
				c-3.6-0.8-4.6-2.8-4.6-4.8c0-2.9,2-4.8,6-4.8c2.2,0,4.3,0.8,5.4,2.8L10.6,49.2z"/>
			<path d="M27.4,44.7v3.6H23v11.3h-4.2V48.3h-4.3v-3.6H27.4z"/>
			<path d="M36.1,57.6H31l-0.6,2h-4.2l4.9-14.9h5.1l4.9,14.9h-4.3L36.1,57.6z M31.9,54.4h3.3l-1.6-5.5L31.9,54.4z"/>
			<path d="M46.5,51.5l0.1,8.1h-4V44.7h3.1l6.7,8.8l-0.1-8.8h4v14.9h-3.6L46.5,51.5z"/>
			<path d="M59.5,44.7h6.7c4.7,0,6.8,2.3,6.8,7.3c0,4.9-2.2,7.6-7.2,7.6h-6.4L59.5,44.7L59.5,44.7z M68.8,52.1c0-2.7-1-4-2.9-4h-2.2
				v8.1h1.8C67.6,56.2,68.8,55.1,68.8,52.1z"/>
			<path d="M83.1,57.6H78l-0.6,2h-4.2l4.9-14.9h5.1l4.9,14.9h-4.3L83.1,57.6z M79,54.4h3.3l-1.6-5.5L79,54.4z"/>
			<path d="M89.7,44.7h7.8c3.3,0,5,2.1,5,5.1c0,2.1-0.8,3.6-2.3,4.4l2.4,5.3H98L96.2,55h-2.3v4.5h-4.2V44.7z M93.8,48.2v3.5h2.8
				c1.1,0,1.7-0.6,1.7-1.8c0-0.9-0.5-1.7-1.7-1.7H93.8z"/>
			<path d="M104.7,44.7h6.7c4.7,0,6.8,2.3,6.8,7.3c0,4.9-2.2,7.6-7.2,7.6h-6.4L104.7,44.7L104.7,44.7z M114,52.1c0-2.7-1-4-2.9-4
				H109v8.1h1.8C112.8,56.2,114,55.1,114,52.1z"/>
			<path d="M128.5,49.2c-0.7-1-1.5-1.6-2.9-1.6c-1.5,0-2,0.6-2,1.3s0.5,1.1,2,1.4l1.3,0.3c3.6,0.8,4.6,2.5,4.6,4.6
				c0,2.9-2.1,4.8-6.3,4.8c-2.4,0-4.7-0.7-5.9-2.9l2.6-2c0.7,1.3,1.8,2,3.4,2c1.5,0,2.4-0.5,2.4-1.3c0-0.7-0.4-1-1.8-1.3l-1.4-0.3
				c-3.6-0.8-4.6-2.8-4.6-4.8c0-2.9,2-4.8,6-4.8c2.2,0,4.3,0.8,5.4,2.8L128.5,49.2z"/>
		</g>
	</g>
	<g id="Group_348" transform="translate(-3886.319 1341.173)" class="st1">
		<g class="st2">
			<path d="M22.8,25.3H11.2v12.3H1.9V4.9h9.3v12.4h11.6V4.9H32v32.6h-9.3L22.8,25.3L22.8,25.3z"/>
			<path d="M51.1,4.2c11.5,0,16.2,5.7,16.2,17s-5.2,17-16.3,17c-11.4,0-16.1-5.8-16.1-17.1C34.9,9.9,40.1,4.2,51.1,4.2z M51,30.6
				c4.6,0,6.8-2.5,6.8-9.4c0-6.8-2.3-9.3-6.8-9.3c-4.6,0-6.9,2.4-6.9,9.4C44.2,28.1,46.5,30.6,51,30.6z"/>
			<path d="M91,25.3H79.4v12.3h-9.3V4.9h9.3v12.4H91V4.9h9.3v32.6H91V25.3z"/>
			<path d="M104.8,4.9h25.4v7.2h-16.4v5.3H128v7.3h-14.1v5.5h16.8v7.3h-25.9C104.8,37.5,104.8,4.9,104.8,4.9z"/>
		</g>
		<g class="st2">
			<path d="M10.6,48.4c-0.7-1-1.5-1.6-2.9-1.6c-1.5,0-2,0.6-2,1.3s0.5,1.1,2,1.4L9,49.7c3.6,0.8,4.6,2.5,4.6,4.6
				c0,2.9-2.1,4.8-6.3,4.8c-2.4,0-4.7-0.7-5.9-2.9l2.6-2c0.7,1.3,1.8,2,3.4,2c1.5,0,2.4-0.5,2.4-1.3c0-0.7-0.4-1-1.8-1.3l-1.4-0.3
				C3,52.5,2,50.5,2,48.5c0-2.9,2-4.8,6-4.8c2.2,0,4.3,0.8,5.4,2.8L10.6,48.4z"/>
			<path d="M27.4,43.9v3.6H23v11.3h-4.2V47.5h-4.3v-3.6H27.4z"/>
			<path d="M36.1,56.8H31l-0.6,2h-4.2l4.9-14.9h5.1l4.9,14.9h-4.3L36.1,56.8z M31.9,53.6h3.3l-1.6-5.5L31.9,53.6z"/>
			<path d="M46.5,50.7l0.1,8.1h-4V43.9h3.1l6.7,8.8l-0.1-8.8h4v14.9h-3.6L46.5,50.7z"/>
			<path d="M59.5,43.9h6.7c4.7,0,6.8,2.3,6.8,7.3c0,4.9-2.2,7.6-7.2,7.6h-6.4L59.5,43.9L59.5,43.9z M68.8,51.3c0-2.7-1-4-2.9-4h-2.2
				v8.1h1.8C67.6,55.4,68.8,54.3,68.8,51.3z"/>
			<path d="M83.1,56.8H78l-0.6,2h-4.2l4.9-14.9h5.1l4.9,14.9h-4.3L83.1,56.8z M79,53.6h3.3l-1.6-5.5L79,53.6z"/>
			<path d="M89.7,43.9h7.8c3.3,0,5,2.1,5,5.1c0,2.1-0.8,3.6-2.3,4.4l2.4,5.3H98l-1.8-4.5h-2.3v4.5h-4.2V43.9z M93.8,47.4v3.5h2.8
				c1.1,0,1.7-0.6,1.7-1.8c0-0.9-0.5-1.7-1.7-1.7H93.8z"/>
			<path d="M104.7,43.9h6.7c4.7,0,6.8,2.3,6.8,7.3c0,4.9-2.2,7.6-7.2,7.6h-6.4L104.7,43.9L104.7,43.9z M114,51.3c0-2.7-1-4-2.9-4
				H109v8.1h1.8C112.8,55.4,114,54.3,114,51.3z"/>
			<path d="M128.5,48.4c-0.7-1-1.5-1.6-2.9-1.6c-1.5,0-2,0.6-2,1.3s0.5,1.1,2,1.4l1.3,0.3c3.6,0.8,4.6,2.5,4.6,4.6
				c0,2.9-2.1,4.8-6.3,4.8c-2.4,0-4.7-0.7-5.9-2.9l2.6-2c0.7,1.3,1.8,2,3.4,2c1.5,0,2.4-0.5,2.4-1.3c0-0.7-0.4-1-1.8-1.3l-1.4-0.3
				c-3.6-0.8-4.6-2.8-4.6-4.8c0-2.9,2-4.8,6-4.8c2.2,0,4.3,0.8,5.4,2.8L128.5,48.4z"/>
		</g>
	</g>
	<g id="Group_349" transform="translate(-3886.319 1281.173)" class="st1">
		<g class="st2">
			<path d="M22.8,24.5H11.2v12.3H1.9V4.1h9.3v12.4h11.6V4.1H32v32.6h-9.3L22.8,24.5L22.8,24.5z"/>
			<path d="M51.1,3.4c11.5,0,16.2,5.7,16.2,17s-5.2,17-16.3,17c-11.4,0-16.1-5.8-16.1-17.1C34.9,9.1,40.1,3.4,51.1,3.4z M51,29.8
				c4.6,0,6.8-2.5,6.8-9.4c0-6.8-2.3-9.3-6.8-9.3c-4.6,0-6.9,2.4-6.9,9.4C44.2,27.3,46.5,29.8,51,29.8z"/>
			<path d="M91,24.5H79.4v12.3h-9.3V4.1h9.3v12.4H91V4.1h9.3v32.6H91V24.5z"/>
			<path d="M104.8,4.1h25.4v7.2h-16.4v5.3H128v7.3h-14.1v5.5h16.8v7.3h-25.9C104.8,36.7,104.8,4.1,104.8,4.1z"/>
		</g>
		<g class="st2">
			<path d="M10.6,47.6c-0.7-1-1.5-1.6-2.9-1.6c-1.5,0-2,0.6-2,1.3s0.5,1.1,2,1.4L9,48.9c3.6,0.8,4.6,2.5,4.6,4.6
				c0,2.9-2.1,4.8-6.3,4.8c-2.4,0-4.7-0.7-5.9-2.9l2.6-2c0.7,1.3,1.8,2,3.4,2c1.5,0,2.4-0.5,2.4-1.3c0-0.7-0.4-1-1.8-1.3l-1.4-0.3
				C3,51.7,2,49.7,2,47.7c0-2.9,2-4.8,6-4.8c2.2,0,4.3,0.8,5.4,2.8L10.6,47.6z"/>
			<path d="M27.4,43.1v3.6H23V58h-4.2V46.7h-4.3v-3.6C14.5,43.1,27.4,43.1,27.4,43.1z"/>
			<path d="M36.1,56H31l-0.6,2h-4.2l4.9-14.9h5.1L41.1,58h-4.3L36.1,56z M31.9,52.8h3.3l-1.6-5.5L31.9,52.8z"/>
			<path d="M46.5,49.9l0.1,8.1h-4V43.1h3.1l6.7,8.8l-0.1-8.8h4V58h-3.6L46.5,49.9z"/>
			<path d="M59.5,43.1h6.7c4.7,0,6.8,2.3,6.8,7.3c0,4.9-2.2,7.6-7.2,7.6h-6.4L59.5,43.1L59.5,43.1z M68.8,50.5c0-2.7-1-4-2.9-4h-2.2
				v8.1h1.8C67.6,54.6,68.8,53.5,68.8,50.5z"/>
			<path d="M83.1,56H78l-0.6,2h-4.2l4.9-14.9h5.1L88.1,58h-4.3L83.1,56z M79,52.8h3.3l-1.6-5.5L79,52.8z"/>
			<path d="M89.7,43.1h7.8c3.3,0,5,2.1,5,5.1c0,2.1-0.8,3.6-2.3,4.4l2.4,5.3H98l-1.8-4.5h-2.3V58h-4.2V43.1z M93.8,46.6v3.5h2.8
				c1.1,0,1.7-0.6,1.7-1.8c0-0.9-0.5-1.7-1.7-1.7H93.8z"/>
			<path d="M104.7,43.1h6.7c4.7,0,6.8,2.3,6.8,7.3c0,4.9-2.2,7.6-7.2,7.6h-6.4L104.7,43.1L104.7,43.1z M114,50.5c0-2.7-1-4-2.9-4
				H109v8.1h1.8C112.8,54.6,114,53.5,114,50.5z"/>
			<path d="M128.5,47.6c-0.7-1-1.5-1.6-2.9-1.6c-1.5,0-2,0.6-2,1.3s0.5,1.1,2,1.4l1.3,0.3c3.6,0.8,4.6,2.5,4.6,4.6
				c0,2.9-2.1,4.8-6.3,4.8c-2.4,0-4.7-0.7-5.9-2.9l2.6-2c0.7,1.3,1.8,2,3.4,2c1.5,0,2.4-0.5,2.4-1.3c0-0.7-0.4-1-1.8-1.3l-1.4-0.3
				c-3.6-0.8-4.6-2.8-4.6-4.8c0-2.9,2-4.8,6-4.8c2.2,0,4.3,0.8,5.4,2.8L128.5,47.6z"/>
		</g>
	</g>
	<g id="Group_350" transform="translate(-3886.319 1221.173)" class="st1">
		<g class="st2">
			<path d="M22.8,23.7H11.2V36H1.9V3.3h9.3v12.4h11.6V3.3H32v32.6h-9.3L22.8,23.7L22.8,23.7z"/>
			<path d="M51.1,2.6c11.5,0,16.2,5.7,16.2,17s-5.2,17-16.3,17c-11.4,0-16.1-5.8-16.1-17.1C34.9,8.3,40.1,2.6,51.1,2.6z M51,29
				c4.6,0,6.8-2.5,6.8-9.4c0-6.8-2.3-9.3-6.8-9.3c-4.6,0-6.9,2.4-6.9,9.4C44.2,26.5,46.5,29,51,29z"/>
			<path d="M91,23.7H79.4V36h-9.3V3.3h9.3v12.4H91V3.3h9.3v32.6H91V23.7z"/>
			<path d="M104.8,3.3h25.4v7.2h-16.4v5.3H128v7.3h-14.1v5.5h16.8v7.3h-25.9C104.8,35.9,104.8,3.3,104.8,3.3z"/>
		</g>
		<g class="st2">
			<path d="M10.6,46.8c-0.7-1-1.5-1.6-2.9-1.6c-1.5,0-2,0.6-2,1.3s0.5,1.1,2,1.4L9,48.1c3.6,0.8,4.6,2.5,4.6,4.6
				c0,2.9-2.1,4.8-6.3,4.8c-2.4,0-4.7-0.7-5.9-2.9l2.6-2c0.7,1.3,1.8,2,3.4,2c1.5,0,2.4-0.5,2.4-1.3c0-0.7-0.4-1-1.8-1.3l-1.4-0.3
				C3,50.9,2,48.9,2,46.9c0-2.9,2-4.8,6-4.8c2.2,0,4.3,0.8,5.4,2.8L10.6,46.8z"/>
			<path d="M27.4,42.3v3.6H23v11.3h-4.2V45.9h-4.3v-3.6C14.5,42.3,27.4,42.3,27.4,42.3z"/>
			<path d="M36.1,55.2H31l-0.6,2h-4.2l4.9-14.9h5.1l4.9,14.9h-4.3L36.1,55.2z M31.9,52h3.3l-1.6-5.5L31.9,52z"/>
			<path d="M46.5,49.1l0.1,8.1h-4V42.3h3.1l6.7,8.8l-0.1-8.8h4v14.9h-3.6L46.5,49.1z"/>
			<path d="M59.5,42.3h6.7c4.7,0,6.8,2.3,6.8,7.3c0,4.9-2.2,7.6-7.2,7.6h-6.4L59.5,42.3L59.5,42.3z M68.8,49.7c0-2.7-1-4-2.9-4h-2.2
				v8.1h1.8C67.6,53.8,68.8,52.7,68.8,49.7z"/>
			<path d="M83.1,55.2H78l-0.6,2h-4.2l4.9-14.9h5.1l4.9,14.9h-4.3L83.1,55.2z M79,52h3.3l-1.6-5.5L79,52z"/>
			<path d="M89.7,42.3h7.8c3.3,0,5,2.1,5,5.1c0,2.1-0.8,3.6-2.3,4.4l2.4,5.3H98l-1.8-4.5h-2.3v4.5h-4.2V42.3z M93.8,45.8v3.5h2.8
				c1.1,0,1.7-0.6,1.7-1.8c0-0.9-0.5-1.7-1.7-1.7H93.8z"/>
			<path d="M104.7,42.3h6.7c4.7,0,6.8,2.3,6.8,7.3c0,4.9-2.2,7.6-7.2,7.6h-6.4L104.7,42.3L104.7,42.3z M114,49.7c0-2.7-1-4-2.9-4
				H109v8.1h1.8C112.8,53.8,114,52.7,114,49.7z"/>
			<path d="M128.5,46.8c-0.7-1-1.5-1.6-2.9-1.6c-1.5,0-2,0.6-2,1.3s0.5,1.1,2,1.4l1.3,0.3c3.6,0.8,4.6,2.5,4.6,4.6
				c0,2.9-2.1,4.8-6.3,4.8c-2.4,0-4.7-0.7-5.9-2.9l2.6-2c0.7,1.3,1.8,2,3.4,2c1.5,0,2.4-0.5,2.4-1.3c0-0.7-0.4-1-1.8-1.3l-1.4-0.3
				c-3.6-0.8-4.6-2.8-4.6-4.8c0-2.9,2-4.8,6-4.8c2.2,0,4.3,0.8,5.4,2.8L128.5,46.8z"/>
		</g>
	</g>
	<g id="Group_351" transform="translate(-3886.319 1161.173)" class="st1">
		<g class="st2">
			<path d="M22.8,22.8H11.2v12.3H1.9V2.5h9.3v12.4h11.6V2.5H32v32.6h-9.3L22.8,22.8L22.8,22.8z"/>
			<path d="M51.1,1.8c11.5,0,16.2,5.7,16.2,17s-5.2,17-16.3,17c-11.4,0-16.1-5.8-16.1-17.1C34.9,7.5,40.1,1.8,51.1,1.8z M51,28.2
				c4.6,0,6.8-2.5,6.8-9.4c0-6.8-2.3-9.3-6.8-9.3c-4.6,0-6.9,2.4-6.9,9.4C44.2,25.6,46.5,28.2,51,28.2z"/>
			<path d="M91,22.8H79.4v12.3h-9.3V2.5h9.3v12.4H91V2.5h9.3v32.6H91V22.8z"/>
			<path d="M104.8,2.5h25.4v7.2h-16.4V15H128v7.3h-14.1v5.5h16.8v7.3h-25.9C104.8,35.1,104.8,2.5,104.8,2.5z"/>
		</g>
		<g class="st2">
			<path d="M10.6,45.9c-0.7-1-1.5-1.6-2.9-1.6c-1.5,0-2,0.6-2,1.3s0.5,1.1,2,1.4L9,47.3c3.6,0.8,4.6,2.5,4.6,4.6
				c0,2.9-2.1,4.8-6.3,4.8c-2.4,0-4.7-0.7-5.9-2.9l2.6-2c0.7,1.3,1.8,2,3.4,2c1.5,0,2.4-0.5,2.4-1.3c0-0.7-0.4-1-1.8-1.3l-1.4-0.3
				c-3.6-1-4.7-3-4.7-4.9c0-2.9,2-4.8,6-4.8c2.2,0,4.3,0.8,5.4,2.8L10.6,45.9z"/>
			<path d="M27.4,41.5v3.6H23v11.3h-4.2V45.1h-4.3v-3.6H27.4z"/>
			<path d="M36.1,54.4H31l-0.6,2h-4.2l4.9-14.9h5.1l4.9,14.9h-4.3L36.1,54.4z M31.9,51.2h3.3l-1.6-5.5L31.9,51.2z"/>
			<path d="M46.5,48.3l0.1,8.1h-4V41.5h3.1l6.7,8.8l-0.1-8.8h4v14.9h-3.6L46.5,48.3z"/>
			<path d="M59.5,41.5h6.7c4.7,0,6.8,2.3,6.8,7.3c0,4.9-2.2,7.6-7.2,7.6h-6.4L59.5,41.5L59.5,41.5z M68.8,48.9c0-2.7-1-4-2.9-4h-2.2
				V53h1.8C67.6,53,68.8,51.9,68.8,48.9z"/>
			<path d="M83.1,54.4H78l-0.6,2h-4.2l4.9-14.9h5.1l4.9,14.9h-4.3L83.1,54.4z M79,51.2h3.3l-1.6-5.5L79,51.2z"/>
			<path d="M89.7,41.5h7.8c3.3,0,5,2.1,5,5.1c0,2.1-0.8,3.6-2.3,4.4l2.4,5.3H98l-1.8-4.5h-2.3v4.5h-4.2V41.5z M93.8,45v3.5h2.8
				c1.1,0,1.7-0.6,1.7-1.8c0-0.9-0.5-1.7-1.7-1.7H93.8z"/>
			<path d="M104.7,41.5h6.7c4.7,0,6.8,2.3,6.8,7.3c0,4.9-2.2,7.6-7.2,7.6h-6.4L104.7,41.5L104.7,41.5z M114,48.9c0-2.7-1-4-2.9-4
				H109V53h1.8C112.8,53,114,51.9,114,48.9z"/>
			<path d="M128.5,45.9c-0.7-1-1.5-1.6-2.9-1.6c-1.5,0-2,0.6-2,1.3s0.5,1.1,2,1.4l1.3,0.3c3.6,0.8,4.6,2.5,4.6,4.6
				c0,2.9-2.1,4.8-6.3,4.8c-2.4,0-4.7-0.7-5.9-2.9l2.6-2c0.7,1.3,1.8,2,3.4,2c1.5,0,2.4-0.5,2.4-1.3c0-0.7-0.4-1-1.8-1.3l-1.4-0.3
				c-3.6-0.8-4.6-2.8-4.6-4.8c0-2.9,2-4.8,6-4.8c2.2,0,4.3,0.8,5.4,2.8L128.5,45.9z"/>
		</g>
	</g>
	<g id="Group_352" transform="translate(-3886.319 1101.173)" class="st1">
		<g class="st2">
			<path d="M22.8,22H11.2v12.3H1.9V1.7h9.3v12.4h11.6V1.7H32v32.6h-9.3L22.8,22L22.8,22z"/>
			<path d="M51.1,1c11.5,0,16.2,5.7,16.2,17S62.1,35,51,35c-11.4,0-16.1-5.8-16.1-17.1C34.9,6.7,40.1,1,51.1,1z M51,27.4
				c4.6,0,6.8-2.5,6.8-9.4c0-6.8-2.3-9.3-6.8-9.3c-4.6,0-6.9,2.4-6.9,9.4C44.2,24.8,46.5,27.4,51,27.4z"/>
			<path d="M91,22H79.4v12.3h-9.3V1.7h9.3v12.4H91V1.7h9.3v32.6H91V22z"/>
			<path d="M104.8,1.7h25.4v7.2h-16.4v5.3H128v7.3h-14.1V27h16.8v7.3h-25.9C104.8,34.3,104.8,1.7,104.8,1.7z"/>
		</g>
		<g class="st2">
			<path d="M10.6,45.1c-0.7-1-1.5-1.6-2.9-1.6c-1.5,0-2,0.6-2,1.3s0.5,1.1,2,1.4L9,46.5c3.6,0.8,4.6,2.5,4.6,4.6
				c0,2.9-2.1,4.8-6.3,4.8c-2.4,0-4.7-0.7-5.9-2.9L4,51c0.7,1.3,1.8,2,3.4,2c1.5,0,2.4-0.5,2.4-1.3c0-0.7-0.4-1-1.8-1.3l-1.4-0.3
				C3,49.3,2,47.3,2,45.3c0-2.9,2-4.8,6-4.8c2.2,0,4.3,0.8,5.4,2.8L10.6,45.1z"/>
			<path d="M27.4,40.7v3.6H23v11.3h-4.2V44.3h-4.3v-3.6H27.4z"/>
			<path d="M36.1,53.6H31l-0.6,2h-4.2l4.9-14.9h5.1l4.9,14.9h-4.3L36.1,53.6z M31.9,50.4h3.3l-1.6-5.5L31.9,50.4z"/>
			<path d="M46.5,47.5l0.1,8.1h-4V40.7h3.1l6.7,8.8l-0.1-8.8h4v14.9h-3.6L46.5,47.5z"/>
			<path d="M59.5,40.7h6.7c4.7,0,6.8,2.3,6.8,7.3c0,4.9-2.2,7.6-7.2,7.6h-6.4L59.5,40.7L59.5,40.7z M68.8,48.1c0-2.7-1-4-2.9-4h-2.2
				v8.1h1.8C67.6,52.2,68.8,51.1,68.8,48.1z"/>
			<path d="M83.1,53.6H78l-0.6,2h-4.2l4.9-14.9h5.1l4.9,14.9h-4.3L83.1,53.6z M79,50.4h3.3l-1.6-5.5L79,50.4z"/>
			<path d="M89.7,40.7h7.8c3.3,0,5,2.1,5,5.1c0,2.1-0.8,3.6-2.3,4.4l2.4,5.3H98L96.2,51h-2.3v4.5h-4.2V40.7z M93.8,44.2v3.5h2.8
				c1.1,0,1.7-0.6,1.7-1.8c0-0.9-0.5-1.7-1.7-1.7H93.8z"/>
			<path d="M104.7,40.7h6.7c4.7,0,6.8,2.3,6.8,7.3c0,4.9-2.2,7.6-7.2,7.6h-6.4L104.7,40.7L104.7,40.7z M114,48.1c0-2.7-1-4-2.9-4
				H109v8.1h1.8C112.8,52.2,114,51.1,114,48.1z"/>
			<path d="M128.5,45.1c-0.7-1-1.5-1.6-2.9-1.6c-1.5,0-2,0.6-2,1.3s0.5,1.1,2,1.4l1.3,0.3c3.6,0.8,4.6,2.5,4.6,4.6
				c0,2.9-2.1,4.8-6.3,4.8c-2.4,0-4.7-0.7-5.9-2.9l2.6-2c0.7,1.3,1.8,2,3.4,2c1.5,0,2.4-0.5,2.4-1.3c0-0.7-0.4-1-1.8-1.3l-1.4-0.3
				c-3.6-0.8-4.6-2.8-4.6-4.8c0-2.9,2-4.8,6-4.8c2.2,0,4.3,0.8,5.4,2.8L128.5,45.1z"/>
		</g>
	</g>
</g>
<g>
	<path d="M23,21.2H11.2v12.2H1.8V0.9h9.4v12.4H23V0.9h9.4v32.5H23V21.2z"/>
	<path d="M42.1,0.9h9.4v32.5h-9.4V0.9z"/>
	<path d="M59.5,17.1C59.5,5.5,65,0.2,76.1,0.2c6.6,0,11,2.2,13.1,7.4l-7.5,3.8c-1.3-2.6-2.7-3.5-5.7-3.5c-4.6,0-7,2.3-7,9.3
		c0,7.2,2.6,9.5,7.2,9.5c2.7,0,5.3-1.3,5.7-4.6h-5.7v-6.9h14.1v18.2h-6.4l-0.6-3.7c-1.7,2.7-4.7,4.4-9,4.4
		C65.3,34.1,59.5,28.6,59.5,17.1z"/>
	<path d="M119.3,21.2h-11.7v12.2h-9.4V0.9h9.4v12.4h11.7V0.9h9.4v32.5h-9.4V21.2z"/>
</g>
<g>
	<path d="M10.2,44.3c-0.7-1-1.5-1.6-2.9-1.6c-1.5,0-2,0.5-2,1.3c0,0.7,0.5,1,2,1.4l1.3,0.3c3.6,0.8,4.6,2.5,4.6,4.6
		c0,2.8-2.1,4.7-6.3,4.7c-2.4,0-4.7-0.7-5.9-2.9l2.6-2C4.2,51.4,5.3,52,7,52c1.5,0,2.4-0.5,2.4-1.3c0-0.7-0.4-1-1.8-1.3l-1.4-0.3
		c-3.6-0.8-4.6-2.8-4.6-4.7c0-2.8,2-4.7,6-4.7c2.2,0,4.3,0.8,5.4,2.8L10.2,44.3z"/>
	<path d="M26.8,39.9v3.6h-4.3v11.1h-4.2V43.5h-4.3v-3.6H26.8z"/>
	<path d="M35.5,52.7h-5.1l-0.6,2h-4.2l4.9-14.7h5.1l4.9,14.7h-4.3L35.5,52.7z M31.3,49.5h3.3l-1.6-5.4L31.3,49.5z"/>
	<path d="M45.8,46.6l0.1,8h-4V39.9H45l6.7,8.7l-0.1-8.7h4v14.7H52L45.8,46.6z"/>
	<path d="M58.7,39.9h6.7c4.7,0,6.8,2.3,6.8,7.2c0,4.9-2.2,7.5-7.2,7.5h-6.4V39.9z M68,47.3c0-2.7-1-3.9-2.9-3.9h-2.2v8h1.8
		C66.7,51.3,68,50.2,68,47.3z"/>
	<path d="M82.2,52.7h-5.1l-0.6,2h-4.2l4.9-14.7h5.1l4.9,14.7h-4.3L82.2,52.7z M78,49.5h3.3l-1.6-5.4L78,49.5z"/>
	<path d="M88.6,39.9h7.8c3.3,0,5,2.1,5,5c0,2.1-0.8,3.6-2.3,4.4l2.4,5.3h-4.6l-1.8-4.5h-2.3v4.5h-4.2V39.9z M92.7,43.4v3.5h2.8
		c1.1,0,1.7-0.6,1.7-1.8c0-0.9-0.5-1.7-1.7-1.7H92.7z"/>
	<path d="M103.5,39.9h6.7c4.7,0,6.8,2.3,6.8,7.2c0,4.9-2.2,7.5-7.2,7.5h-6.4V39.9z M112.8,47.3c0-2.7-1-3.9-2.9-3.9h-2.2v8h1.8
		C111.6,51.3,112.8,50.2,112.8,47.3z"/>
	<path d="M127.2,44.3c-0.7-1-1.5-1.6-2.9-1.6c-1.5,0-2,0.5-2,1.3c0,0.7,0.5,1,2,1.4l1.3,0.3c3.6,0.8,4.6,2.5,4.6,4.6
		c0,2.8-2.1,4.7-6.3,4.7c-2.4,0-4.7-0.7-5.9-2.9l2.6-2c0.7,1.3,1.8,1.9,3.4,1.9c1.5,0,2.4-0.5,2.4-1.3c0-0.7-0.4-1-1.8-1.3l-1.4-0.3
		c-3.6-0.8-4.6-2.8-4.6-4.7c0-2.8,2-4.7,6-4.7c2.2,0,4.3,0.8,5.4,2.8L127.2,44.3z"/>
</g>
<g>
	<path d="M23,82H11.3v12.2H1.9V61.7h9.4v12.4H23V61.7h9.4v32.5H23V82z"/>
	<path d="M42.2,61.7h9.4v32.5h-9.4V61.7z"/>
	<path d="M59.6,77.9c0-11.6,5.5-16.9,16.5-16.9c6.6,0,11,2.2,13.1,7.4l-7.5,3.8c-1.3-2.6-2.7-3.5-5.7-3.5c-4.6,0-7,2.3-7,9.3
		c0,7.2,2.6,9.5,7.2,9.5c2.7,0,5.3-1.3,5.7-4.6h-5.7v-6.9h14.1v18.2h-6.4l-0.6-3.7c-1.7,2.7-4.7,4.4-9,4.4
		C65.3,94.9,59.6,89.4,59.6,77.9z"/>
	<path d="M119.4,82h-11.7v12.2h-9.4V61.7h9.4v12.4h11.7V61.7h9.4v32.5h-9.4V82z"/>
</g>
<g>
	<path d="M10.2,105.1c-0.7-1-1.5-1.6-2.9-1.6c-1.5,0-2,0.5-2,1.3c0,0.7,0.5,1,2,1.4l1.3,0.3c3.6,0.8,4.6,2.5,4.6,4.6
		c0,2.8-2.1,4.7-6.3,4.7c-2.4,0-4.7-0.7-5.9-2.9l2.6-2c0.7,1.3,1.8,1.9,3.4,1.9c1.5,0,2.4-0.5,2.4-1.3c0-0.7-0.4-1-1.8-1.3l-1.4-0.3
		c-3.6-0.8-4.6-2.8-4.6-4.7c0-2.8,2-4.7,6-4.7c2.2,0,4.3,0.8,5.4,2.8L10.2,105.1z"/>
	<path d="M26.8,100.7v3.6h-4.3v11.1h-4.2v-11.1h-4.3v-3.6H26.8z"/>
	<path d="M35.5,113.5h-5.1l-0.6,2h-4.2l4.9-14.7h5.1l4.9,14.7h-4.3L35.5,113.5z M31.3,110.3h3.3l-1.6-5.4L31.3,110.3z"/>
	<path d="M45.8,107.4l0.1,8h-4v-14.7h3.1l6.7,8.7l-0.1-8.7h4v14.7h-3.6L45.8,107.4z"/>
	<path d="M58.7,100.7h6.7c4.7,0,6.8,2.3,6.8,7.2c0,4.9-2.2,7.5-7.2,7.5h-6.4V100.7z M68,108.1c0-2.7-1-3.9-2.9-3.9H63v8h1.8
		C66.8,112.1,68,111,68,108.1z"/>
	<path d="M82.2,113.5h-5.1l-0.6,2h-4.2l4.9-14.7h5.1l4.9,14.7h-4.3L82.2,113.5z M78,110.3h3.3l-1.6-5.4L78,110.3z"/>
	<path d="M88.6,100.7h7.8c3.3,0,5,2.1,5,5c0,2.1-0.8,3.6-2.3,4.4l2.4,5.3h-4.6l-1.8-4.5h-2.3v4.5h-4.2V100.7z M92.8,104.2v3.5h2.8
		c1.1,0,1.7-0.6,1.7-1.8c0-0.9-0.5-1.7-1.7-1.7H92.8z"/>
	<path d="M103.6,100.7h6.7c4.7,0,6.8,2.3,6.8,7.2c0,4.9-2.2,7.5-7.2,7.5h-6.4V100.7z M112.9,108.1c0-2.7-1-3.9-2.9-3.9h-2.2v8h1.8
		C111.6,112.1,112.9,111,112.9,108.1z"/>
	<path d="M127.3,105.1c-0.7-1-1.5-1.6-2.9-1.6c-1.5,0-2,0.5-2,1.3c0,0.7,0.5,1,2,1.4l1.3,0.3c3.6,0.8,4.6,2.5,4.6,4.6
		c0,2.8-2.1,4.7-6.3,4.7c-2.4,0-4.7-0.7-5.9-2.9l2.6-2c0.7,1.3,1.8,1.9,3.4,1.9c1.5,0,2.4-0.5,2.4-1.3c0-0.7-0.4-1-1.8-1.3l-1.4-0.3
		c-3.6-0.8-4.6-2.8-4.6-4.7c0-2.8,2-4.7,6-4.7c2.2,0,4.3,0.8,5.4,2.8L127.3,105.1z"/>
</g>
<g>
	<path d="M23,142.8H11.2V155H1.8v-32.5h9.4v12.4H23v-12.4h9.4V155H23V142.8z"/>
	<path d="M42.1,122.5h9.4V155h-9.4V122.5z"/>
	<path d="M59.5,138.7c0-11.6,5.5-16.9,16.5-16.9c6.6,0,11,2.2,13.1,7.4l-7.5,3.8c-1.3-2.6-2.7-3.5-5.7-3.5c-4.6,0-7,2.3-7,9.3
		c0,7.2,2.6,9.5,7.2,9.5c2.7,0,5.3-1.3,5.7-4.6h-5.7v-6.9h14.1V155h-6.4l-0.6-3.7c-1.7,2.7-4.7,4.4-9,4.4
		C65.3,155.7,59.5,150.2,59.5,138.7z"/>
	<path d="M119.3,142.8h-11.7V155h-9.4v-32.5h9.4v12.4h11.7v-12.4h9.4V155h-9.4V142.8z"/>
</g>
<g>
	<path d="M10.2,165.9c-0.7-1-1.5-1.6-2.9-1.6c-1.5,0-2,0.5-2,1.3c0,0.7,0.5,1,2,1.4l1.3,0.3c3.6,0.8,4.6,2.5,4.6,4.6
		c0,2.8-2.1,4.7-6.3,4.7c-2.4,0-4.7-0.7-5.9-2.9l2.6-2c0.7,1.3,1.8,1.9,3.4,1.9c1.5,0,2.4-0.5,2.4-1.3c0-0.7-0.4-1-1.8-1.3l-1.4-0.3
		c-3.6-0.8-4.6-2.8-4.6-4.7c0-2.8,2-4.7,6-4.7c2.2,0,4.3,0.8,5.4,2.8L10.2,165.9z"/>
	<path d="M26.8,161.5v3.6h-4.3v11.1h-4.2v-11.1h-4.3v-3.6H26.8z"/>
	<path d="M35.5,174.3h-5.1l-0.6,2h-4.2l4.9-14.7h5.1l4.9,14.7h-4.3L35.5,174.3z M31.3,171.1h3.3l-1.6-5.4L31.3,171.1z"/>
	<path d="M45.8,168.2l0.1,8h-4v-14.7H45l6.7,8.7l-0.1-8.7h4v14.7H52L45.8,168.2z"/>
	<path d="M58.7,161.5h6.7c4.7,0,6.8,2.3,6.8,7.2c0,4.9-2.2,7.5-7.2,7.5h-6.4V161.5z M68,168.9c0-2.7-1-3.9-2.9-3.9h-2.2v8h1.8
		C66.7,172.9,68,171.8,68,168.9z"/>
	<path d="M82.2,174.3h-5.1l-0.6,2h-4.2l4.9-14.7h5.1l4.9,14.7h-4.3L82.2,174.3z M78,171.1h3.3l-1.6-5.4L78,171.1z"/>
	<path d="M88.6,161.5h7.8c3.3,0,5,2.1,5,5c0,2.1-0.8,3.6-2.3,4.4l2.4,5.3h-4.6l-1.8-4.5h-2.3v4.5h-4.2V161.5z M92.7,165v3.5h2.8
		c1.1,0,1.7-0.6,1.7-1.8c0-0.9-0.5-1.7-1.7-1.7H92.7z"/>
	<path d="M103.5,161.5h6.7c4.7,0,6.8,2.3,6.8,7.2c0,4.9-2.2,7.5-7.2,7.5h-6.4V161.5z M112.8,168.9c0-2.7-1-3.9-2.9-3.9h-2.2v8h1.8
		C111.6,172.9,112.8,171.8,112.8,168.9z"/>
	<path d="M127.2,165.9c-0.7-1-1.5-1.6-2.9-1.6c-1.5,0-2,0.5-2,1.3c0,0.7,0.5,1,2,1.4l1.3,0.3c3.6,0.8,4.6,2.5,4.6,4.6
		c0,2.8-2.1,4.7-6.3,4.7c-2.4,0-4.7-0.7-5.9-2.9l2.6-2c0.7,1.3,1.8,1.9,3.4,1.9c1.5,0,2.4-0.5,2.4-1.3c0-0.7-0.4-1-1.8-1.3l-1.4-0.3
		c-3.6-0.8-4.6-2.8-4.6-4.7c0-2.8,2-4.7,6-4.7c2.2,0,4.3,0.8,5.4,2.8L127.2,165.9z"/>
</g>
<g>
	<path d="M23,203.6H11.3v12.2H1.9v-32.5h9.4v12.4H23v-12.4h9.4v32.5H23V203.6z"/>
	<path d="M42.2,183.3h9.4v32.5h-9.4V183.3z"/>
	<path d="M59.6,199.5c0-11.6,5.5-16.9,16.5-16.9c6.6,0,11,2.2,13.1,7.4l-7.5,3.8c-1.3-2.6-2.7-3.5-5.7-3.5c-4.6,0-7,2.3-7,9.3
		c0,7.2,2.6,9.5,7.2,9.5c2.7,0,5.3-1.3,5.7-4.6h-5.7v-6.9h14.1v18.2h-6.4l-0.6-3.7c-1.7,2.7-4.7,4.4-9,4.4
		C65.3,216.5,59.6,211,59.6,199.5z"/>
	<path d="M119.4,203.6h-11.7v12.2h-9.4v-32.5h9.4v12.4h11.7v-12.4h9.4v32.5h-9.4V203.6z"/>
</g>
<g>
	<path d="M10.2,226.7c-0.7-1-1.5-1.6-2.9-1.6c-1.5,0-2,0.5-2,1.3c0,0.7,0.5,1,2,1.4l1.3,0.3c3.6,0.8,4.6,2.5,4.6,4.6
		c0,2.8-2.1,4.7-6.3,4.7c-2.4,0-4.7-0.7-5.9-2.9l2.6-2c0.7,1.3,1.8,1.9,3.4,1.9c1.5,0,2.4-0.5,2.4-1.3c0-0.7-0.4-1-1.8-1.3l-1.4-0.3
		c-3.6-0.8-4.6-2.8-4.6-4.7c0-2.8,2-4.7,6-4.7c2.2,0,4.3,0.8,5.4,2.8L10.2,226.7z"/>
	<path d="M26.8,222.3v3.6h-4.3V237h-4.2v-11.1h-4.3v-3.6H26.8z"/>
	<path d="M35.5,235.1h-5.1l-0.6,2h-4.2l4.9-14.7h5.1l4.9,14.7h-4.3L35.5,235.1z M31.3,231.9h3.3l-1.6-5.4L31.3,231.9z"/>
	<path d="M45.8,229l0.1,8h-4v-14.7h3.1l6.7,8.7l-0.1-8.7h4V237h-3.6L45.8,229z"/>
	<path d="M58.7,222.3h6.7c4.7,0,6.8,2.3,6.8,7.2c0,4.8-2.2,7.5-7.2,7.5h-6.4V222.3z M68,229.7c0-2.7-1-3.9-2.9-3.9H63v8h1.8
		C66.8,233.7,68,232.6,68,229.7z"/>
	<path d="M82.2,235.1h-5.1l-0.6,2h-4.2l4.9-14.7h5.1l4.9,14.7h-4.3L82.2,235.1z M78,231.9h3.3l-1.6-5.4L78,231.9z"/>
	<path d="M88.6,222.3h7.8c3.3,0,5,2.1,5,5c0,2.1-0.8,3.6-2.3,4.4l2.4,5.3h-4.6l-1.8-4.5h-2.3v4.5h-4.2V222.3z M92.8,225.8v3.5h2.8
		c1.1,0,1.7-0.6,1.7-1.8c0-0.9-0.5-1.7-1.7-1.7H92.8z"/>
	<path d="M103.6,222.3h6.7c4.7,0,6.8,2.3,6.8,7.2c0,4.8-2.2,7.5-7.2,7.5h-6.4V222.3z M112.9,229.7c0-2.7-1-3.9-2.9-3.9h-2.2v8h1.8
		C111.6,233.7,112.9,232.6,112.9,229.7z"/>
	<path d="M127.3,226.7c-0.7-1-1.5-1.6-2.9-1.6c-1.5,0-2,0.5-2,1.3c0,0.7,0.5,1,2,1.4l1.3,0.3c3.6,0.8,4.6,2.5,4.6,4.6
		c0,2.8-2.1,4.7-6.3,4.7c-2.4,0-4.7-0.7-5.9-2.9l2.6-2c0.7,1.3,1.8,1.9,3.4,1.9c1.5,0,2.4-0.5,2.4-1.3c0-0.7-0.4-1-1.8-1.3l-1.4-0.3
		c-3.6-0.8-4.6-2.8-4.6-4.7c0-2.8,2-4.7,6-4.7c2.2,0,4.3,0.8,5.4,2.8L127.3,226.7z"/>
</g>
<g>
	<path d="M23,264.4H11.2v12.2H1.8v-32.5h9.4v12.4H23v-12.4h9.4v32.5H23V264.4z"/>
	<path d="M42.1,244.1h9.4v32.5h-9.4V244.1z"/>
	<path d="M59.5,260.3c0-11.6,5.5-16.9,16.5-16.9c6.6,0,11,2.2,13.1,7.4l-7.5,3.8c-1.3-2.6-2.7-3.5-5.7-3.5c-4.6,0-7,2.3-7,9.3
		c0,7.2,2.6,9.5,7.2,9.5c2.7,0,5.3-1.3,5.7-4.6h-5.7v-6.9h14.1v18.2h-6.4l-0.6-3.7c-1.7,2.7-4.7,4.4-9,4.4
		C65.3,277.3,59.5,271.8,59.5,260.3z"/>
	<path d="M119.3,264.4h-11.7v12.2h-9.4v-32.5h9.4v12.4h11.7v-12.4h9.4v32.5h-9.4V264.4z"/>
</g>
<g>
	<path d="M10.2,287.5c-0.7-1-1.5-1.6-2.9-1.6c-1.5,0-2,0.5-2,1.3c0,0.7,0.5,1,2,1.4l1.3,0.3c3.6,0.8,4.6,2.5,4.6,4.6
		c0,2.8-2.1,4.7-6.3,4.7c-2.4,0-4.7-0.7-5.9-2.9l2.6-2c0.7,1.3,1.8,1.9,3.4,1.9c1.5,0,2.4-0.5,2.4-1.3c0-0.7-0.4-1-1.8-1.3l-1.4-0.3
		c-3.6-0.8-4.6-2.8-4.6-4.7c0-2.8,2-4.7,6-4.7c2.2,0,4.3,0.8,5.4,2.8L10.2,287.5z"/>
	<path d="M26.8,283.1v3.6h-4.3v11.1h-4.2v-11.1h-4.3v-3.6H26.8z"/>
	<path d="M35.5,295.9h-5.1l-0.6,2h-4.2l4.9-14.7h5.1l4.9,14.7h-4.3L35.5,295.9z M31.3,292.7h3.3l-1.6-5.4L31.3,292.7z"/>
	<path d="M45.8,289.8l0.1,8h-4v-14.7H45l6.7,8.7l-0.1-8.7h4v14.7H52L45.8,289.8z"/>
	<path d="M58.7,283.1h6.7c4.7,0,6.8,2.3,6.8,7.2c0,4.9-2.2,7.5-7.2,7.5h-6.4V283.1z M68,290.5c0-2.7-1-3.9-2.9-3.9h-2.2v8h1.8
		C66.7,294.5,68,293.4,68,290.5z"/>
	<path d="M82.2,295.9h-5.1l-0.6,2h-4.2l4.9-14.7h5.1l4.9,14.7h-4.3L82.2,295.9z M78,292.7h3.3l-1.6-5.4L78,292.7z"/>
	<path d="M88.6,283.1h7.8c3.3,0,5,2.1,5,5c0,2.1-0.8,3.6-2.3,4.4l2.4,5.3h-4.6l-1.8-4.5h-2.3v4.5h-4.2V283.1z M92.7,286.6v3.5h2.8
		c1.1,0,1.7-0.6,1.7-1.8c0-0.9-0.5-1.7-1.7-1.7H92.7z"/>
	<path d="M103.5,283.1h6.7c4.7,0,6.8,2.3,6.8,7.2c0,4.9-2.2,7.5-7.2,7.5h-6.4V283.1z M112.8,290.5c0-2.7-1-3.9-2.9-3.9h-2.2v8h1.8
		C111.6,294.5,112.8,293.4,112.8,290.5z"/>
	<path d="M127.2,287.5c-0.7-1-1.5-1.6-2.9-1.6c-1.5,0-2,0.5-2,1.3c0,0.7,0.5,1,2,1.4l1.3,0.3c3.6,0.8,4.6,2.5,4.6,4.6
		c0,2.8-2.1,4.7-6.3,4.7c-2.4,0-4.7-0.7-5.9-2.9l2.6-2c0.7,1.3,1.8,1.9,3.4,1.9c1.5,0,2.4-0.5,2.4-1.3c0-0.7-0.4-1-1.8-1.3l-1.4-0.3
		c-3.6-0.8-4.6-2.8-4.6-4.7c0-2.8,2-4.7,6-4.7c2.2,0,4.3,0.8,5.4,2.8L127.2,287.5z"/>
</g>
<g>
	<path d="M23,325.2H11.2v12.2H1.8v-32.5h9.4v12.4H23v-12.4h9.4v32.5H23V325.2z"/>
	<path d="M42.1,304.9h9.4v32.5h-9.4V304.9z"/>
	<path d="M59.5,321.1c0-11.6,5.5-16.9,16.5-16.9c6.6,0,11,2.2,13.1,7.4l-7.5,3.8c-1.3-2.6-2.7-3.5-5.7-3.5c-4.6,0-7,2.3-7,9.3
		c0,7.2,2.6,9.5,7.2,9.5c2.7,0,5.3-1.3,5.7-4.6h-5.7v-6.9h14.1v18.2h-6.4l-0.6-3.7c-1.7,2.7-4.7,4.4-9,4.4
		C65.3,338.1,59.5,332.6,59.5,321.1z"/>
	<path d="M119.3,325.2h-11.7v12.2h-9.4v-32.5h9.4v12.4h11.7v-12.4h9.4v32.5h-9.4V325.2z"/>
</g>
<g>
	<path d="M10.2,348.3c-0.7-1-1.5-1.6-2.9-1.6c-1.5,0-2,0.5-2,1.3c0,0.7,0.5,1,2,1.4l1.3,0.3c3.6,0.8,4.6,2.5,4.6,4.6
		c0,2.8-2.1,4.7-6.3,4.7c-2.4,0-4.7-0.7-5.9-2.9l2.6-2c0.7,1.3,1.8,1.9,3.4,1.9c1.5,0,2.4-0.5,2.4-1.3c0-0.7-0.4-1-1.8-1.3l-1.4-0.3
		c-3.6-0.8-4.6-2.8-4.6-4.7c0-2.8,2-4.7,6-4.7c2.2,0,4.3,0.8,5.4,2.8L10.2,348.3z"/>
	<path d="M26.8,343.9v3.6h-4.3v11.1h-4.2v-11.1h-4.3v-3.6H26.8z"/>
	<path d="M35.5,356.7h-5.1l-0.6,2h-4.2l4.9-14.7h5.1l4.9,14.7h-4.3L35.5,356.7z M31.3,353.5h3.3l-1.6-5.4L31.3,353.5z"/>
	<path d="M45.8,350.6l0.1,8h-4v-14.7H45l6.7,8.7l-0.1-8.7h4v14.7H52L45.8,350.6z"/>
	<path d="M58.7,343.9h6.7c4.7,0,6.8,2.3,6.8,7.2c0,4.8-2.2,7.5-7.2,7.5h-6.4V343.9z M68,351.3c0-2.7-1-3.9-2.9-3.9h-2.2v8h1.8
		C66.7,355.3,68,354.2,68,351.3z"/>
	<path d="M82.2,356.7h-5.1l-0.6,2h-4.2l4.9-14.7h5.1l4.9,14.7h-4.3L82.2,356.7z M78,353.5h3.3l-1.6-5.4L78,353.5z"/>
	<path d="M88.6,343.9h7.8c3.3,0,5,2.1,5,5c0,2.1-0.8,3.6-2.3,4.4l2.4,5.3h-4.6l-1.8-4.5h-2.3v4.5h-4.2V343.9z M92.7,347.4v3.5h2.8
		c1.1,0,1.7-0.6,1.7-1.8c0-0.9-0.5-1.7-1.7-1.7H92.7z"/>
	<path d="M103.5,343.9h6.7c4.7,0,6.8,2.3,6.8,7.2c0,4.8-2.2,7.5-7.2,7.5h-6.4V343.9z M112.8,351.3c0-2.7-1-3.9-2.9-3.9h-2.2v8h1.8
		C111.6,355.3,112.8,354.2,112.8,351.3z"/>
	<path d="M127.2,348.3c-0.7-1-1.5-1.6-2.9-1.6c-1.5,0-2,0.5-2,1.3c0,0.7,0.5,1,2,1.4l1.3,0.3c3.6,0.8,4.6,2.5,4.6,4.6
		c0,2.8-2.1,4.7-6.3,4.7c-2.4,0-4.7-0.7-5.9-2.9l2.6-2c0.7,1.3,1.8,1.9,3.4,1.9c1.5,0,2.4-0.5,2.4-1.3c0-0.7-0.4-1-1.8-1.3l-1.4-0.3
		c-3.6-0.8-4.6-2.8-4.6-4.7c0-2.8,2-4.7,6-4.7c2.2,0,4.3,0.8,5.4,2.8L127.2,348.3z"/>
</g>
<g>
	<path d="M23,386H11.2v12.2H1.8v-32.5h9.4v12.4H23v-12.4h9.4v32.5H23V386z"/>
	<path d="M42.1,365.7h9.4v32.5h-9.4V365.7z"/>
	<path d="M59.5,381.9c0-11.6,5.5-16.9,16.5-16.9c6.6,0,11,2.2,13.1,7.4l-7.5,3.8c-1.3-2.6-2.7-3.5-5.7-3.5c-4.6,0-7,2.3-7,9.3
		c0,7.2,2.6,9.5,7.2,9.5c2.7,0,5.3-1.3,5.7-4.6h-5.7v-6.9h14.1v18.2h-6.4l-0.6-3.7c-1.7,2.7-4.7,4.4-9,4.4
		C65.3,398.9,59.5,393.4,59.5,381.9z"/>
	<path d="M119.3,386h-11.7v12.2h-9.4v-32.5h9.4v12.4h11.7v-12.4h9.4v32.5h-9.4V386z"/>
</g>
<g>
	<path d="M10.2,409.1c-0.7-1-1.5-1.6-2.9-1.6c-1.5,0-2,0.5-2,1.3c0,0.7,0.5,1,2,1.4l1.3,0.3c3.6,0.8,4.6,2.5,4.6,4.6
		c0,2.8-2.1,4.7-6.3,4.7c-2.4,0-4.7-0.7-5.9-2.9l2.6-2c0.7,1.3,1.8,1.9,3.4,1.9c1.5,0,2.4-0.5,2.4-1.3c0-0.7-0.4-1-1.8-1.3l-1.4-0.3
		c-3.6-0.8-4.6-2.8-4.6-4.7c0-2.8,2-4.7,6-4.7c2.2,0,4.3,0.8,5.4,2.8L10.2,409.1z"/>
	<path d="M26.8,404.7v3.6h-4.3v11.1h-4.2v-11.1h-4.3v-3.6H26.8z"/>
	<path d="M35.5,417.5h-5.1l-0.6,2h-4.2l4.9-14.7h5.1l4.9,14.7h-4.3L35.5,417.5z M31.3,414.3h3.3l-1.6-5.4L31.3,414.3z"/>
	<path d="M45.8,411.4l0.1,8h-4v-14.7H45l6.7,8.7l-0.1-8.7h4v14.7H52L45.8,411.4z"/>
	<path d="M58.7,404.7h6.7c4.7,0,6.8,2.3,6.8,7.2c0,4.8-2.2,7.5-7.2,7.5h-6.4V404.7z M68,412.1c0-2.7-1-3.9-2.9-3.9h-2.2v8h1.8
		C66.7,416.1,68,415,68,412.1z"/>
	<path d="M82.2,417.5h-5.1l-0.6,2h-4.2l4.9-14.7h5.1l4.9,14.7h-4.3L82.2,417.5z M78,414.3h3.3l-1.6-5.4L78,414.3z"/>
	<path d="M88.6,404.7h7.8c3.3,0,5,2.1,5,5c0,2.1-0.8,3.6-2.3,4.4l2.4,5.3h-4.6l-1.8-4.5h-2.3v4.5h-4.2V404.7z M92.7,408.2v3.5h2.8
		c1.1,0,1.7-0.6,1.7-1.8c0-0.9-0.5-1.7-1.7-1.7H92.7z"/>
	<path d="M103.5,404.7h6.7c4.7,0,6.8,2.3,6.8,7.2c0,4.8-2.2,7.5-7.2,7.5h-6.4V404.7z M112.8,412.1c0-2.7-1-3.9-2.9-3.9h-2.2v8h1.8
		C111.6,416.1,112.8,415,112.8,412.1z"/>
	<path d="M127.2,409.1c-0.7-1-1.5-1.6-2.9-1.6c-1.5,0-2,0.5-2,1.3c0,0.7,0.5,1,2,1.4l1.3,0.3c3.6,0.8,4.6,2.5,4.6,4.6
		c0,2.8-2.1,4.7-6.3,4.7c-2.4,0-4.7-0.7-5.9-2.9l2.6-2c0.7,1.3,1.8,1.9,3.4,1.9c1.5,0,2.4-0.5,2.4-1.3c0-0.7-0.4-1-1.8-1.3l-1.4-0.3
		c-3.6-0.8-4.6-2.8-4.6-4.7c0-2.8,2-4.7,6-4.7c2.2,0,4.3,0.8,5.4,2.8L127.2,409.1z"/>
</g>
<g>
	<path d="M23.7,446.8H12V459H2.6v-32.5H12v12.4h11.7v-12.4h9.4V459h-9.4V446.8z"/>
	<path d="M42.9,426.5h9.4V459h-9.4V426.5z"/>
	<path d="M60.3,442.7c0-11.6,5.5-16.9,16.5-16.9c6.6,0,11,2.2,13.1,7.4l-7.5,3.8c-1.3-2.7-2.7-3.5-5.7-3.5c-4.6,0-7,2.3-7,9.3
		c0,7.2,2.6,9.5,7.2,9.5c2.7,0,5.3-1.3,5.7-4.6h-5.7v-6.9H91V459h-6.4l-0.6-3.7c-1.7,2.7-4.7,4.4-9,4.4
		C66,459.7,60.3,454.2,60.3,442.7z"/>
	<path d="M120.1,446.8h-11.7V459H99v-32.5h9.4v12.4h11.7v-12.4h9.4V459h-9.4V446.8z"/>
</g>
<g>
	<path d="M10.9,469.9c-0.7-1-1.5-1.6-2.9-1.6c-1.5,0-2,0.5-2,1.3c0,0.7,0.5,1,2,1.4l1.3,0.3c3.6,0.8,4.6,2.5,4.6,4.6
		c0,2.8-2.1,4.7-6.3,4.7c-2.4,0-4.7-0.7-5.9-2.9l2.6-2c0.7,1.3,1.8,1.9,3.4,1.9c1.5,0,2.4-0.5,2.4-1.3c0-0.7-0.4-1-1.8-1.3l-1.4-0.3
		c-3.6-0.8-4.6-2.8-4.6-4.7c0-2.8,2-4.7,6-4.7c2.2,0,4.3,0.8,5.4,2.8L10.9,469.9z"/>
	<path d="M27.6,465.5v3.6h-4.3v11.1H19v-11.1h-4.3v-3.6H27.6z"/>
	<path d="M36.2,478.3h-5.1l-0.6,2h-4.2l4.9-14.7h5.1l4.9,14.7h-4.3L36.2,478.3z M32,475.1h3.3l-1.6-5.4L32,475.1z"/>
	<path d="M46.5,472.2l0.1,8h-4v-14.7h3.1l6.7,8.7l-0.1-8.7h4v14.7h-3.6L46.5,472.2z"/>
	<path d="M59.4,465.5h6.7c4.7,0,6.8,2.3,6.8,7.2c0,4.8-2.2,7.5-7.2,7.5h-6.4V465.5z M68.7,472.9c0-2.7-1-3.9-2.9-3.9h-2.2v8h1.8
		C67.5,476.9,68.7,475.8,68.7,472.9z"/>
	<path d="M82.9,478.3h-5.1l-0.6,2H73l4.9-14.7H83l4.9,14.7h-4.3L82.9,478.3z M78.7,475.1H82l-1.6-5.4L78.7,475.1z"/>
	<path d="M89.3,465.5h7.8c3.3,0,5,2.1,5,5c0,2.1-0.8,3.6-2.3,4.4l2.4,5.3h-4.6l-1.8-4.5h-2.3v4.5h-4.2V465.5z M93.5,469v3.5h2.8
		c1.1,0,1.7-0.6,1.7-1.8c0-0.9-0.5-1.7-1.7-1.7H93.5z"/>
	<path d="M104.3,465.5h6.7c4.7,0,6.8,2.3,6.8,7.2c0,4.8-2.2,7.5-7.2,7.5h-6.4V465.5z M113.6,472.9c0-2.7-1-3.9-2.9-3.9h-2.2v8h1.8
		C112.3,476.9,113.6,475.8,113.6,472.9z"/>
	<path d="M128,469.9c-0.7-1-1.5-1.6-2.9-1.6c-1.5,0-2,0.5-2,1.3c0,0.7,0.5,1,2,1.4l1.3,0.3c3.6,0.8,4.6,2.5,4.6,4.6
		c0,2.8-2.1,4.7-6.3,4.7c-2.4,0-4.7-0.7-5.9-2.9l2.6-2c0.7,1.3,1.8,1.9,3.4,1.9c1.5,0,2.4-0.5,2.4-1.3c0-0.7-0.4-1-1.8-1.3l-1.4-0.3
		c-3.6-0.8-4.6-2.8-4.6-4.7c0-2.8,2-4.7,6-4.7c2.2,0,4.3,0.8,5.4,2.8L128,469.9z"/>
</g>
<g>
	<path d="M23.7,507.7H12v12.2H2.6v-32.5H12v12.4h11.7v-12.4h9.4v32.5h-9.4V507.7z"/>
	<path d="M42.9,487.4h9.4v32.5h-9.4V487.4z"/>
	<path d="M60.3,503.6c0-11.6,5.5-16.9,16.5-16.9c6.6,0,11,2.2,13.1,7.4l-7.5,3.8c-1.3-2.6-2.7-3.5-5.7-3.5c-4.6,0-7,2.3-7,9.3
		c0,7.2,2.6,9.5,7.2,9.5c2.7,0,5.3-1.3,5.7-4.6h-5.7v-6.9H91v18.2h-6.4l-0.6-3.7c-1.7,2.7-4.7,4.4-9,4.4
		C66,520.6,60.3,515.1,60.3,503.6z"/>
	<path d="M120.1,507.7h-11.7v12.2H99v-32.5h9.4v12.4h11.7v-12.4h9.4v32.5h-9.4V507.7z"/>
</g>
<g>
	<path d="M10.9,530.8c-0.7-1-1.5-1.6-2.9-1.6c-1.5,0-2,0.5-2,1.3c0,0.7,0.5,1,2,1.4l1.3,0.3c3.6,0.8,4.6,2.5,4.6,4.6
		c0,2.8-2.1,4.7-6.3,4.7c-2.4,0-4.7-0.7-5.9-2.9l2.6-2c0.7,1.3,1.8,1.9,3.4,1.9c1.5,0,2.4-0.5,2.4-1.3c0-0.7-0.4-1-1.8-1.3l-1.4-0.3
		c-3.6-0.8-4.6-2.8-4.6-4.7c0-2.8,2-4.7,6-4.7c2.2,0,4.3,0.8,5.4,2.8L10.9,530.8z"/>
	<path d="M27.6,526.4v3.6h-4.3v11.1H19V530h-4.3v-3.6H27.6z"/>
	<path d="M36.2,539.1h-5.1l-0.6,2h-4.2l4.9-14.7h5.1l4.9,14.7h-4.3L36.2,539.1z M32,536h3.3l-1.6-5.4L32,536z"/>
	<path d="M46.5,533.1l0.1,8h-4v-14.7h3.1l6.7,8.7l-0.1-8.7h4v14.7h-3.6L46.5,533.1z"/>
	<path d="M59.4,526.4h6.7c4.7,0,6.8,2.3,6.8,7.2c0,4.8-2.2,7.5-7.2,7.5h-6.4V526.4z M68.7,533.7c0-2.7-1-3.9-2.9-3.9h-2.2v8h1.8
		C67.5,537.8,68.7,536.7,68.7,533.7z"/>
	<path d="M82.9,539.1h-5.1l-0.6,2H73l4.9-14.7H83l4.9,14.7h-4.3L82.9,539.1z M78.7,536H82l-1.6-5.4L78.7,536z"/>
	<path d="M89.3,526.4h7.8c3.3,0,5,2.1,5,5c0,2.1-0.8,3.6-2.3,4.4l2.4,5.3h-4.6l-1.8-4.5h-2.3v4.5h-4.2V526.4z M93.5,529.9v3.5h2.8
		c1.1,0,1.7-0.6,1.7-1.8c0-0.9-0.5-1.7-1.7-1.7H93.5z"/>
	<path d="M104.3,526.4h6.7c4.7,0,6.8,2.3,6.8,7.2c0,4.8-2.2,7.5-7.2,7.5h-6.4V526.4z M113.6,533.7c0-2.7-1-3.9-2.9-3.9h-2.2v8h1.8
		C112.3,537.8,113.6,536.7,113.6,533.7z"/>
	<path d="M128,530.8c-0.7-1-1.5-1.6-2.9-1.6c-1.5,0-2,0.5-2,1.3c0,0.7,0.5,1,2,1.4l1.3,0.3c3.6,0.8,4.6,2.5,4.6,4.6
		c0,2.8-2.1,4.7-6.3,4.7c-2.4,0-4.7-0.7-5.9-2.9l2.6-2c0.7,1.3,1.8,1.9,3.4,1.9c1.5,0,2.4-0.5,2.4-1.3c0-0.7-0.4-1-1.8-1.3l-1.4-0.3
		c-3.6-0.8-4.6-2.8-4.6-4.7c0-2.8,2-4.7,6-4.7c2.2,0,4.3,0.8,5.4,2.8L128,530.8z"/>
</g>
<g>
	<path d="M23.7,567.7H12v12.2H2.6v-32.5H12v12.4h11.7v-12.4h9.4v32.5h-9.4V567.7z"/>
	<path d="M42.9,547.4h9.4v32.5h-9.4V547.4z"/>
	<path d="M60.3,563.6c0-11.6,5.5-16.9,16.5-16.9c6.6,0,11,2.2,13.1,7.4l-7.5,3.8c-1.3-2.6-2.7-3.5-5.7-3.5c-4.6,0-7,2.3-7,9.3
		c0,7.2,2.6,9.5,7.2,9.5c2.7,0,5.3-1.3,5.7-4.6h-5.7v-6.9H91v18.2h-6.4l-0.6-3.7c-1.7,2.7-4.7,4.4-9,4.4
		C66,580.6,60.3,575.1,60.3,563.6z"/>
	<path d="M120.1,567.7h-11.7v12.2H99v-32.5h9.4v12.4h11.7v-12.4h9.4v32.5h-9.4V567.7z"/>
</g>
<g>
	<path d="M10.9,590.8c-0.7-1-1.5-1.6-2.9-1.6c-1.5,0-2,0.5-2,1.3c0,0.7,0.5,1,2,1.4l1.3,0.3c3.6,0.8,4.6,2.5,4.6,4.6
		c0,2.8-2.1,4.7-6.3,4.7c-2.4,0-4.7-0.7-5.9-2.9l2.6-2c0.7,1.3,1.8,1.9,3.4,1.9c1.5,0,2.4-0.5,2.4-1.3c0-0.7-0.4-1-1.8-1.3l-1.4-0.3
		c-3.6-0.8-4.6-2.8-4.6-4.7c0-2.8,2-4.7,6-4.7c2.2,0,4.3,0.8,5.4,2.8L10.9,590.8z"/>
	<path d="M27.6,586.4v3.6h-4.3v11.1H19V590h-4.3v-3.6H27.6z"/>
	<path d="M36.2,599.2h-5.1l-0.6,2h-4.2l4.9-14.7h5.1l4.9,14.7h-4.3L36.2,599.2z M32,596h3.3l-1.6-5.4L32,596z"/>
	<path d="M46.5,593.1l0.1,8h-4v-14.7h3.1l6.7,8.7l-0.1-8.7h4v14.7h-3.6L46.5,593.1z"/>
	<path d="M59.4,586.4h6.7c4.7,0,6.8,2.3,6.8,7.2c0,4.9-2.2,7.5-7.2,7.5h-6.4V586.4z M68.7,593.8c0-2.7-1-3.9-2.9-3.9h-2.2v8h1.8
		C67.5,597.8,68.7,596.7,68.7,593.8z"/>
	<path d="M82.9,599.2h-5.1l-0.6,2H73l4.9-14.7H83l4.9,14.7h-4.3L82.9,599.2z M78.7,596H82l-1.6-5.4L78.7,596z"/>
	<path d="M89.3,586.4h7.8c3.3,0,5,2.1,5,5c0,2.1-0.8,3.6-2.3,4.4l2.4,5.3h-4.6l-1.8-4.5h-2.3v4.5h-4.2V586.4z M93.5,589.9v3.5h2.8
		c1.1,0,1.7-0.6,1.7-1.8c0-0.9-0.5-1.7-1.7-1.7H93.5z"/>
	<path d="M104.3,586.4h6.7c4.7,0,6.8,2.3,6.8,7.2c0,4.9-2.2,7.5-7.2,7.5h-6.4V586.4z M113.6,593.8c0-2.7-1-3.9-2.9-3.9h-2.2v8h1.8
		C112.3,597.8,113.6,596.7,113.6,593.8z"/>
	<path d="M128,590.8c-0.7-1-1.5-1.6-2.9-1.6c-1.5,0-2,0.5-2,1.3c0,0.7,0.5,1,2,1.4l1.3,0.3c3.6,0.8,4.6,2.5,4.6,4.6
		c0,2.8-2.1,4.7-6.3,4.7c-2.4,0-4.7-0.7-5.9-2.9l2.6-2c0.7,1.3,1.8,1.9,3.4,1.9c1.5,0,2.4-0.5,2.4-1.3c0-0.7-0.4-1-1.8-1.3l-1.4-0.3
		c-3.6-0.8-4.6-2.8-4.6-4.7c0-2.8,2-4.7,6-4.7c2.2,0,4.3,0.8,5.4,2.8L128,590.8z"/>
</g>
<g>
	<path d="M24.3,630.3H12.5v12.2H3.2v-32.5h9.4v12.4h11.7v-12.4h9.4v32.5h-9.4V630.3z"/>
	<path d="M43.4,609.9h9.4v32.5h-9.4V609.9z"/>
	<path d="M60.9,626.2c0-11.6,5.5-16.9,16.5-16.9c6.6,0,11,2.2,13.1,7.4l-7.5,3.8c-1.3-2.6-2.7-3.5-5.7-3.5c-4.6,0-7,2.3-7,9.3
		c0,7.2,2.6,9.5,7.2,9.5c2.7,0,5.3-1.3,5.7-4.6h-5.7v-6.9h14.1v18.2h-6.4l-0.6-3.7c-1.7,2.7-4.7,4.4-9,4.4
		C66.6,643.2,60.9,637.7,60.9,626.2z"/>
	<path d="M120.7,630.3h-11.7v12.2h-9.4v-32.5h9.4v12.4h11.7v-12.4h9.4v32.5h-9.4V630.3z"/>
</g>
<g>
	<path d="M11.5,653.4c-0.7-1-1.5-1.6-2.9-1.6c-1.5,0-2,0.5-2,1.3c0,0.7,0.5,1,2,1.4l1.3,0.3c3.6,0.8,4.6,2.5,4.6,4.6
		c0,2.8-2.1,4.7-6.3,4.7c-2.4,0-4.7-0.7-5.9-2.9l2.6-2c0.7,1.3,1.8,1.9,3.4,1.9c1.5,0,2.4-0.5,2.4-1.3c0-0.7-0.4-1-1.8-1.3l-1.4-0.3
		c-3.6-0.8-4.6-2.8-4.6-4.7c0-2.8,2-4.7,6-4.7c2.2,0,4.3,0.8,5.4,2.8L11.5,653.4z"/>
	<path d="M28.1,649v3.6h-4.3v11.1h-4.2v-11.1h-4.3V649H28.1z"/>
	<path d="M36.8,661.7h-5.1l-0.6,2h-4.2l4.9-14.7h5.1l4.9,14.7h-4.3L36.8,661.7z M32.6,658.6h3.3l-1.6-5.4L32.6,658.6z"/>
	<path d="M47.1,655.7l0.1,8h-4V649h3.1l6.7,8.7l-0.1-8.7h4v14.7h-3.6L47.1,655.7z"/>
	<path d="M60,649h6.7c4.7,0,6.8,2.3,6.8,7.2c0,4.8-2.2,7.5-7.2,7.5H60V649z M69.3,656.3c0-2.7-1-3.9-2.9-3.9h-2.2v8H66
		C68,660.3,69.3,659.3,69.3,656.3z"/>
	<path d="M83.5,661.7h-5.1l-0.6,2h-4.2l4.9-14.7h5.1l4.9,14.7h-4.3L83.5,661.7z M79.3,658.6h3.3l-1.6-5.4L79.3,658.6z"/>
	<path d="M89.9,649h7.8c3.3,0,5,2.1,5,5c0,2.1-0.8,3.6-2.3,4.4l2.4,5.3h-4.6l-1.8-4.5h-2.3v4.5h-4.2V649z M94.1,652.4v3.5h2.8
		c1.1,0,1.7-0.6,1.7-1.8c0-0.9-0.5-1.7-1.7-1.7H94.1z"/>
	<path d="M104.8,649h6.7c4.7,0,6.8,2.3,6.8,7.2c0,4.8-2.2,7.5-7.2,7.5h-6.4V649z M114.1,656.3c0-2.7-1-3.9-2.9-3.9h-2.2v8h1.8
		C112.9,660.3,114.1,659.3,114.1,656.3z"/>
	<path d="M128.6,653.4c-0.7-1-1.5-1.6-2.9-1.6c-1.5,0-2,0.5-2,1.3c0,0.7,0.5,1,2,1.4l1.3,0.3c3.6,0.8,4.6,2.5,4.6,4.6
		c0,2.8-2.1,4.7-6.3,4.7c-2.4,0-4.7-0.7-5.9-2.9l2.6-2c0.7,1.3,1.8,1.9,3.4,1.9c1.5,0,2.4-0.5,2.4-1.3c0-0.7-0.4-1-1.8-1.3l-1.4-0.3
		c-3.6-0.8-4.6-2.8-4.6-4.7c0-2.8,2-4.7,6-4.7c2.2,0,4.3,0.8,5.4,2.8L128.6,653.4z"/>
</g>
</svg>
