<svg id="Component_47_6" data-name="Component 47 – 6" xmlns="http://www.w3.org/2000/svg" width="153.706" height="70.142" viewBox="0 0 153.706 70.142">
  <path id="Path_7" data-name="Path 7" d="M87.71,104.6V98.5h1.376v6.1Zm26.74-2.283a2.462,2.462,0,1,1-2.461-2.391A2.359,2.359,0,0,1,114.45,102.318Zm-1.357,0a1.107,1.107,0,1,0-2.208,0,1.108,1.108,0,1,0,2.208,0Zm-25.934.525c0,1.037-.687,1.757-2.12,1.757H82.186V98.5h2.737c1.423,0,2.062.732,2.062,1.622a1.366,1.366,0,0,1-.807,1.274A1.457,1.457,0,0,1,87.159,102.843Zm-3.539-1.887h1.137c.5,0,.763-.241.763-.655s-.3-.617-.763-.617H83.62Zm2.029,1.8c0-.411-.3-.664-.791-.664H83.619v1.328h1.239C85.377,103.419,85.649,103.155,85.649,102.755Zm13.483-1.58a2.177,2.177,0,0,0-2.151-1.24,2.258,2.258,0,0,0-2.386,2.382,2.419,2.419,0,0,0,4.528,1.168l-1.11-.579a1.087,1.087,0,0,1-2.057-.592A1.077,1.077,0,0,1,97,101.123a1.027,1.027,0,0,1,.987.643Zm20.277,0a2.176,2.176,0,0,0-2.15-1.24,2.258,2.258,0,0,0-2.386,2.382,2.419,2.419,0,0,0,4.528,1.168l-1.11-.579a1.087,1.087,0,0,1-2.057-.592,1.077,1.077,0,0,1,1.042-1.19,1.027,1.027,0,0,1,.987.643Zm-9.885,3.427H107.88l-1.146-2.052h-.879V104.6h-1.421V98.5h2.556c1.383,0,2.351.665,2.351,1.981a1.9,1.9,0,0,1-1.142,1.8Zm-1.641-4.079c0-.524-.3-.811-.973-.811h-1.055v1.629h1.055C107.568,101.339,107.883,100.968,107.883,100.522Zm-13.5,3.045v.956a2.215,2.215,0,0,1-.808.149.918.918,0,0,1-.941-.565,2.024,2.024,0,0,1-1.489.6,1.328,1.328,0,0,1-1.515-1.382c0-.887.711-1.418,1.81-1.418a4.44,4.44,0,0,1,1.082.136v-.148c0-.5-.291-.808-.892-.808a1.718,1.718,0,0,0-1.1.441l-.76-.864a3.075,3.075,0,0,1,2.025-.718c1.3,0,2.086.632,2.086,1.815v1.581a.232.232,0,0,0,.265.258A.957.957,0,0,0,94.383,103.567Zm-1.861-.773a3.339,3.339,0,0,0-.772-.1c-.474,0-.709.235-.709.558,0,.306.208.527.634.527a.766.766,0,0,0,.847-.687Zm31.8,1.807-1.621-2.839,1.521-1.673H122.7l-1.6,1.8V98.5h-1.364v6.1H121.1v-1.1l.653-.706,1.023,1.8Zm-20.26,0-1.621-2.839,1.521-1.673h-1.547l-1.582,1.8V98.5H99.473v6.1h1.364v-1.1l.653-.706,1.023,1.8Zm-25.46-4.513-.8,2.956-.983-2.956h-1.48l1.817,4.556a.607.607,0,0,1-.645.369.988.988,0,0,1-.537-.169l-.5.955a1.828,1.828,0,0,0,1.076.336,2,2,0,0,0,1.987-1.636l1.481-4.411Zm-3.226,2.2A2.169,2.169,0,0,1,73.3,104.72a1.7,1.7,0,0,1-1.317-.529v.41H70.628V98.5H72.02v1.9a1.84,1.84,0,0,1,1.309-.529A2.14,2.14,0,0,1,75.379,102.291Zm-1.39,0a1.059,1.059,0,0,0-1.055-1.208,1.154,1.154,0,0,0-.913.486v1.506a1.162,1.162,0,0,0,.944.434C73.588,103.51,73.988,103.07,73.988,102.291Zm-3.36-28.407V69.8h5.114v4.088Zm0,18.511V75.679h5.114V92.4Zm91.114-7.026H150.248c.214,1.775,1.521,3.124,4.036,3.124a5.454,5.454,0,0,0,4.1-1.694l3.067,3.163a9.264,9.264,0,0,1-7.142,2.878c-5.874,0-9.312-3.415-9.312-8.925,0-5.089,3.332-8.791,8.606-8.791,5.25,0,8.345,3.249,8.345,8.092A9.762,9.762,0,0,1,161.742,85.369Zm-4.914-3.2a3,3,0,0,0-3.227-2.972,3.183,3.183,0,0,0-3.349,2.972ZM170.46,92.84a11.356,11.356,0,0,1-7.907-2.863l2.921-3.173a7.292,7.292,0,0,0,4.968,2.009c1.784,0,2.561-.469,2.561-1.181,0-.544-.391-.851-1.366-1.148-.85-.259-2.192-.483-3.326-.818-2.457-.727-4.9-1.759-4.9-5.266,0-3.249,2.619-5.251,7-5.251a10.789,10.789,0,0,1,7.464,2.56l-2.956,3.1a6.538,6.538,0,0,0-4.548-1.708c-1.318,0-2.046.47-2.046,1.116,0,.542.386.859,1.382,1.184.863.282,2.295.554,3.43.877,2.361.67,4.8,1.684,4.8,5.011C177.942,91.037,174.816,92.84,170.46,92.84Zm-78.868-16.5a6.54,6.54,0,0,0-5.2-2.311c-2.159,0-3.288.784-3.288,1.9,0,1.513,1.708,2.038,4.96,2.963,3.589,1.02,7.662,2.172,7.662,6.946,0,4.818-3.928,6.979-8.9,6.979-4.194,0-7.615-1.207-9.815-4.209l3.835-3.2a7.116,7.116,0,0,0,5.93,2.788c2.682,0,3.663-.955,3.663-1.963,0-1.481-1.556-1.842-5.32-2.9-3.871-1.089-7.236-2.6-7.236-7.2,0-4.059,3.293-6.7,8.676-6.7,3.4,0,6.554.917,8.816,3.755Zm51.439-.978a3.3,3.3,0,0,1,2.584,1.093L143.564,80.8a2.848,2.848,0,0,0-1.759-.568c-1.306,0-2.425,1.138-2.425,3.2V92.4H134.2V75.679h5.077v2.343C140.188,76.429,141.347,75.358,143.031,75.358Zm-29.824,5.77V92.4H108.1V82.947c0-1.814-.961-2.923-2.664-2.923a2.706,2.706,0,0,0-2.864,2.993V92.4H97.46V69.8h5.109v8.129a6.248,6.248,0,0,1,5.12-2.578C110.807,75.347,113.207,77.405,113.207,81.128Zm19.336,7.392v3.542a8.21,8.21,0,0,1-3,.552,3.4,3.4,0,0,1-3.487-2.094,7.5,7.5,0,0,1-5.516,2.221c-3.416,0-5.614-1.766-5.614-5.122,0-3.289,2.634-5.253,6.706-5.253a16.486,16.486,0,0,1,4.011.5v-.548c0-1.868-1.077-2.994-3.3-2.994a6.367,6.367,0,0,0-4.062,1.634l-2.814-3.2a11.283,11.283,0,0,1,7.5-2.66c4.82,0,7.728,2.342,7.728,6.725v5.859a.859.859,0,0,0,.984.957A3.594,3.594,0,0,0,132.543,88.52Zm-6.894-2.866a12.42,12.42,0,0,0-2.859-.374c-1.757,0-2.628.872-2.628,2.07,0,1.133.771,1.953,2.351,1.953,1.67,0,3.137-1.011,3.137-2.544Zm57.083,5.266a1.676,1.676,0,1,1-1.676-1.675A1.559,1.559,0,0,1,182.732,90.92Zm-.275,0a1.406,1.406,0,1,0-1.4,1.45A1.313,1.313,0,0,0,182.457,90.92Zm-1.064.2.319.591h-.337l-.293-.546h-.364v.546h-.3V90.06h.692c.4,0,.611.206.611.528A.507.507,0,0,1,181.393,91.117Zm.018-.51a.264.264,0,0,0-.3-.287h-.39V90.9h.346C181.286,90.9,181.411,90.83,181.411,90.606Z" transform="translate(-47.235 -46.422)"/>
  <g id="Group_493" data-name="Group 493" transform="translate(-579.688 -23.6)" opacity="0">
    <path id="Path_423" data-name="Path 423" d="M91.592,76.336a6.54,6.54,0,0,0-5.2-2.311c-2.159,0-3.288.784-3.288,1.9,0,1.513,1.708,2.038,4.96,2.963,3.589,1.02,7.662,2.172,7.662,6.946,0,4.818-3.928,6.979-8.9,6.979-4.194,0-7.615-1.207-9.815-4.209l3.835-3.2a7.116,7.116,0,0,0,5.93,2.788c2.682,0,3.663-.955,3.663-1.963,0-1.481-1.556-1.842-5.32-2.9-3.871-1.089-7.236-2.6-7.236-7.2,0-4.059,3.293-6.7,8.676-6.7,3.4,0,6.554.917,8.816,3.755Z" transform="translate(532.453 -45.822)"/>
    <path id="Path_426" data-name="Path 426" d="M91.592,76.336a6.54,6.54,0,0,0-5.2-2.311c-2.159,0-3.288.784-3.288,1.9,0,1.513,1.708,2.038,4.96,2.963,3.589,1.02,7.662,2.172,7.662,6.946,0,4.818-3.928,6.979-8.9,6.979-4.194,0-7.615-1.207-9.815-4.209l3.835-3.2a7.116,7.116,0,0,0,5.93,2.788c2.682,0,3.663-.955,3.663-1.963,0-1.481-1.556-1.842-5.32-2.9-3.871-1.089-7.236-2.6-7.236-7.2,0-4.059,3.293-6.7,8.676-6.7,3.4,0,6.554.917,8.816,3.755Z" transform="translate(600.453 0.927)"/>
    <path id="Path_424" data-name="Path 424" d="M91.592,76.336a6.54,6.54,0,0,0-5.2-2.311c-2.159,0-3.288.784-3.288,1.9,0,1.513,1.708,2.038,4.96,2.963,3.589,1.02,7.662,2.172,7.662,6.946,0,4.818-3.928,6.979-8.9,6.979-4.194,0-7.615-1.207-9.815-4.209l3.835-3.2a7.116,7.116,0,0,0,5.93,2.788c2.682,0,3.663-.955,3.663-1.963,0-1.481-1.556-1.842-5.32-2.9-3.871-1.089-7.236-2.6-7.236-7.2,0-4.059,3.293-6.7,8.676-6.7,3.4,0,6.554.917,8.816,3.755Z" transform="translate(510.266 147.359) rotate(-90)"/>
    <path id="Path_425" data-name="Path 425" d="M91.592,76.336a6.54,6.54,0,0,0-5.2-2.311c-2.159,0-3.288.784-3.288,1.9,0,1.513,1.708,2.038,4.96,2.963,3.589,1.02,7.662,2.172,7.662,6.946,0,4.818-3.928,6.979-8.9,6.979-4.194,0-7.615-1.207-9.815-4.209l3.835-3.2a7.116,7.116,0,0,0,5.93,2.788c2.682,0,3.663-.955,3.663-1.963,0-1.481-1.556-1.842-5.32-2.9-3.871-1.089-7.236-2.6-7.236-7.2,0-4.059,3.293-6.7,8.676-6.7,3.4,0,6.554.917,8.816,3.755Z" transform="translate(640.578 147.359) rotate(-90)"/>
  </g>
</svg>


