<svg xmlns="http://www.w3.org/2000/svg" width="624.892" height="728.508" xmlns:v="https://vecta.io/nano"><path d="M194.352 609.552l-.067-.047.067.047m.092.064l-.092-.064.127.09zm-.159-.108l.067.047.092.064-.071-.05-.087-.061m.087.061l-.038-.026-.05-.036.087.061m-.087-.061l.05.036-.036-.026-.014-.01m.014.01l-.014-.01.014.01m.251.176l-.07-.05.059.041.012.009m-.106-.075l.082.057.013.009-.059-.041zm0 0l-.071-.05.137.096.015.011-.082-.057m-.071-.05l.137.096-.015-.01-.161-.109.038.026m.123.087l-.011-.008-.184-.13.036.026.161.109m-.21-.147l.014.01.184.13-.012-.009-.187-.131m.187.131l-.009-.006-.179-.125.187.131m-.012-.008l-.011-.009-.165-.115.176.123m-.176-.123l.165.115c-.051-.043-.116-.073-.165-.115M593.547 38.502l-99.603 131.793c-5.794 7.701-15.062 20.578-18.786 27.489-5.879 10.916-5.998 12.376-5.998 12.376L366.996 347.549c-13.367 17.899-22.798 30.809-26.139 36.921a117.79 117.79 0 0 0-6.138 12.882c0 0-77.359 104.471-105.2 141.746-13.112 17.708-20.525 27.457-27.447 40.541-2.041 3.852-3.58 7.022-4.8 9.722-2.786 6.213-3.942 10.14-4.389 13.059a11.32 11.32 0 0 0 .075 4.818c.223.865.682 1.652 1.325 2.272l-.362-.254-.244-.171-.021-.014a36.44 36.44 0 0 1-5.584-5.25 30.37 30.37 0 0 1-5.102-8.338c-1.879-4.551-3.053-10.109-2.544-17.915.287-3.974.91-7.917 1.862-11.787 3.662-15.365 12.448-25.273 26.6-42.239l113.364-134.925c.245-4.3-.349-7.714 1.923-15.821 1.985-7.067 11.98-19.583 26.562-36.631l111.211-131.052s-1.418-2.812 1.893-15.53c2.101-8.047 11.472-20.3 17.858-27.579L592.115 37.497c3.557-3.801 5.771-5.367 6.516-4.853h0c-.239-.16-1.937 1.767-5.082 5.857M201.997 608.799c2.597-1.416 5.887-3.849 10.765-8.594 2.125-2.07 4.574-4.598 7.499-7.832 9.922-10.983 16.552-21.282 28.705-39.66l97.216-147.335a117.18 117.18 0 0 0 10.008-10.173c4.593-5.234 13.506-18.508 25.754-37.189l94.161-142.993s1.334-.606 9.575-9.87c5.224-5.861 14.153-18.975 19.407-27.054l89.785-138.671c2.743-4.317 3.987-6.593 3.765-6.778h0c.737.546.005 3.179-2.33 7.784-2.167 4.273-20.28 38.849-79.233 146.337-4.657 8.489-12.963 21.488-19.806 26.213-10.817 7.461-13.95 7.09-13.95 7.09l-85.111 149.328c-11.03 19.534-19.373 33.207-25.34 37.487-6.844 4.91-10.252 5.521-14.211 7.221l-88.011 152.677c-11.106 19.099-17.411 30.743-30.599 39.44a70.3 70.3 0 0 1-10.435 5.778c-7.161 3.149-12.784 3.946-17.704 3.737l-6.694-1.041a33.94 33.94 0 0 1-10.668-5.009 4.88 4.88 0 0 0 4.167.458c1.145-.314 2.247-.767 3.282-1.349m-8.341.264h0l.021.014-.021-.014m.021.014l.162.109.062.043.021.014-.244-.171m0 0l.162.109-.114-.08-.069-.048.021.014m-.021-.014h0l.069.048-.069-.048m.244.171l-.062-.043.033.023.029.022m-.062-.043l.033.023-.076-.052-.07-.05.114.08m-.114-.08l.07.05-.077-.055-.063-.043.069.048m-.069-.048h0l.063.043-.063-.043m.628.439l-.086-.061-.246-.173c-.011-.006-.021-.013-.031-.021l.362.254m-.332-.234c-.011-.006-.021-.013-.031-.021l-.021-.014.051.035m.2.141l-.2-.141.246.173-.046-.031m-.251-.175l-.029-.022.223.157.057.04-.2-.141-.051-.035m.193.135l-.057-.04-.242-.169.076.052.223.157m-.377-.263l.259.182.06.041-.242-.169-.077-.055m0 0l.259.182-.062-.043-.258-.181h0l.063.043m.193.138l-.254-.179h0l.258.181m.368.258l-.086-.061zm-.132-.093l.132.093-.086-.061-.046-.031m.132.093h0l-.193-.133.057.04.132.093m-.193-.133l-.057-.04.226.158.02.014-.193-.133m.169.119l-.042-.028-.244-.171.06.041.226.158m-.348-.244l.271.188.036.026-.244-.171-.062-.043m.271.188c-.171-.126-.352-.24-.524-.368l.254.179.271.188m-.841-.588l-.163-.115-.147-.103.31.217m-.31-.217h0l.147.103-.147-.103m.621.433l-.12-.084-.193-.132.311.217m-.311-.217l.193.132-.139-.097-.214-.15.163.115m-.31-.217h0l.224.157.137.096-.214-.15-.147-.103m.224.157l-.22-.154h0l.224.157m.397.278l-.12-.084.12.084m-.12-.084l-.139-.097.214.15.044.031-.12-.084m-.139-.097l.214.15-.113-.078-.239-.168.137.096m.101.071l-.459-.324.22.154.239.168m.158.108l-.044-.031.044.031m0 0h0l-.022-.016-.136-.094.113.078.044.031m-.617-.433h.006l.589.412-.136-.094-.459-.324m.619.433l-.024-.017.022.016zm0 0h0l-.617-.433.589.412.024.017m18.081 10.206l10.107 3.434c8.041 2.118 16.44 2.499 24.639 1.119 4.578-.767 9.062-2.012 13.38-3.716 16.445-6.415 22.43-19.404 32.498-39.236l78.791-158.005c5.232-.808 10.008-.462 18.418-4.276 7.328-3.327 15.103-17.396 24.922-37.779l76.064-155.665s4.936 1.354 18.319-4.308c8.468-3.581 16.147-16.467 20.213-25.372l68.671-154.007c1.928-4.89 2.154-7.885.905-8.782h.006c1.76 1.254 2.042 4.605.528 9.784-1.409 4.803-14.161 43.692-58.127 161.674-3.472 9.321-10.52 22.08-20.619 24.526-15.956 3.863-22.682 1.533-22.682 1.533l-67.012 162.002c-8.602 21.235-15.812 35.7-24.503 38.07-9.975 2.718-16.127 1.408-22.629 1.326l-69.579 163.335c-9.031 20.58-14.687 34.897-34.39 39.03a77.34 77.34 0 0 1-16.319 1.657c-10.794-.122-21.482-2.145-31.575-5.975l-13.514-5.815c-8.245-4.106-16.167-8.83-23.698-14.133l.013.009a93.06 93.06 0 0 0 17.174 9.57M590.68 36.492c-3.653 3.231-32.899 30.3-121.231 117.206-6.977 6.865-16.457 18.49-16.925 27.673-.747 14.514 2.214 18.686 2.214 18.686L334.473 324.769c-15.797 16.195-26.361 28.314-26.98 36.338-.707 9.207 1.254 13.577 2.283 18.77L188.252 507.96c-15.195 16.242-25.355 26.309-25.757 43.956a66.02 66.02 0 0 0 1.085 13.843 58.55 58.55 0 0 0 9.478 22.77c2.944 4.304 6.341 8.28 10.132 11.861a101.18 101.18 0 0 0 9.846 8.235l-.071-.049-.432-.303-.116-.081q-7.301-5.277-14.113-11.223a137.58 137.58 0 0 1-15.163-15.383c-7.049-8.174-12.604-17.525-16.411-27.625-1.901-5.143-3.25-10.473-4.024-15.901-2.861-19.934 8.657-30.146 24.911-45.668 35.468-31.914 129.684-121.243 129.684-121.243-2.301-6.084-5.631-11.41-6.491-21.718-.742-8.977 10.386-20.7 27.393-36.05l129.317-118.374s-4.493-5.526-6.319-21.841c-1.155-10.327 8.427-21.313 15.996-27.763L589.24 35.485c4.382-3.224 7.614-4.076 9.388-2.843h0c-1.262-.876-3.984.334-7.95 3.848M192.534 608.28l-.116-.081.116.081m.432.303l-.188-.131-.243-.171.432.303m-.188-.131l-.36-.252.116.081.243.171m.259.18l-.071-.049.071.049m-.071-.049l-.188-.131.241.167c.006.005.012.009.018.013l-.071-.049m-.188-.131l.241.167-.599-.418h0l.36.252m.259.18c-.006 0-.012-.008-.018-.013s.012.009.018.013m0 0h0l-.613-.433h-.007l.599.418c.006.005.012.009.018.013m0 0h0l-.607-.425h-.007l.613.433m.006 0c-.201-.141-.411-.281-.612-.433l.607.425zm-.628-.439l-.616-.433h-.007l.623.433m0 0h0l-.616-.433.616.433m0 0l-.613-.433h0l.616.433zm0 0h.007l-.61-.433-.011-.007.613.433m.015.009l-.617-.433.61.433h.007m32.303 20.16l16.927 8.206c11.903 5.101 24.513 9.196 38.509 10.83a97.3 97.3 0 0 0 19.257.399c22.972-1.844 28.306-17.514 36.288-38.814 15.32-46.034 60.371-168.672 60.371-168.672 7.775.972 15.294 3.238 26.834 1.618 10.055-1.418 16.699-16.279 24.09-38.363l57.954-168.345s8.531 3.313 27.057 1.251c11.719-1.305 18.148-13.946 21.023-23.683l47.576-169.342c1.107-5.464.315-9.179-1.96-10.787h0c2.788 1.968 4.089 6.04 3.395 11.794-.648 5.336-8.051 48.535-37.014 177.005-2.293 10.151-8.087 22.678-21.435 22.843-21.098.262-31.423-4.027-31.423-4.027l-48.909 174.68c-6.171 22.936-12.249 38.195-23.669 38.656-13.104.526-21.996-2.702-31.045-4.564l-51.159 174c-6.936 22.039-11.947 39.047-38.182 38.609-7.46-.151-14.89-.976-22.201-2.465-16.272-3.23-31.21-8.954-45.441-15.685l-20.342-10.597c-12.632-7.151-24.868-14.945-36.733-23.261l.015.01c9.698 6.82 19.788 13.064 30.22 18.699M587.803 34.478c-4.414 2.7-39.526 26.212-142.86 102.625-8.159 6.036-17.847 16.394-15.06 27.858 4.397 18.114 10.427 24.996 10.427 24.996l-138.366 112.04c-18.226 14.496-29.918 25.824-27.809 35.756 2.425 11.4 7.127 17.69 10.698 24.664l-137.848 114.42c-17.291 14.782-30.191 25.154-24.067 47.372 1.722 6.202 4.054 12.218 6.964 17.96 6.323 12.589 14.482 23.04 23.346 32.48a224.07 224.07 0 0 0 20.195 18.905q8.95 7.427 18.376 14.208l-.611-.433q-11.571-8.268-22.649-17.2c-8.782-7.043-17.2-14.528-25.222-22.426-11.195-11.073-21.677-23.15-30.28-37.336-3.898-6.362-7.214-13.063-9.907-20.021-9.384-24.501 4.887-35.025 23.224-49.083 40.56-28.361 146.007-107.587 146.007-107.587-4.843-7.864-10.917-15.115-14.905-27.609-3.473-10.889 8.79-21.818 28.23-35.463L433.1 184.904s-7.564-8.237-14.535-28.154c-4.409-12.598 5.376-22.327 14.138-27.951 110.811-71.155 148.873-92.893 153.666-95.325 5.206-2.646 9.459-2.782 12.252-.835h.007c-2.284-1.592-6.029-1.097-10.825 1.836M191.794 607.762h.007l-.611-.433h-.007l.611.433m.007 0l-.607-.425h0l.611.433m0 0h0l-.607-.425h0l.607.425m.015.01l-.617-.433.607.425.011.007m-.633-.443l-.612-.433h.007l.612.433h-.007m.007 0h0l-.609-.425-.009-.006.612.433m.009.006c-.202-.141-.413-.281-.612-.433l.609.425zm3.086 2.164l-.02-.014.02.014m43.448 27.959l23.753 12.986c16.56 8.361 33.824 15.715 52.377 20.54 8.243 2.189 16.65 3.701 25.139 4.522 29.498 2.724 34.186-15.632 40.077-38.401 10.235-49.598 41.951-179.333 41.951-179.333 10.319 2.753 20.579 6.939 35.248 7.509 12.786.494 18.295-15.163 23.255-38.947l39.856-181.015s12.124 5.277 35.793 6.809c14.976.975 20.145-11.435 21.833-21.988 21.471-133.735 26.205-179.09 26.476-184.684.285-6.04-1.53-10.471-4.837-12.8h0c3.818 2.687 6.146 7.479 6.266 13.802.112 5.87-1.942 53.372-15.92 192.349-1.098 10.975-5.639 23.266-22.243 21.15-26.236-3.336-40.161-9.587-40.161-9.587l-30.807 187.354c-3.745 24.638-8.688 40.689-22.836 39.24-16.235-1.668-27.867-6.813-39.459-10.456l-32.738 184.667c-4.845 23.496-9.211 43.195-41.97 38.189-9.509-1.498-18.894-3.694-28.081-6.571-20.826-6.428-40.421-15.412-59.312-25.405l-27.167-15.376q-25.447-15.281-49.755-32.387l.012.009c14.037 9.84 28.448 19.158 43.249 27.827m347.199-605c-5.171 2.17-46.17 22.129-164.492 88.044-9.34 5.195-19.231 14.299-13.194 28.037 9.532 21.717 18.639 31.306 18.639 31.306l-156.467 99.364c-20.656 12.795-33.482 23.329-28.649 35.171 5.559 13.595 13.001 21.802 19.115 30.556L105.711 445.698c-19.38 13.325-35.022 24.01-22.375 50.799 3.672 7.697 7.968 15.082 12.844 22.078 10.879 15.779 23.696 29.489 37.217 42.194 9.72 9.121 19.839 17.737 30.251 25.948q13.215 10.414 26.922 20.192l-.607-.425q-15.852-11.265-31.203-23.189c-12.09-9.387-23.888-19.176-35.281-29.471-15.848-14.33-30.99-29.671-44.153-47.041-5.846-7.648-11.121-15.718-15.78-24.142-15.906-29.072 1.107-39.911 21.53-52.5 45.649-24.797 162.33-93.925 162.33-93.925-7.387-9.645-16.199-18.813-23.318-33.5-6.201-12.799 7.193-22.935 29.065-34.879l165.519-93.03s-10.641-10.951-22.752-34.466c-7.662-14.876 2.334-23.347 12.272-28.131 125.816-60.671 169.75-78.843 175.299-80.748 6.031-2.068 11.309-1.488 15.127 1.177-3.303-2.305-8.072-2.526-13.689-.171m-394.36 574.438h.007l-.605-.423-.009-.006.607.425m.015.011c-.203-.142-.412-.281-.613-.433l.605.423.009.006m3.699 2.589h0l-.062-.043.042.028.02.014m-4.312-3.02l-.613-.433.605.423.009.006M43.804 399.005c50.742-21.239 178.655-80.26 178.655-80.26-9.931-11.426-21.483-22.514-31.733-39.393-8.929-14.71 5.597-24.053 29.899-34.294l183.62-80.357s-13.716-13.657-30.963-40.776c-10.917-17.152-.715-24.355 10.405-28.317C524.501 45.441 574.31 30.818 580.621 29.446c6.855-1.491 13.158-.194 17.994 3.185-4.322-3.019-10.116-3.961-16.556-2.178-5.933 1.637-52.802 18.036-186.12 73.453-10.531 4.376-20.626 12.21-11.337 28.224 14.675 25.319 26.855 37.619 26.855 37.619l-174.571 86.688c-23.082 11.096-37.041 20.835-29.48 34.589 8.686 15.784 18.87 25.913 27.53 36.448l-170.492 87.09c-21.463 11.86-39.851 22.859-20.686 54.21 5.649 9.143 11.905 17.898 18.726 26.204 15.437 18.964 32.907 35.935 51.086 51.897q19.598 17.203 40.314 32.993 17.49 13.407 35.478 26.185-20.447-14.461-40.365-29.605-23.175-17.609-45.344-36.516c-20.507-17.597-40.307-36.194-58.018-56.752-7.793-8.969-15.029-18.407-21.667-28.262-22.435-33.632-2.665-44.793 19.84-55.916m206.929 247.573l30.577 17.765c21.221 11.627 43.138 22.234 66.243 30.257 10.138 3.569 20.503 6.454 31.027 8.636 36.021 7.295 40.063-13.755 43.863-37.982 5.143-53.16 23.527-189.997 23.527-189.997 12.863 4.535 25.866 10.64 43.667 13.404 15.513 2.404 19.888-14.046 22.413-39.536l21.758-193.689s15.722 7.233 44.533 12.367c18.227 3.251 22.136-8.914 22.646-20.307 6.479-144.23 5.855-193.882 5.369-200.016-.532-6.612-3.377-11.764-7.704-14.808a22.61 22.61 0 0 1 9.141 15.815c.869 6.397 4.168 58.204 5.185 207.685.082 11.805-3.197 23.85-23.05 19.463-31.38-6.931-48.908-15.15-48.908-15.15l-12.701 200.03c-1.316 26.336-5.127 43.183-22.001 39.825-19.37-3.861-33.739-10.925-47.877-16.351L444.13 679.318c-2.755 24.953-6.48 47.347-45.759 37.767-11.53-2.866-22.873-6.437-33.966-10.692-25.377-9.614-49.627-21.861-73.175-35.112l-33.992-20.155q-31.955-19.833-62.79-41.505l.011.009q27.578 19.319 56.279 36.944m-56.514-37.109l-.036-.026.097.068-.062-.043" fill="#224b45"/></svg>