<svg xmlns="http://www.w3.org/2000/svg" width="19.344" height="22" xmlns:v="https://vecta.io/nano"><defs><clipPath id="A"><path d="M30.657-73.282c-.12 0-.146.512-.146.941h0v.25a4 4 0 0 1-.075.942h0c-.394 1.005-.392 4.292-.389 8.454h0q0 .5 0 1.014h0c0 4.8.073 9.713.609 9.759h0c.537-.047.61-4.959.61-9.759h0q0-.515 0-1.016h0l-.389-8.452h0a3.96 3.96 0 0 1-.075-.942h0v-.25c-.002-.429-.024-.941-.145-.941z" transform="translate(-30.047 73.282)" fill="none"/></clipPath><linearGradient id="B" x1="-.168" y1=".444" x2="1.446" y2=".444"><stop offset="0" stop-color="#c9b478"/><stop offset=".1" stop-color="#d6c289"/><stop offset=".2" stop-color="#e4d29a"/><stop offset=".3" stop-color="#f2e1ad"/><stop offset=".4" stop-color="#fff2c0"/><stop offset=".5" stop-color="#fff2be"/><stop offset=".6" stop-color="#fff2bb"/><stop offset=".7" stop-color="#fff2b9"/><stop offset=".8" stop-color="#f0dea7"/><stop offset=".9" stop-color="#d8c38e"/><stop offset="1" stop-color="#bda672"/></linearGradient><clipPath id="C"><path d="M10.872-72.824a1 1 0 0 1 .182.282h0a.99.99 0 0 1 .061.355h0v.077h0v.16h0a.98.98 0 0 0 .213.6h0a.97.97 0 0 0 .4.294h0c3.822 1.541 6.28 5.3 6.159 9.42h0c.012 2.113-.627 4.178-1.832 5.913h0c-1.107 1.614-2.709 2.825-4.564 3.449h0c-.439.14-.845.369-1.191.674h0c-.165.178-.389.292-.63.321h0c-.241-.029-.465-.143-.63-.321h0a3.32 3.32 0 0 0-1.192-.677h0c-1.855-.624-3.457-1.835-4.564-3.449h0a10.26 10.26 0 0 1-1.832-5.913h0c-.121-4.12 2.336-7.879 6.159-9.42h0a.97.97 0 0 0 .4-.294h0a.98.98 0 0 0 .212-.6h0v-.16h0v-.077h0a.98.98 0 0 1 .062-.355h0c.044-.103.105-.199.181-.282h0a1.35 1.35 0 0 1 .612-.358h0c-.5.065-1.052.268-1.052.909h0v.25c0 .449-.304.842-.739.955h0A9.74 9.74 0 0 0 0-61.633h0c.004 2.227.769 4.385 2.167 6.118h0c1.373 1.706 3.283 2.898 5.419 3.382h0a3.73 3.73 0 0 1 1.435.642h0c.181.161.409.26.65.282h0c.242-.022.47-.121.651-.282h0c.427-.314.916-.533 1.435-.642h0c2.136-.484 4.045-1.676 5.419-3.382h0c1.398-1.733 2.162-3.891 2.167-6.118h0a9.74 9.74 0 0 0-7.292-9.435h0c-.435-.113-.74-.505-.74-.955h0v-.25c0-.641-.556-.844-1.052-.909h0a1.35 1.35 0 0 1 .612.358" transform="translate(0 73.182)" fill="none"/></clipPath><clipPath id="D"><path d="M23.8-72.751a4.94 4.94 0 0 1 .092.916h0l.006.188h0a1.5 1.5 0 0 0 .088.508h0l.071.158h0l.093.2h0c.838 1.556 1.379 5.156 1.379 9.17h0c.076 2.933-.391 5.854-1.379 8.617h0l-.256.631h0c-.151.4-.251.662-.429.67h0c-.177-.008-.278-.271-.429-.67h0l-.255-.631h0a23.75 23.75 0 0 1-1.381-8.613h0c0-4.014.541-7.613 1.379-9.17h0c.036-.068.065-.137.093-.2h0l.071-.158h0c.059-.163.088-.335.088-.508h0l.006-.188h0a4.94 4.94 0 0 1 .092-.916h0c.016-.149.068-.291.152-.415h0c-.1.048-.208.164-.286.446h0a2.86 2.86 0 0 0-.142.753h0v.089.161h0a1.28 1.28 0 0 1-.123.557h0l-.057.1h0c-.046.09-.102.174-.166.252h0c-1.5 1.673-2.464 5.286-2.464 9.2h0c0 4.292 1.358 7.41 2.52 8.775h0c.192.235.359.488.5.757h0c.15.268.249.445.4.45h0c.152 0 .252-.182.4-.45h0a4.5 4.5 0 0 1 .5-.757h0c1.162-1.365 2.52-4.483 2.521-8.775h0c0-3.917-.967-7.53-2.464-9.2h0a1.36 1.36 0 0 1-.166-.252h0l-.057-.1h0c-.083-.174-.125-.364-.123-.557h0v-.161h0v-.089c-.014-.256-.062-.51-.143-.753h0c-.078-.282-.186-.4-.285-.446h0a.91.91 0 0 1 .152.415" transform="translate(-20.034 73.166)" fill="none"/></clipPath><clipPath id="E"><path d="M16.932-72.778c.03.063.141.346.168.443h0l.013.045h0a1.15 1.15 0 0 1 .036.32h0v.059.153h0a1.11 1.11 0 0 0 .144.556h0l.02.03c.066.113.151.214.249.3h0c2.172 1.646 3.575 5.3 3.575 9.3h0a13.94 13.94 0 0 1-1.078 5.47h0c-.552 1.379-1.45 2.593-2.608 3.523h0a3.27 3.27 0 0 0-.705.742h0c-.173.233-.3.4-.49.4h0c-.191 0-.316-.172-.489-.4h0a3.28 3.28 0 0 0-.706-.742h0c-1.158-.93-2.056-2.144-2.608-3.523h0c-.724-1.732-1.091-3.593-1.078-5.47h0c0-4 1.4-7.651 3.575-9.3h0c.099-.086.183-.187.249-.3h0l.021-.03c.095-.17.145-.361.143-.556h0v-.153h0v-.059a1.16 1.16 0 0 1 .036-.32h0c0-.011.008-.027.013-.045h0a5.31 5.31 0 0 1 .168-.443h0a.77.77 0 0 1 .274-.336h0a.76.76 0 0 0-.35.23h0a1.23 1.23 0 0 0-.283.509h0c-.029.104-.044.212-.044.321h0v.073h0v.153h0a1.1 1.1 0 0 1-.181.61h0c-.089.13-.204.241-.339.323h0c-2.823 1.518-4.647 5.176-4.646 9.318h0c0 4.032 1.934 7.7 4.812 9.136h0a3.06 3.06 0 0 1 .922.723h0c.186.2.321.342.509.344h0c.188 0 .323-.145.509-.344h0c.258-.298.571-.544.922-.723h0c2.877-1.433 4.811-5.1 4.812-9.136h0c0-4.142-1.823-7.8-4.646-9.318h0c-.135-.082-.25-.193-.339-.323h0a1.1 1.1 0 0 1-.181-.61h0v-.153h0v-.073h0a1.16 1.16 0 0 0-.044-.321h0a1.23 1.23 0 0 0-.283-.509h0c-.093-.108-.214-.187-.35-.23h0a.77.77 0 0 1 .274.336" transform="translate(-10.017 73.114)" fill="none"/></clipPath></defs><g transform="translate(9.062)" clip-path="url(#A)"><path d="M-8.449 0H9.67v22.044H-8.449z" fill="url(#B)"/></g><g transform="translate(0 .028)" clip-path="url(#C)"><path d="M0-.03h19.344v22H0z" fill="url(#B)"/></g><g transform="translate(6.246 .033)" clip-path="url(#D)"><path d="M-5.633-.035h18.119v22.032H-5.633z" fill="url(#B)"/></g><g transform="translate(3.429 .047)" clip-path="url(#E)"><path d="M-2.817-.05h18.119v22.018H-2.817z" fill="url(#B)"/></g></svg>